<svg width="178" height="102" viewBox="0 0 178 102" fill="none" xmlns="http://www.w3.org/2000/svg">
<g clip-path="url(#clip0_6966_18105)">
<path d="M3.10571 30.6163C2.70471 30.7416 2.27769 30.7593 1.86767 30.6675C1.45765 30.5757 1.07912 30.3776 0.770194 30.0933C0.461272 29.8089 0.232875 29.4483 0.108008 29.0478C-0.0168593 28.6473 -0.0337856 28.2211 0.0589352 27.812C1.45013 22.0347 6.7401 7.90637 26.0116 1.96401C34.3594 -0.610009 42.3649 -0.653951 49.7962 1.83244C55.9096 3.86945 59.968 7.05712 61.9093 8.59783C62.4026 8.98735 62.7206 9.5565 62.7934 10.1801C62.8663 10.8036 62.688 11.4306 62.2977 11.9229C62.2929 11.929 62.288 11.9351 62.2831 11.9411C61.8824 12.435 61.3033 12.7519 60.6707 12.8236C60.0381 12.8953 59.4026 12.716 58.9012 12.3243C55.384 9.55808 44.7105 1.1543 27.4118 6.48835C10.5207 11.6967 5.93235 23.8794 4.74227 28.8637C4.65189 29.2754 4.4523 29.6553 4.16439 29.9637C3.87648 30.272 3.51083 30.4974 3.10572 30.6163L3.10571 30.6163Z" fill="#0066F4"/>
<path d="M55.632 63.3389C55.4406 63.4006 55.242 63.4379 55.0412 63.4497C39.9857 64.2591 30.4067 51.7741 30.0134 51.2535L29.9405 51.1334C29.7005 50.7617 23.9045 41.9593 26.4561 34.9685C27.6281 31.7725 30.2201 29.5292 34.182 28.3076C37.8668 27.1714 40.8819 27.5074 43.4484 29.3367C45.5527 30.8272 46.9014 33.0498 48.2086 35.1961C50.9272 39.6526 52.5933 41.92 57.7608 40.6118C60.0298 40.037 61.0892 38.2663 61.5732 36.8869C62.8763 33.1335 61.7214 28.0166 58.6659 24.1453C54.7184 19.1228 43.6711 10.7808 30.0408 14.9837C24.2202 16.7785 19.4567 20.3153 16.2667 25.1854C13.6239 29.227 12.0876 34.2468 12.054 38.928C12.0009 47.6443 19.1574 59.1114 19.2252 59.2153C19.39 59.4783 19.5013 59.7712 19.5526 60.0772C19.604 60.3832 19.5945 60.6963 19.5247 60.9987C19.4548 61.301 19.326 61.5866 19.1456 61.8393C18.9651 62.0919 18.7366 62.3066 18.473 62.4711C18.4657 62.4757 18.4584 62.4802 18.451 62.4847C17.911 62.8208 17.2602 62.9315 16.6392 62.7928C16.0182 62.6541 15.4767 62.2771 15.1318 61.7432C14.8088 61.2188 7.1672 48.9921 7.22876 38.9183C7.31446 27.9992 13.9619 14.9677 28.6356 10.443C35.4182 8.35165 42.5459 8.70317 49.2536 11.4483C54.4525 13.5891 59.2641 17.1328 62.4452 21.1793C66.5083 26.3444 67.9398 33.1053 66.0901 38.3822C64.857 41.9001 62.3041 44.3274 58.9114 45.1953C50.069 47.4405 46.605 41.7876 44.0787 37.664C41.4845 33.4365 40.0495 31.4544 35.5659 32.8369C33.1039 33.5961 31.5872 34.8125 30.9493 36.5602C30.0813 38.9493 30.904 42.0116 31.7469 44.1584C31.7557 44.1809 31.7644 44.2033 31.7732 44.2256C32.8539 46.9543 34.5405 49.4028 36.706 51.387C40.1749 54.5846 46.6148 59.1432 54.8226 58.7036C55.4501 58.6647 56.0674 58.8762 56.5386 59.2916C57.0099 59.707 57.2965 60.2922 57.3355 60.9185C57.336 60.9261 57.3364 60.9337 57.3368 60.9412C57.3561 61.4723 57.1996 61.995 56.8914 62.4284C56.5832 62.8618 56.1406 63.1817 55.632 63.3388L55.632 63.3389Z" fill="#0066F4"/>
<path d="M37.3751 67.8274C37.0612 67.9244 36.731 67.9568 36.4042 67.9227C36.0775 67.8886 35.7611 67.7888 35.4741 67.6292C28.0485 63.4296 22.8356 57.7811 19.0819 49.8643L19.0667 49.8155C16.701 44.5371 15.2768 36.4725 18.4183 29.6563C20.7374 24.6269 25.0907 21.0918 31.3352 19.1663C38.721 16.8889 45.5981 18.5657 51.2423 23.992C53.8092 26.4964 55.8966 29.4475 57.402 32.7001C57.642 33.2853 57.6415 33.9413 57.4007 34.5262C57.1599 35.111 56.6981 35.5778 56.1153 35.8254C55.5324 36.0731 54.8753 36.0818 54.286 35.8496C53.6968 35.6174 53.2228 35.163 52.9666 34.5847C51.692 31.87 49.9321 29.4101 47.7733 27.3258C43.4227 23.1942 38.3653 21.9725 32.7241 23.712C27.8491 25.2152 24.4923 27.8726 22.7739 31.6114C20.2958 36.9929 21.5716 43.7127 23.423 47.8483C26.7329 54.8501 31.324 59.8168 37.8595 63.5064C38.1295 63.6584 38.3669 63.8619 38.558 64.1055C38.7492 64.349 38.8904 64.6278 38.9736 64.9258C39.0569 65.2238 39.0805 65.5353 39.0431 65.8424C39.0058 66.1495 38.9082 66.4463 38.756 66.7158C38.7499 66.7265 38.7438 66.7371 38.7376 66.7477C38.4332 67.2637 37.9476 67.6485 37.3751 67.8274Z" fill="#0066F4"/>
<path d="M38.157 44.1605C39.8534 44.1605 41.2286 42.7878 41.2286 41.0945C41.2286 39.4011 39.8534 38.0284 38.157 38.0284C36.4606 38.0284 35.0854 39.4011 35.0854 41.0945C35.0854 42.7878 36.4606 44.1605 38.157 44.1605Z" fill="#003780"/>
<path d="M93.5403 78.5333C93.4768 78.5333 93.4135 78.5285 93.3507 78.519C93.188 78.4949 93.0317 78.4388 92.8909 78.3541C92.75 78.2693 92.6274 78.1575 92.5302 78.0251L90.8429 75.7415C90.7453 75.6094 90.6748 75.4595 90.6352 75.3002C90.5957 75.1409 90.588 74.9754 90.6125 74.8132C90.6371 74.6509 90.6934 74.4951 90.7783 74.3546C90.8632 74.2141 90.9751 74.0916 91.1074 73.9943L105.532 63.375C105.664 63.2775 105.815 63.2071 105.974 63.1676C106.134 63.1282 106.3 63.1205 106.462 63.145C106.625 63.1695 106.781 63.2257 106.922 63.3105C107.062 63.3952 107.185 63.5068 107.283 63.6389L108.97 65.9223C109.167 66.189 109.25 66.5229 109.2 66.8506C109.151 67.1783 108.973 67.473 108.705 67.6697L94.2808 78.289C94.0666 78.4476 93.807 78.5332 93.5403 78.5333Z" fill="#0066F4"/>
<path d="M103.785 69.9832L101.577 66.9952C101.395 66.749 101.319 66.4407 101.364 66.1383C101.41 65.8358 101.574 65.5638 101.821 65.3823L110.268 57.9946C110.515 57.813 110.824 57.7367 111.127 57.7824C111.43 57.828 111.702 57.992 111.884 58.2382L115.921 63.0525C116.103 63.2987 116.18 63.6069 116.134 63.9094C116.088 64.2119 115.924 64.4838 115.677 64.6654L105.401 70.2268C105.154 70.4084 104.845 70.4847 104.542 70.439C104.239 70.3933 103.967 70.2294 103.785 69.9832Z" fill="#003780"/>
<path d="M117.358 101.935H114.515C114.183 101.934 113.865 101.803 113.631 101.568C113.396 101.334 113.264 101.016 113.263 100.685V77.037C113.264 76.7057 113.396 76.3881 113.631 76.1539C113.865 75.9196 114.183 75.7879 114.515 75.7875H117.358C117.689 75.7879 118.008 75.9196 118.242 76.1539C118.477 76.3881 118.609 76.7057 118.609 77.037V100.685C118.609 101.016 118.477 101.334 118.242 101.568C118.008 101.803 117.689 101.934 117.358 101.935Z" fill="#0066F4"/>
<path d="M122.98 101.935H120.137C119.805 101.934 119.487 101.803 119.252 101.568C119.018 101.334 118.886 101.016 118.885 100.685V77.037C118.886 76.7057 119.018 76.3881 119.252 76.1539C119.487 75.9196 119.805 75.7879 120.137 75.7875H122.98C123.312 75.7879 123.63 75.9196 123.864 76.1539C124.099 76.3881 124.231 76.7057 124.232 77.037V100.685C124.231 101.016 124.099 101.334 123.864 101.568C123.63 101.803 123.312 101.934 122.98 101.935Z" fill="#0066F4"/>
<path d="M149.632 101.569H87.2272V102H149.632V101.569Z" fill="#3F3D56"/>
<path d="M117.52 47.9177C123.212 47.9177 127.827 43.3114 127.827 37.6293C127.827 31.9471 123.212 27.3408 117.52 27.3408C111.828 27.3408 107.213 31.9471 107.213 37.6293C107.213 43.3114 111.828 47.9177 117.52 47.9177Z" fill="#0066F4"/>
<path d="M133.477 89.809L127.508 63.3482V57.0964C127.508 56.6885 127.346 56.2973 127.057 56.0089C126.768 55.7205 126.376 55.5585 125.967 55.5584H120.249V51.5382C120.249 51.3362 120.209 51.1362 120.132 50.9496C120.055 50.763 119.941 50.5935 119.798 50.4507C119.655 50.3079 119.485 50.1946 119.298 50.1173C119.111 50.04 118.911 50.0002 118.709 50.0002H115.627C115.425 50.0002 115.224 50.04 115.038 50.1173C114.851 50.1946 114.681 50.3079 114.538 50.4507C114.395 50.5935 114.281 50.763 114.204 50.9496C114.126 51.1362 114.086 51.3362 114.086 51.5382V55.5584H108.368C107.96 55.5585 107.568 55.7205 107.279 56.0089C106.99 56.2973 106.828 56.6885 106.828 57.0964V89.9858C106.828 90.183 106.866 90.3784 106.94 90.5611C107.01 90.8896 107.188 91.1855 107.445 91.4017C107.702 91.6178 108.025 91.7419 108.361 91.7542L132.516 92.5581C133.96 92.5959 134.615 90.7218 133.477 89.809Z" fill="#003780"/>
<path d="M117.619 41.2844C116.982 41.2666 116.19 41.2444 115.58 40.7993C115.398 40.6614 115.249 40.4855 115.142 40.2839C115.036 40.0824 114.975 39.86 114.963 39.6324C114.952 39.4705 114.979 39.3083 115.041 39.1584C115.103 39.0085 115.199 38.8749 115.322 38.7682C115.641 38.4994 116.107 38.4365 116.608 38.5835L116.088 34.7913L116.47 34.7391L117.081 39.1972L116.762 39.0514C116.392 38.882 115.885 38.796 115.57 39.0619C115.493 39.1314 115.433 39.2178 115.394 39.3144C115.356 39.4109 115.34 39.5151 115.348 39.6187C115.358 39.7881 115.403 39.9535 115.483 40.1036C115.562 40.2538 115.672 40.3852 115.807 40.4888C116.282 40.8352 116.914 40.8801 117.63 40.9L117.619 41.2844Z" fill="#2F2E41"/>
<path d="M114.201 35.1185H112.126V35.503H114.201V35.1185Z" fill="#2F2E41"/>
<path d="M120.749 35.1185H118.674V35.503H120.749V35.1185Z" fill="#2F2E41"/>
<path d="M108.494 30.9791C106.663 29.8716 105.801 27.7705 105.799 25.6925C105.798 24.585 106.039 23.4905 106.505 22.4853C106.971 21.4802 107.651 20.5885 108.498 19.8725C110.384 18.2445 112.895 17.4478 115.348 17.2454C118.317 17.0005 121.266 17.6445 124.101 18.4665C127.136 19.3467 130.11 20.4541 133.217 21.0703C136.233 21.6683 139.256 21.7272 142.224 20.8625C144.964 20.0644 147.745 18.6542 150.672 18.8986C153.2 19.1097 155.119 20.7887 156.411 22.8631C158.974 26.9815 159.177 32.5093 162.863 35.9389C164.458 37.4217 166.534 38.0934 168.61 38.5955C170.6 39.0769 172.723 39.3854 174.549 40.3597C176.507 41.4044 177.693 43.3681 177.387 45.6182C177.039 48.1738 175.217 50.3733 173.211 51.8745C171.1 53.435 168.666 54.5058 166.088 55.0088C163.509 55.5118 160.851 55.4345 158.306 54.7823C152.984 53.3731 148.66 49.2562 142.99 48.9982C139.827 48.8543 136.713 49.7144 133.55 49.5718C131.358 49.473 128.999 48.6641 127.473 47.0371C126.74 46.2758 126.282 45.2925 126.172 44.2425C126.137 43.8762 125.559 43.8726 125.594 44.2425C125.81 46.5411 127.505 48.2389 129.528 49.1723C130.593 49.66 131.73 49.9724 132.895 50.0974C134.442 50.268 136.02 50.1066 137.561 49.938C139.189 49.7598 140.82 49.5403 142.462 49.56C143.96 49.5837 145.445 49.8473 146.86 50.3407C149.576 51.2708 152.024 52.8138 154.619 54.0156C157.131 55.1788 159.761 55.8999 162.543 55.9178C165.225 55.9311 167.877 55.3633 170.317 54.2535C172.72 53.1608 174.979 51.5296 176.475 49.3307C177.878 47.2691 178.614 44.5645 177.352 42.2565C176.362 40.4476 174.475 39.5322 172.572 38.9686C170.463 38.3438 168.259 38.0585 166.194 37.2805C165.115 36.8934 164.122 36.299 163.272 35.5311C162.36 34.6475 161.609 33.6126 161.051 32.4724C159.869 30.1707 159.265 27.6427 158.27 25.2653C157.348 23.063 156.086 20.8434 154.053 19.4862C152.961 18.7649 151.692 18.3559 150.383 18.3036C148.935 18.2382 147.497 18.57 146.12 18.9881C144.664 19.4305 143.243 19.983 141.776 20.3902C140.231 20.8197 138.629 21.0107 137.025 20.9566C133.728 20.8493 130.542 19.8716 127.421 18.8858C121.952 17.1588 115.87 15.31 110.372 17.972C108.23 19.0093 106.415 20.7495 105.65 23.0347C104.973 25.0567 105.067 27.4152 106.11 29.299C106.605 30.195 107.326 30.946 108.202 31.4771C108.521 31.67 108.812 31.1715 108.494 30.9791L108.494 30.9791Z" fill="#0066F4"/>
<path d="M124.428 82.3923H121.586C121.254 82.3919 120.936 82.2601 120.701 82.0259C120.467 81.7916 120.334 81.474 120.334 81.1427V64.7535C120.334 64.4222 120.467 64.1046 120.701 63.8703C120.936 63.6361 121.254 63.5043 121.586 63.5039H124.428C124.76 63.5043 125.079 63.6361 125.313 63.8703C125.548 64.1046 125.68 64.4222 125.68 64.7535V81.1427C125.68 81.474 125.548 81.7916 125.313 82.0259C125.079 82.2601 124.76 82.3919 124.428 82.3923Z" fill="#0066F4"/>
<path d="M113.456 28.4334C113.52 28.8853 113.708 29.3104 114.001 29.661C114.293 30.0115 114.678 30.2736 115.112 30.4175C115.545 30.5614 116.011 30.5815 116.455 30.4755C116.9 30.3696 117.306 30.1417 117.627 29.8177L117.145 29.6905C117.414 30.3783 117.866 30.9801 118.451 31.4317C119.036 31.8833 119.734 32.1677 120.468 32.2545C121.203 32.3413 121.947 32.2272 122.622 31.9245C123.297 31.6218 123.877 31.1417 124.3 30.5357C124.517 30.234 124.016 29.9458 123.801 30.2446C123.436 30.7538 122.942 31.1562 122.369 31.4099C121.796 31.6637 121.165 31.7594 120.542 31.6871C119.919 31.6149 119.327 31.3774 118.828 30.9992C118.328 30.6211 117.939 30.1162 117.702 29.5372C117.687 29.4893 117.661 29.446 117.625 29.4112C117.589 29.3765 117.544 29.3516 117.496 29.3388C117.448 29.3261 117.397 29.3259 117.348 29.3384C117.3 29.3508 117.255 29.3754 117.219 29.4099C116.968 29.6627 116.651 29.8392 116.304 29.9188C115.956 29.9984 115.593 29.9778 115.257 29.8593C114.921 29.7409 114.626 29.5296 114.406 29.25C114.186 28.9704 114.049 28.634 114.013 28.2801C113.962 27.9142 113.405 28.0699 113.456 28.4335V28.4334Z" fill="#2F2E41"/>
<path d="M95.2446 69.3774L95.1843 69.4182L94.0658 67.7713C93.9808 67.6462 93.8719 67.5389 93.7454 67.4558C93.6189 67.3726 93.4772 67.3151 93.3284 67.2866C93.1797 67.2581 93.0267 67.2592 92.8783 67.2897C92.7299 67.3201 92.589 67.3795 92.4636 67.4644L88.9682 69.8297C88.8428 69.9146 88.7354 70.0233 88.6521 70.1496C88.5687 70.2759 88.5112 70.4173 88.4826 70.5658C88.454 70.7143 88.4551 70.867 88.4856 71.0151C88.5162 71.1632 88.5756 71.3039 88.6607 71.429L94.7968 80.4638C94.8818 80.589 94.9906 80.6962 95.1172 80.7794C95.2437 80.8626 95.3854 80.92 95.5342 80.9486C95.6829 80.9771 95.8359 80.976 95.9843 80.9455C96.1326 80.915 96.2735 80.8557 96.3989 80.7708L99.8944 78.4055C100.02 78.3206 100.127 78.2119 100.211 78.0856C100.294 77.9593 100.351 77.8179 100.38 77.6694C100.409 77.5209 100.407 77.3682 100.377 77.2201C100.346 77.072 100.287 76.9313 100.202 76.8062L95.9804 70.5905L96.0407 70.5497L95.2446 69.3774Z" fill="#3F3D56"/>
<path d="M92.7279 67.892L92.2863 68.1908C92.3404 68.2268 92.3848 68.2754 92.4156 68.3326C92.4463 68.3897 92.4626 68.4535 92.4629 68.5183C92.4631 68.5832 92.4474 68.6471 92.4171 68.7045C92.3868 68.7618 92.3428 68.8109 92.289 68.8473L90.3508 70.1589C90.297 70.1952 90.2351 70.2179 90.1705 70.2247C90.1059 70.2316 90.0406 70.2225 89.9803 70.1983C89.9201 70.174 89.8667 70.1353 89.825 70.0857C89.7832 70.036 89.7543 69.9768 89.7409 69.9134L89.3284 70.1925C89.2377 70.2539 89.1601 70.3324 89.0998 70.4237C89.0396 70.515 88.998 70.6172 88.9774 70.7246C88.9567 70.8319 88.9575 70.9423 88.9795 71.0494C89.0016 71.1564 89.0446 71.2581 89.1061 71.3486L95.0365 80.0805C95.0979 80.171 95.1766 80.2485 95.2681 80.3086C95.3595 80.3687 95.4619 80.4103 95.5695 80.4309C95.677 80.4515 95.7876 80.4508 95.8948 80.4287C96.0021 80.4067 96.104 80.3638 96.1946 80.3024L99.5941 78.002C99.7771 77.8781 99.9034 77.6867 99.9451 77.4699C99.9868 77.2531 99.9405 77.0287 99.8164 76.8459L93.8859 68.1139C93.8245 68.0235 93.7458 67.946 93.6543 67.8859C93.5629 67.8257 93.4604 67.7842 93.3529 67.7636C93.2454 67.743 93.1348 67.7437 93.0276 67.7658C92.9203 67.7878 92.8184 67.8307 92.7278 67.8921L92.7279 67.892Z" fill="white"/>
</g>
<defs>
<clipPath id="clip0_6966_18105">
<rect width="178" height="102" fill="white"/>
</clipPath>
</defs>
</svg>
