<svg width="65" height="20" viewBox="0 0 65 20" fill="none" xmlns="http://www.w3.org/2000/svg">
<rect width="65" height="20" rx="10" fill="#FCFCFC"/>
<circle cx="11" cy="10" r="3" fill="#12B76A"/>
<path d="M22.36 14L25.456 5.6H26.524L29.608 14H28.54L27.772 11.84H24.196L23.416 14H22.36ZM24.496 11.024H27.472L25.984 6.872L24.496 11.024ZM33.2046 14.144C32.6366 14.144 32.1246 14.016 31.6686 13.76C31.2206 13.496 30.8646 13.132 30.6006 12.668C30.3446 12.196 30.2166 11.648 30.2166 11.024C30.2166 10.4 30.3446 9.856 30.6006 9.392C30.8646 8.92 31.2206 8.556 31.6686 8.3C32.1246 8.036 32.6366 7.904 33.2046 7.904C33.9086 7.904 34.5006 8.088 34.9806 8.456C35.4686 8.824 35.7766 9.316 35.9046 9.932H34.8726C34.7926 9.564 34.5966 9.28 34.2846 9.08C33.9726 8.872 33.6086 8.768 33.1926 8.768C32.8566 8.768 32.5406 8.852 32.2446 9.02C31.9486 9.188 31.7086 9.44 31.5246 9.776C31.3406 10.112 31.2486 10.528 31.2486 11.024C31.2486 11.52 31.3406 11.936 31.5246 12.272C31.7086 12.608 31.9486 12.864 32.2446 13.04C32.5406 13.208 32.8566 13.292 33.1926 13.292C33.6086 13.292 33.9726 13.192 34.2846 12.992C34.5966 12.784 34.7926 12.492 34.8726 12.116H35.9046C35.7846 12.716 35.4806 13.204 34.9926 13.58C34.5046 13.956 33.9086 14.144 33.2046 14.144ZM39.5003 14C38.9563 14 38.5283 13.868 38.2163 13.604C37.9043 13.34 37.7483 12.864 37.7483 12.176V8.9H36.7163V8.048H37.7483L37.8803 6.62H38.7563V8.048H40.5083V8.9H38.7563V12.176C38.7563 12.552 38.8323 12.808 38.9843 12.944C39.1363 13.072 39.4043 13.136 39.7883 13.136H40.4123V14H39.5003ZM42.4009 6.728C42.2009 6.728 42.0329 6.664 41.8969 6.536C41.7689 6.4 41.7049 6.232 41.7049 6.032C41.7049 5.84 41.7689 5.68 41.8969 5.552C42.0329 5.424 42.2009 5.36 42.4009 5.36C42.5929 5.36 42.7569 5.424 42.8929 5.552C43.0289 5.68 43.0969 5.84 43.0969 6.032C43.0969 6.232 43.0289 6.4 42.8929 6.536C42.7569 6.664 42.5929 6.728 42.4009 6.728ZM41.8969 14V8.048H42.9049V14H41.8969ZM46.376 14L44.12 8.048H45.176L46.964 13.028L48.764 8.048H49.796L47.54 14H46.376ZM53.2892 14.144C52.7212 14.144 52.2172 14.016 51.7772 13.76C51.3372 13.496 50.9892 13.132 50.7332 12.668C50.4852 12.204 50.3612 11.656 50.3612 11.024C50.3612 10.4 50.4852 9.856 50.7332 9.392C50.9812 8.92 51.3252 8.556 51.7652 8.3C52.2132 8.036 52.7292 7.904 53.3132 7.904C53.8892 7.904 54.3852 8.036 54.8012 8.3C55.2252 8.556 55.5492 8.896 55.7732 9.32C55.9972 9.744 56.1092 10.2 56.1092 10.688C56.1092 10.776 56.1052 10.864 56.0972 10.952C56.0972 11.04 56.0972 11.14 56.0972 11.252H51.3572C51.3812 11.708 51.4852 12.088 51.6692 12.392C51.8612 12.688 52.0972 12.912 52.3772 13.064C52.6652 13.216 52.9692 13.292 53.2892 13.292C53.7052 13.292 54.0532 13.196 54.3332 13.004C54.6132 12.812 54.8172 12.552 54.9452 12.224H55.9412C55.7812 12.776 55.4732 13.236 55.0172 13.604C54.5692 13.964 53.9932 14.144 53.2892 14.144ZM53.2892 8.756C52.8092 8.756 52.3812 8.904 52.0052 9.2C51.6372 9.488 51.4252 9.912 51.3692 10.472H55.1132C55.0892 9.936 54.9052 9.516 54.5612 9.212C54.2172 8.908 53.7932 8.756 53.2892 8.756Z" fill="#027A48"/>
</svg>
