<svg width="39" height="23" viewBox="0 0 39 23" fill="none" xmlns="http://www.w3.org/2000/svg">
<path d="M19.6417 9.80857C22.074 9.80857 24.0458 7.83676 24.0458 5.40441C24.0458 2.97205 22.074 1.00024 19.6417 1.00024C17.2093 1.00024 15.2375 2.97205 15.2375 5.40441C15.2375 7.83676 17.2093 9.80857 19.6417 9.80857Z" stroke="#0066F4" stroke-width="1.5" stroke-linecap="round" stroke-linejoin="round"/>
<path d="M10.7604 22.0004V19.4921C10.7604 16.5754 13.1229 14.2129 16.0396 14.2129H23.9438C26.8604 14.2129 29.2229 16.5754 29.2229 19.4921V22.0004" stroke="#0066F4" stroke-width="1.5" stroke-linecap="round" stroke-linejoin="round"/>
<path d="M30.6375 11.0626C32.4417 11.0626 33.9042 9.60009 33.9042 7.79596C33.9042 5.99183 32.4417 4.5293 30.6375 4.5293C28.8334 4.5293 27.3709 5.99183 27.3709 7.79596C27.3709 9.60009 28.8334 11.0626 30.6375 11.0626Z" stroke="#0066F4" stroke-width="1.5" stroke-linecap="round" stroke-linejoin="round"/>
<path d="M8.00418 11.0626C6.20005 11.0626 4.73752 9.60009 4.73752 7.79596C4.73752 5.99183 6.20005 4.5293 8.00418 4.5293C9.80831 4.5293 11.2709 5.99183 11.2709 7.79596C11.2709 9.60009 9.80831 11.0626 8.00418 11.0626Z" stroke="#0066F4" stroke-width="1.5" stroke-linecap="round" stroke-linejoin="round"/>
<path d="M31.5709 14.3291H33.8167C35.975 14.3291 37.725 16.0791 37.725 18.2374V20.1041" stroke="#0066F4" stroke-width="1.5" stroke-linecap="round" stroke-linejoin="round"/>
<path d="M7.07085 14.3291H4.82502C2.66669 14.3291 0.916678 16.0791 0.916678 18.2374V20.1041" stroke="#0066F4" stroke-width="1.5" stroke-linecap="round" stroke-linejoin="round"/>
</svg>
