<svg width="32" height="32" viewBox="0 0 32 32" fill="none" xmlns="http://www.w3.org/2000/svg">
<path d="M9.14665 17.3734H6.39998C4.87998 17.3734 3.65332 16.1467 3.65332 14.64V6.4267C3.65332 4.92003 4.87998 3.69336 6.39998 3.69336H25.5867C27.1067 3.69336 28.3333 4.92003 28.3333 6.4267V14.64C28.3333 16.1467 27.1067 17.3734 25.5867 17.3734H22.84" stroke="white" stroke-width="2" stroke-linecap="round" stroke-linejoin="round"/>
<path d="M22.8533 10.5203V26.0136C22.8533 27.2936 21.8133 28.3469 20.52 28.3469H11.48C10.2 28.3469 9.14664 27.3069 9.14664 26.0136V10.5203H22.8533Z" stroke="white" stroke-width="2" stroke-linecap="round" stroke-linejoin="round"/>
<path d="M13.16 22.9867V11.72" stroke="white" stroke-width="2" stroke-linecap="round" stroke-linejoin="round"/>
<path d="M18.7733 22.8267V21.4534" stroke="white" stroke-width="2" stroke-linecap="round" stroke-linejoin="round"/>
<path d="M7.77332 10.5203H24.2266" stroke="white" stroke-width="2" stroke-linecap="round" stroke-linejoin="round"/>
</svg>
