<svg width="31" height="31" viewBox="0 0 31 31" fill="none" xmlns="http://www.w3.org/2000/svg">
<path d="M30.7212 27.4504L29.952 24.2047C29.6598 22.9741 28.5522 22.1126 27.2755 22.1126H25.6603V13.2061H26.7525C28.9829 13.2061 30.7827 11.3909 30.7827 9.1604C30.7827 7.5606 29.8444 6.09924 28.3984 5.45317L17.046 0.346111C15.9999 -0.11537 14.8001 -0.11537 13.754 0.346111L2.40162 5.45317C0.95565 6.09924 0.0173 7.5606 0.0173 9.1604C0.0173 11.3909 1.81707 13.2061 4.04756 13.2061H4.38598V22.1126H3.52456C2.24779 22.1126 1.14023 22.9741 0.847956 24.2047L0.0788205 27.4504C-0.121155 28.2503 0.0634406 29.081 0.586453 29.7425C1.10946 30.4039 1.89399 30.7885 2.75542 30.7885H28.0446C28.906 30.7885 29.6906 30.4039 30.2136 29.7425C30.7366 29.081 30.9211 28.2503 30.7212 27.4504ZM14.6155 6.11463H16.1845C16.8306 6.11463 17.3382 6.62226 17.3382 7.26833C17.3382 7.89902 16.8306 8.42203 16.1845 8.42203H14.6155C13.9694 8.42203 13.4618 7.89902 13.4618 7.26833C13.4618 6.62226 13.9694 6.11463 14.6155 6.11463ZM10.7237 22.1126H6.69339V13.2061H10.7237V22.1126ZM17.0152 22.1126H13.0311V13.2061H17.0152V22.1126ZM23.3529 22.1126H19.3226V13.2061H23.3529V22.1126Z" fill="#0066F4"/>
</svg>
