<svg width="32" height="32" viewBox="0 0 32 32" fill="none" xmlns="http://www.w3.org/2000/svg">
<path d="M22.8534 9.16032L28.3333 3.66699" stroke="#167416" stroke-width="2" stroke-linecap="round" stroke-linejoin="round"/>
<path d="M28.3333 9.14648H22.8667" stroke="#167416" stroke-width="2" stroke-linecap="round" stroke-linejoin="round"/>
<path d="M22.8675 3.6665V9.1465" stroke="#167416" stroke-width="2" stroke-linecap="round" stroke-linejoin="round"/>
<path d="M13.2533 28.3333C18.5479 28.3333 22.84 24.0352 22.84 18.7333C22.84 13.4314 18.5479 9.1333 13.2533 9.1333C7.95877 9.1333 3.66667 13.4314 3.66667 18.7333C3.66667 24.0352 7.95877 28.3333 13.2533 28.3333Z" stroke="#167416" stroke-width="2" stroke-linecap="round" stroke-linejoin="round"/>
<path d="M14 18.0665V16.8398L14.92 17.1998C15.0133 17.2265 15.0933 17.2531 15.1867 17.2531C15.4267 17.2531 15.6533 17.1331 15.8 16.9331C16 16.6531 15.9733 16.2798 15.7467 16.0265C15.3467 15.5598 14.72 15.2265 14 15.0931V15.0265C14 14.6131 13.6667 14.2798 13.2533 14.2798C12.84 14.2798 12.5067 14.6131 12.5067 15.0265V15.1065C11.2133 15.3465 10.28 16.1998 10.28 17.2531C10.28 18.3065 11.2133 19.1598 12.5067 19.3998V20.6265L11.5867 20.2665C11.2667 20.1465 10.9067 20.2531 10.72 20.5331C10.52 20.8131 10.5466 21.1865 10.7733 21.4398C11.1733 21.9065 11.8 22.2398 12.52 22.3731V22.4398C12.52 22.8531 12.8533 23.1865 13.2667 23.1865C13.68 23.1865 14.0133 22.8531 14.0133 22.4398V22.3598C15.3067 22.1198 16.24 21.2665 16.24 20.2131C16.2267 19.1598 15.2933 18.3065 14 18.0665ZM12.52 17.8665C12.0533 17.7198 11.7733 17.4531 11.7733 17.2398C11.7733 17.0265 12.0533 16.7598 12.52 16.6131V17.8665ZM14 20.8398V19.5865C14.4667 19.7331 14.7467 19.9998 14.7467 20.2131C14.7467 20.4131 14.4667 20.6931 14 20.8398Z" fill="#167416"/>
</svg>
