<svg width="398" height="216" viewBox="0 0 398 216" fill="none" xmlns="http://www.w3.org/2000/svg">
<path d="M1 203.455C18.4176 198.761 32.7405 170.14 53.5229 165.329C64.5997 162.765 73.4734 167.756 83.374 175.51C93.2747 183.264 91.3366 186.613 113.603 192.591C131.978 197.524 136.784 144.336 154.79 146.38C172.796 148.423 181.124 84.4747 200.134 89.8129C219.144 95.151 222.942 81.3494 240.811 107.506C258.681 133.663 275.19 72.6932 297.622 67.355C320.054 62.0169 325.896 118.675 336.542 116.54C347.188 114.405 356.773 154.777 365.897 160.649C375.022 166.521 377.61 145.19 397 145.19" stroke="#5099FF" stroke-width="2" stroke-linecap="round" stroke-linejoin="round"/>
<path d="M53.5229 165.329C32.7405 170.14 18.4176 198.761 1 203.455V215.032H397V145.19C377.61 145.19 375.022 166.521 365.897 160.649C356.773 154.777 347.188 114.405 336.542 116.54C325.896 118.675 320.054 62.0169 297.622 67.355C275.19 72.6932 258.681 133.663 240.811 107.506C222.942 81.3494 219.144 95.151 200.134 89.8129C181.124 84.4747 172.796 148.423 154.79 146.38C136.784 144.336 131.978 197.524 113.603 192.591C91.3366 186.613 93.2747 183.264 83.374 175.51C73.4734 167.756 64.5997 162.765 53.5229 165.329Z" fill="url(#paint0_linear_2076_13158)"/>
<line x1="299.5" y1="74" x2="299.5" y2="193" stroke="#17BC08" stroke-dasharray="4.4 4.4"/>
<g filter="url(#filter0_dd_2076_13158)">
<path fill-rule="evenodd" clip-rule="evenodd" d="M299.846 52.0557C298.977 53.3148 297.568 53.3148 296.699 52.0557L296.078 51.1994C295.2 49.9898 294.761 49.385 294.199 48.9484C293.701 48.5617 293.134 48.2728 292.528 48.0967C291.845 47.898 291.098 47.898 289.603 47.898H269.741C266.701 47.898 265.599 47.5428 264.488 46.8758C263.377 46.2088 262.505 45.23 261.911 43.9828C261.316 42.7357 261 41.4986 261 38.0872V12.8108C261 9.39936 261.316 8.1623 261.911 6.91513C262.505 5.66797 263.377 4.68918 264.488 4.02219C265.599 3.3552 266.701 3 269.741 3H327.259C330.299 3 331.401 3.3552 332.512 4.02219C333.623 4.68918 334.495 5.66797 335.089 6.91513C335.684 8.1623 336 9.39936 336 12.8108V38.0872C336 41.4986 335.684 42.7357 335.089 43.9828C334.495 45.23 333.623 46.2088 332.512 46.8758C331.401 47.5428 330.299 47.898 327.259 47.898H308C307.963 47.898 307.944 47.898 307.927 47.898C304.749 47.9093 301.765 49.4305 299.89 51.9961C299.879 52.0104 299.868 52.0255 299.846 52.0557Z" fill="white"/>
</g>
<g clip-path="url(#clip0_2076_13158)">
<path d="M266.514 13.056C266.428 13.056 266.359 13.0373 266.306 13C266.258 12.9573 266.228 12.904 266.218 12.84C266.212 12.7707 266.228 12.6933 266.266 12.608L268.466 7.6C268.514 7.49333 268.57 7.41867 268.634 7.376C268.703 7.328 268.778 7.304 268.858 7.304C268.938 7.304 269.01 7.328 269.074 7.376C269.143 7.41867 269.199 7.49333 269.242 7.6L271.45 12.608C271.492 12.6933 271.508 12.7707 271.498 12.84C271.492 12.9093 271.466 12.9627 271.418 13C271.37 13.0373 271.303 13.056 271.218 13.056C271.122 13.056 271.044 13.032 270.986 12.984C270.927 12.9307 270.879 12.856 270.842 12.76L270.25 11.392L270.57 11.56H267.13L267.458 11.392L266.874 12.76C266.826 12.8613 266.775 12.936 266.722 12.984C266.668 13.032 266.599 13.056 266.514 13.056ZM268.85 8.128L267.562 11.16L267.37 11.008H270.33L270.154 11.16L268.866 8.128H268.85ZM272.71 13.056C272.603 13.056 272.523 13.0267 272.47 12.968C272.416 12.9093 272.39 12.8267 272.39 12.72V9.384C272.39 9.27733 272.416 9.19733 272.47 9.144C272.523 9.08533 272.6 9.056 272.702 9.056C272.803 9.056 272.88 9.08533 272.934 9.144C272.992 9.19733 273.022 9.27733 273.022 9.384V10.088L272.934 9.976C273.035 9.67733 273.198 9.448 273.422 9.288C273.651 9.12267 273.923 9.04 274.238 9.04C274.568 9.04 274.835 9.12 275.038 9.28C275.246 9.43467 275.384 9.67733 275.454 10.008H275.334C275.43 9.70933 275.6 9.47467 275.846 9.304C276.096 9.128 276.387 9.04 276.718 9.04C277.011 9.04 277.251 9.096 277.438 9.208C277.63 9.32 277.774 9.49067 277.87 9.72C277.966 9.944 278.014 10.2293 278.014 10.576V12.72C278.014 12.8267 277.984 12.9093 277.926 12.968C277.872 13.0267 277.792 13.056 277.686 13.056C277.584 13.056 277.504 13.0267 277.446 12.968C277.392 12.9093 277.366 12.8267 277.366 12.72V10.608C277.366 10.2507 277.304 9.98933 277.182 9.824C277.059 9.65333 276.851 9.568 276.558 9.568C276.238 9.568 275.984 9.68 275.798 9.904C275.616 10.1227 275.526 10.4213 275.526 10.8V12.72C275.526 12.8267 275.496 12.9093 275.438 12.968C275.384 13.0267 275.304 13.056 275.198 13.056C275.096 13.056 275.016 13.0267 274.958 12.968C274.904 12.9093 274.878 12.8267 274.878 12.72V10.608C274.878 10.2507 274.814 9.98933 274.686 9.824C274.563 9.65333 274.358 9.568 274.07 9.568C273.75 9.568 273.496 9.68 273.31 9.904C273.128 10.1227 273.038 10.4213 273.038 10.8V12.72C273.038 12.944 272.928 13.056 272.71 13.056ZM280.841 13.072C280.463 13.072 280.135 12.9893 279.857 12.824C279.58 12.6587 279.364 12.4267 279.209 12.128C279.06 11.824 278.985 11.4667 278.985 11.056C278.985 10.7467 279.028 10.4693 279.113 10.224C279.199 9.97333 279.324 9.76 279.489 9.584C279.655 9.408 279.849 9.27467 280.073 9.184C280.303 9.088 280.559 9.04 280.841 9.04C281.22 9.04 281.548 9.12267 281.825 9.288C282.103 9.45333 282.316 9.688 282.465 9.992C282.62 10.2907 282.697 10.6453 282.697 11.056C282.697 11.3653 282.655 11.6427 282.569 11.888C282.484 12.1333 282.359 12.3467 282.193 12.528C282.028 12.704 281.831 12.84 281.601 12.936C281.377 13.0267 281.124 13.072 280.841 13.072ZM280.841 12.552C281.081 12.552 281.292 12.4933 281.473 12.376C281.655 12.2587 281.793 12.088 281.889 11.864C281.991 11.64 282.041 11.3707 282.041 11.056C282.041 10.5707 281.932 10.2 281.713 9.944C281.5 9.688 281.209 9.56 280.841 9.56C280.596 9.56 280.383 9.61867 280.201 9.736C280.025 9.848 279.887 10.016 279.785 10.24C279.689 10.4587 279.641 10.7307 279.641 11.056C279.641 11.536 279.751 11.9067 279.969 12.168C280.188 12.424 280.479 12.552 280.841 12.552ZM285.047 13.072C284.732 13.072 284.471 13.016 284.263 12.904C284.06 12.7867 283.905 12.6133 283.799 12.384C283.697 12.1547 283.647 11.8693 283.647 11.528V9.384C283.647 9.272 283.673 9.18933 283.727 9.136C283.785 9.08267 283.865 9.056 283.967 9.056C284.073 9.056 284.153 9.08267 284.207 9.136C284.265 9.18933 284.295 9.272 284.295 9.384V11.52C284.295 11.8613 284.364 12.1173 284.503 12.288C284.647 12.4533 284.871 12.536 285.174 12.536C285.505 12.536 285.775 12.424 285.983 12.2C286.191 11.976 286.295 11.6827 286.295 11.32V9.384C286.295 9.272 286.321 9.18933 286.375 9.136C286.433 9.08267 286.516 9.056 286.623 9.056C286.724 9.056 286.801 9.08267 286.855 9.136C286.913 9.18933 286.943 9.272 286.943 9.384V12.72C286.943 12.944 286.839 13.056 286.631 13.056C286.529 13.056 286.449 13.0267 286.391 12.968C286.337 12.9093 286.311 12.8267 286.311 12.72V11.992L286.415 12.104C286.308 12.4187 286.132 12.6587 285.887 12.824C285.647 12.9893 285.367 13.072 285.047 13.072ZM288.475 13.056C288.368 13.056 288.288 13.0267 288.235 12.968C288.182 12.9093 288.155 12.8267 288.155 12.72V9.384C288.155 9.27733 288.182 9.19733 288.235 9.144C288.288 9.08533 288.366 9.056 288.467 9.056C288.568 9.056 288.646 9.08533 288.699 9.144C288.758 9.19733 288.787 9.27733 288.787 9.384V10.072L288.699 9.976C288.811 9.66667 288.992 9.43467 289.243 9.28C289.499 9.12 289.792 9.04 290.123 9.04C290.432 9.04 290.688 9.096 290.891 9.208C291.099 9.32 291.254 9.49067 291.355 9.72C291.456 9.944 291.507 10.2293 291.507 10.576V12.72C291.507 12.8267 291.478 12.9093 291.419 12.968C291.366 13.0267 291.288 13.056 291.187 13.056C291.08 13.056 290.998 13.0267 290.939 12.968C290.886 12.9093 290.859 12.8267 290.859 12.72V10.616C290.859 10.2533 290.787 9.98933 290.643 9.824C290.504 9.65333 290.28 9.568 289.971 9.568C289.614 9.568 289.328 9.68 289.115 9.904C288.907 10.1227 288.803 10.416 288.803 10.784V12.72C288.803 12.944 288.694 13.056 288.475 13.056ZM294.262 13.072C293.958 13.072 293.702 13.0187 293.494 12.912C293.291 12.8 293.139 12.64 293.038 12.432C292.936 12.2187 292.886 11.96 292.886 11.656V9.616H292.35C292.259 9.616 292.19 9.59467 292.142 9.552C292.094 9.504 292.07 9.44 292.07 9.36C292.07 9.28 292.094 9.21867 292.142 9.176C292.19 9.13333 292.259 9.112 292.35 9.112H292.886V8.192C292.886 8.08533 292.915 8.00533 292.974 7.952C293.032 7.89333 293.112 7.864 293.214 7.864C293.315 7.864 293.392 7.89333 293.446 7.952C293.504 8.00533 293.534 8.08533 293.534 8.192V9.112H294.542C294.632 9.112 294.702 9.13333 294.75 9.176C294.798 9.21867 294.822 9.28 294.822 9.36C294.822 9.44 294.798 9.504 294.75 9.552C294.702 9.59467 294.632 9.616 294.542 9.616H293.534V11.592C293.534 11.896 293.598 12.128 293.726 12.288C293.854 12.4427 294.062 12.52 294.35 12.52C294.451 12.52 294.536 12.5093 294.606 12.488C294.68 12.4667 294.742 12.456 294.79 12.456C294.838 12.4507 294.878 12.4667 294.91 12.504C294.942 12.5413 294.958 12.6053 294.958 12.696C294.958 12.76 294.944 12.8187 294.918 12.872C294.896 12.9253 294.856 12.9627 294.798 12.984C294.734 13.0053 294.648 13.024 294.542 13.04C294.44 13.0613 294.347 13.072 294.262 13.072ZM299.473 13.072C299.222 13.072 298.977 13.0507 298.737 13.008C298.497 12.9653 298.273 12.904 298.065 12.824C297.862 12.744 297.678 12.6427 297.513 12.52C297.449 12.472 297.404 12.4187 297.377 12.36C297.356 12.296 297.35 12.2347 297.361 12.176C297.377 12.112 297.404 12.0587 297.441 12.016C297.484 11.9733 297.534 11.9493 297.593 11.944C297.652 11.9387 297.716 11.9573 297.785 12C298.025 12.1707 298.281 12.296 298.553 12.376C298.825 12.4507 299.132 12.488 299.473 12.488C299.953 12.488 300.308 12.4 300.537 12.224C300.772 12.0427 300.889 11.8053 300.889 11.512C300.889 11.272 300.804 11.0853 300.633 10.952C300.468 10.8133 300.188 10.704 299.793 10.624L298.961 10.456C298.46 10.3493 298.084 10.176 297.833 9.936C297.588 9.69067 297.465 9.36533 297.465 8.96C297.465 8.70933 297.516 8.48267 297.617 8.28C297.718 8.072 297.86 7.896 298.041 7.752C298.222 7.60267 298.438 7.488 298.689 7.408C298.94 7.328 299.217 7.288 299.521 7.288C299.857 7.288 300.169 7.336 300.457 7.432C300.75 7.52267 301.014 7.66133 301.249 7.848C301.308 7.896 301.348 7.952 301.369 8.016C301.39 8.07467 301.393 8.13333 301.377 8.192C301.361 8.24533 301.332 8.29067 301.289 8.328C301.252 8.36533 301.201 8.38667 301.137 8.392C301.078 8.39733 301.012 8.376 300.937 8.328C300.724 8.168 300.502 8.05333 300.273 7.984C300.044 7.90933 299.79 7.872 299.513 7.872C299.23 7.872 298.985 7.91467 298.777 8C298.574 8.08533 298.414 8.21067 298.297 8.376C298.185 8.536 298.129 8.72267 298.129 8.936C298.129 9.192 298.206 9.39467 298.361 9.544C298.521 9.69333 298.78 9.80267 299.137 9.872L299.969 10.048C300.508 10.16 300.905 10.3307 301.161 10.56C301.422 10.784 301.553 11.0907 301.553 11.48C301.553 11.7147 301.505 11.9307 301.409 12.128C301.313 12.3253 301.174 12.496 300.993 12.64C300.812 12.7787 300.593 12.8853 300.337 12.96C300.081 13.0347 299.793 13.072 299.473 13.072ZM303.707 13.072C303.44 13.072 303.2 13.0213 302.987 12.92C302.779 12.8133 302.614 12.6693 302.491 12.488C302.368 12.3067 302.307 12.104 302.307 11.88C302.307 11.592 302.379 11.3653 302.523 11.2C302.672 11.0347 302.915 10.9173 303.251 10.848C303.592 10.7787 304.056 10.744 304.643 10.744H305.003V11.168H304.651C304.219 11.168 303.878 11.1893 303.627 11.232C303.382 11.2693 303.208 11.336 303.107 11.432C303.011 11.528 302.963 11.664 302.963 11.84C302.963 12.0587 303.038 12.2373 303.187 12.376C303.342 12.5147 303.55 12.584 303.811 12.584C304.024 12.584 304.211 12.5333 304.371 12.432C304.536 12.3307 304.664 12.192 304.755 12.016C304.851 11.84 304.899 11.6373 304.899 11.408V10.496C304.899 10.1653 304.832 9.928 304.699 9.784C304.566 9.63467 304.347 9.56 304.043 9.56C303.856 9.56 303.67 9.584 303.483 9.632C303.296 9.68 303.099 9.75733 302.891 9.864C302.816 9.90133 302.752 9.91467 302.699 9.904C302.646 9.888 302.603 9.85867 302.571 9.816C302.539 9.77333 302.52 9.72533 302.515 9.672C302.51 9.61333 302.52 9.55733 302.547 9.504C302.579 9.45067 302.627 9.408 302.691 9.376C302.926 9.25867 303.158 9.17333 303.387 9.12C303.616 9.06667 303.835 9.04 304.043 9.04C304.379 9.04 304.656 9.096 304.875 9.208C305.094 9.31467 305.256 9.48 305.363 9.704C305.47 9.92267 305.523 10.2053 305.523 10.552V12.72C305.523 12.8267 305.496 12.9093 305.443 12.968C305.395 13.0267 305.323 13.056 305.227 13.056C305.126 13.056 305.048 13.0267 304.995 12.968C304.942 12.9093 304.915 12.8267 304.915 12.72V12.096H304.987C304.944 12.2987 304.862 12.472 304.739 12.616C304.622 12.76 304.475 12.872 304.299 12.952C304.123 13.032 303.926 13.072 303.707 13.072ZM308.134 13.056C308.043 13.056 307.963 13.032 307.894 12.984C307.825 12.9307 307.766 12.8507 307.718 12.744L306.334 9.512C306.297 9.432 306.283 9.35733 306.294 9.288C306.305 9.21867 306.337 9.16267 306.39 9.12C306.443 9.07733 306.518 9.056 306.614 9.056C306.699 9.056 306.766 9.07467 306.814 9.112C306.862 9.14933 306.905 9.216 306.942 9.312L308.254 12.52H308.038L309.374 9.312C309.411 9.216 309.454 9.14933 309.502 9.112C309.55 9.07467 309.619 9.056 309.71 9.056C309.795 9.056 309.859 9.07733 309.902 9.12C309.95 9.16267 309.977 9.21867 309.982 9.288C309.993 9.352 309.982 9.424 309.95 9.504L308.55 12.744C308.513 12.8507 308.457 12.9307 308.382 12.984C308.313 13.032 308.23 13.056 308.134 13.056ZM312.501 13.072C312.09 13.072 311.735 12.992 311.437 12.832C311.143 12.6667 310.914 12.4347 310.749 12.136C310.589 11.8373 310.509 11.48 310.509 11.064C310.509 10.6587 310.589 10.3067 310.749 10.008C310.909 9.704 311.127 9.46667 311.405 9.296C311.687 9.12533 312.013 9.04 312.381 9.04C312.642 9.04 312.877 9.08533 313.085 9.176C313.293 9.26133 313.469 9.38667 313.613 9.552C313.762 9.71733 313.874 9.91733 313.949 10.152C314.029 10.3867 314.069 10.6507 314.069 10.944C314.069 11.0293 314.045 11.0933 313.997 11.136C313.949 11.1733 313.879 11.192 313.789 11.192H311.005V10.768H313.637L313.509 10.872C313.509 10.584 313.466 10.3413 313.381 10.144C313.295 9.94133 313.17 9.78667 313.005 9.68C312.845 9.57333 312.642 9.52 312.397 9.52C312.125 9.52 311.893 9.584 311.701 9.712C311.514 9.83467 311.373 10.008 311.277 10.232C311.181 10.4507 311.133 10.7067 311.133 11V11.048C311.133 11.5387 311.25 11.912 311.485 12.168C311.725 12.424 312.063 12.552 312.501 12.552C312.682 12.552 312.861 12.528 313.037 12.48C313.218 12.432 313.394 12.352 313.565 12.24C313.639 12.192 313.706 12.1707 313.765 12.176C313.829 12.176 313.879 12.1947 313.917 12.232C313.954 12.264 313.978 12.3067 313.989 12.36C314.005 12.408 313.999 12.4613 313.973 12.52C313.951 12.5787 313.906 12.6293 313.837 12.672C313.661 12.8 313.453 12.8987 313.213 12.968C312.973 13.0373 312.735 13.072 312.501 13.072ZM316.486 13.072C316.14 13.072 315.836 12.9893 315.574 12.824C315.318 12.6587 315.118 12.4267 314.974 12.128C314.836 11.824 314.766 11.4667 314.766 11.056C314.766 10.64 314.836 10.2827 314.974 9.984C315.118 9.68 315.318 9.448 315.574 9.288C315.836 9.12267 316.14 9.04 316.486 9.04C316.838 9.04 317.14 9.128 317.39 9.304C317.641 9.48 317.809 9.71733 317.894 10.016H317.806V7.632C317.806 7.52533 317.833 7.44533 317.886 7.392C317.945 7.33333 318.028 7.304 318.134 7.304C318.236 7.304 318.313 7.33333 318.366 7.392C318.425 7.44533 318.454 7.52533 318.454 7.632V12.72C318.454 12.8267 318.428 12.9093 318.374 12.968C318.321 13.0267 318.241 13.056 318.134 13.056C318.033 13.056 317.953 13.0267 317.894 12.968C317.841 12.9093 317.814 12.8267 317.814 12.72V11.96L317.902 12.072C317.817 12.376 317.646 12.6187 317.39 12.8C317.14 12.9813 316.838 13.072 316.486 13.072ZM316.622 12.552C316.862 12.552 317.073 12.4933 317.254 12.376C317.436 12.2587 317.574 12.088 317.67 11.864C317.772 11.64 317.822 11.3707 317.822 11.056C317.822 10.5707 317.713 10.2 317.494 9.944C317.281 9.688 316.99 9.56 316.622 9.56C316.377 9.56 316.164 9.61867 315.982 9.736C315.806 9.848 315.668 10.016 315.566 10.24C315.47 10.4587 315.422 10.7307 315.422 11.056C315.422 11.536 315.532 11.9067 315.75 12.168C315.969 12.424 316.26 12.552 316.622 12.552Z" fill="#3C3C43" fill-opacity="0.6"/>
<path d="M266.658 29V26.036H265.962V25.148H266.658V24.284H265.962V23.396H266.658V20.432H268.542L269.478 23.396H270.57V20.432H271.902V23.396H272.586V24.284H271.902V25.148H272.586V26.036H271.902V29H270.006L269.046 26.036H267.99V29H266.658ZM267.99 25.148H268.782L268.518 24.284H267.966L267.99 25.148ZM270.606 27.128H270.666L270.618 26.036H270.294L270.606 27.128ZM267.942 23.396H268.278L267.93 22.244H267.882L267.942 23.396ZM270.042 25.148H270.594L270.57 24.284H269.766L270.042 25.148ZM273.321 29V27.884C273.833 27.46 274.329 27.04 274.809 26.624C275.297 26.208 275.729 25.796 276.105 25.388C276.489 24.98 276.793 24.584 277.017 24.2C277.249 23.808 277.365 23.428 277.365 23.06C277.365 22.716 277.269 22.412 277.077 22.148C276.893 21.884 276.585 21.752 276.153 21.752C275.713 21.752 275.381 21.896 275.157 22.184C274.933 22.472 274.821 22.82 274.821 23.228H273.333C273.349 22.612 273.485 22.1 273.741 21.692C273.997 21.276 274.337 20.968 274.761 20.768C275.185 20.56 275.661 20.456 276.189 20.456C277.045 20.456 277.709 20.692 278.181 21.164C278.661 21.628 278.901 22.232 278.901 22.976C278.901 23.44 278.793 23.892 278.577 24.332C278.369 24.772 278.093 25.196 277.749 25.604C277.405 26.012 277.033 26.396 276.633 26.756C276.233 27.108 275.845 27.436 275.469 27.74H279.105V29H273.321ZM279.732 30.392L280.416 27.404H281.904L280.74 30.392H279.732ZM282.954 29V27.884C283.466 27.46 283.962 27.04 284.442 26.624C284.93 26.208 285.362 25.796 285.738 25.388C286.122 24.98 286.426 24.584 286.65 24.2C286.882 23.808 286.998 23.428 286.998 23.06C286.998 22.716 286.902 22.412 286.71 22.148C286.526 21.884 286.218 21.752 285.786 21.752C285.346 21.752 285.014 21.896 284.79 22.184C284.566 22.472 284.454 22.82 284.454 23.228H282.966C282.982 22.612 283.118 22.1 283.374 21.692C283.63 21.276 283.97 20.968 284.394 20.768C284.818 20.56 285.294 20.456 285.822 20.456C286.678 20.456 287.342 20.692 287.814 21.164C288.294 21.628 288.534 22.232 288.534 22.976C288.534 23.44 288.426 23.892 288.21 24.332C288.002 24.772 287.726 25.196 287.382 25.604C287.038 26.012 286.666 26.396 286.266 26.756C285.866 27.108 285.478 27.436 285.102 27.74H288.738V29H282.954ZM293.025 29.144C292.409 29.144 291.877 29.036 291.429 28.82C290.989 28.604 290.641 28.308 290.385 27.932C290.137 27.548 289.993 27.116 289.953 26.636H291.453C291.525 26.98 291.701 27.268 291.981 27.5C292.261 27.724 292.609 27.836 293.025 27.836C293.473 27.836 293.837 27.672 294.117 27.344C294.405 27.016 294.549 26.608 294.549 26.12C294.549 25.616 294.405 25.216 294.117 24.92C293.837 24.624 293.481 24.476 293.049 24.476C292.689 24.476 292.377 24.564 292.113 24.74C291.849 24.916 291.661 25.136 291.549 25.4H290.073L290.793 20.6H295.449V21.944H291.945L291.561 23.888C291.737 23.696 291.977 23.54 292.281 23.42C292.585 23.292 292.925 23.228 293.301 23.228C293.901 23.228 294.401 23.364 294.801 23.636C295.201 23.9 295.505 24.252 295.713 24.692C295.921 25.124 296.025 25.596 296.025 26.108C296.025 26.692 295.897 27.212 295.641 27.668C295.393 28.124 295.041 28.484 294.585 28.748C294.137 29.012 293.617 29.144 293.025 29.144ZM300.899 29.144C300.123 29.144 299.459 28.964 298.907 28.604C298.355 28.236 297.927 27.728 297.623 27.08C297.327 26.424 297.179 25.664 297.179 24.8C297.179 23.944 297.327 23.188 297.623 22.532C297.927 21.876 298.355 21.368 298.907 21.008C299.459 20.64 300.123 20.456 300.899 20.456C301.675 20.456 302.339 20.64 302.891 21.008C303.443 21.368 303.867 21.876 304.163 22.532C304.467 23.188 304.619 23.944 304.619 24.8C304.619 25.664 304.467 26.424 304.163 27.08C303.867 27.728 303.443 28.236 302.891 28.604C302.339 28.964 301.675 29.144 300.899 29.144ZM300.899 27.764C301.531 27.764 302.047 27.5 302.447 26.972C302.847 26.444 303.047 25.72 303.047 24.8C303.047 23.88 302.847 23.156 302.447 22.628C302.047 22.1 301.531 21.836 300.899 21.836C300.259 21.836 299.739 22.1 299.339 22.628C298.947 23.156 298.751 23.88 298.751 24.8C298.751 25.72 298.947 26.444 299.339 26.972C299.739 27.5 300.259 27.764 300.899 27.764Z" fill="#394455"/>
<path d="M267.012 43.056C266.916 43.056 266.841 43.0293 266.788 42.976C266.735 42.9173 266.708 42.8373 266.708 42.736V37.624C266.708 37.5173 266.735 37.4373 266.788 37.384C266.841 37.3307 266.916 37.304 267.012 37.304C267.097 37.304 267.164 37.3227 267.212 37.36C267.265 37.392 267.313 37.448 267.356 37.528L269.548 41.656H269.308L271.492 37.528C271.535 37.448 271.58 37.392 271.628 37.36C271.676 37.3227 271.745 37.304 271.836 37.304C271.927 37.304 271.999 37.3307 272.052 37.384C272.105 37.4373 272.132 37.5173 272.132 37.624V42.736C272.132 42.8373 272.105 42.9173 272.052 42.976C272.004 43.0293 271.929 43.056 271.828 43.056C271.732 43.056 271.657 43.0293 271.604 42.976C271.551 42.9173 271.524 42.8373 271.524 42.736V38.24H271.716L269.716 41.992C269.679 42.0613 269.639 42.112 269.596 42.144C269.559 42.1707 269.503 42.184 269.428 42.184C269.353 42.184 269.295 42.168 269.252 42.136C269.209 42.104 269.172 42.056 269.14 41.992L267.116 38.232H267.308V42.736C267.308 42.8373 267.281 42.9173 267.228 42.976C267.18 43.0293 267.108 43.056 267.012 43.056ZM274.672 43.072C274.405 43.072 274.165 43.0213 273.952 42.92C273.744 42.8133 273.579 42.6693 273.456 42.488C273.333 42.3067 273.272 42.104 273.272 41.88C273.272 41.592 273.344 41.3653 273.488 41.2C273.637 41.0347 273.88 40.9173 274.216 40.848C274.557 40.7787 275.021 40.744 275.608 40.744H275.968V41.168H275.616C275.184 41.168 274.843 41.1893 274.592 41.232C274.347 41.2693 274.173 41.336 274.072 41.432C273.976 41.528 273.928 41.664 273.928 41.84C273.928 42.0587 274.003 42.2373 274.152 42.376C274.307 42.5147 274.515 42.584 274.776 42.584C274.989 42.584 275.176 42.5333 275.336 42.432C275.501 42.3307 275.629 42.192 275.72 42.016C275.816 41.84 275.864 41.6373 275.864 41.408V40.496C275.864 40.1653 275.797 39.928 275.664 39.784C275.531 39.6347 275.312 39.56 275.008 39.56C274.821 39.56 274.635 39.584 274.448 39.632C274.261 39.68 274.064 39.7573 273.856 39.864C273.781 39.9013 273.717 39.9147 273.664 39.904C273.611 39.888 273.568 39.8587 273.536 39.816C273.504 39.7733 273.485 39.7253 273.48 39.672C273.475 39.6133 273.485 39.5573 273.512 39.504C273.544 39.4507 273.592 39.408 273.656 39.376C273.891 39.2587 274.123 39.1733 274.352 39.12C274.581 39.0667 274.8 39.04 275.008 39.04C275.344 39.04 275.621 39.096 275.84 39.208C276.059 39.3147 276.221 39.48 276.328 39.704C276.435 39.9227 276.488 40.2053 276.488 40.552V42.72C276.488 42.8267 276.461 42.9093 276.408 42.968C276.36 43.0267 276.288 43.056 276.192 43.056C276.091 43.056 276.013 43.0267 275.96 42.968C275.907 42.9093 275.88 42.8267 275.88 42.72V42.096H275.952C275.909 42.2987 275.827 42.472 275.704 42.616C275.587 42.76 275.44 42.872 275.264 42.952C275.088 43.032 274.891 43.072 274.672 43.072ZM278.018 43.056C277.911 43.056 277.829 43.0267 277.77 42.968C277.717 42.9093 277.69 42.8267 277.69 42.72V39.384C277.69 39.2773 277.717 39.1973 277.77 39.144C277.823 39.0853 277.901 39.056 278.002 39.056C278.103 39.056 278.181 39.0853 278.234 39.144C278.293 39.1973 278.322 39.2773 278.322 39.384V40.032H278.242C278.327 39.7173 278.49 39.4747 278.73 39.304C278.97 39.1333 279.266 39.0427 279.618 39.032C279.698 39.0267 279.762 39.0453 279.81 39.088C279.858 39.1253 279.885 39.192 279.89 39.288C279.895 39.3787 279.874 39.4507 279.826 39.504C279.778 39.5573 279.703 39.5893 279.602 39.6L279.474 39.616C279.111 39.648 278.831 39.7653 278.634 39.968C278.442 40.1653 278.346 40.4373 278.346 40.784V42.72C278.346 42.8267 278.317 42.9093 278.258 42.968C278.205 43.0267 278.125 43.056 278.018 43.056ZM283.044 43C282.926 43 282.838 42.9733 282.78 42.92C282.726 42.8613 282.7 42.784 282.7 42.688C282.7 42.6293 282.713 42.5733 282.74 42.52C282.772 42.4613 282.814 42.4027 282.868 42.344L284.66 40.424C284.932 40.1307 285.126 39.8613 285.244 39.616C285.366 39.3653 285.428 39.112 285.428 38.856C285.428 38.536 285.329 38.2933 285.132 38.128C284.94 37.9573 284.657 37.872 284.284 37.872C284.044 37.872 283.817 37.9093 283.604 37.984C283.39 38.0587 283.185 38.1733 282.988 38.328C282.918 38.3813 282.854 38.4053 282.796 38.4C282.742 38.3947 282.694 38.3733 282.652 38.336C282.609 38.2987 282.58 38.2507 282.564 38.192C282.548 38.1333 282.548 38.0747 282.564 38.016C282.585 37.9573 282.628 37.904 282.692 37.856C282.9 37.6853 283.15 37.5493 283.444 37.448C283.737 37.3413 284.036 37.288 284.34 37.288C284.718 37.288 285.038 37.3467 285.3 37.464C285.561 37.5813 285.758 37.7547 285.892 37.984C286.025 38.208 286.092 38.4827 286.092 38.808C286.092 39.032 286.054 39.2533 285.98 39.472C285.91 39.6853 285.801 39.904 285.652 40.128C285.508 40.352 285.318 40.584 285.084 40.824L283.38 42.624V42.44H286.076C286.177 42.44 286.252 42.464 286.3 42.512C286.353 42.5547 286.38 42.6213 286.38 42.712C286.38 42.808 286.353 42.88 286.3 42.928C286.252 42.976 286.177 43 286.076 43H283.044ZM289.329 43.072C289.025 43.072 288.721 43.0267 288.417 42.936C288.118 42.8453 287.846 42.704 287.601 42.512C287.537 42.4693 287.494 42.4187 287.473 42.36C287.451 42.3013 287.449 42.2427 287.465 42.184C287.481 42.1253 287.51 42.0773 287.553 42.04C287.595 41.9973 287.646 41.9733 287.705 41.968C287.769 41.9627 287.835 41.984 287.905 42.032C288.123 42.1867 288.35 42.3013 288.585 42.376C288.819 42.4507 289.065 42.488 289.321 42.488C289.582 42.488 289.806 42.44 289.993 42.344C290.185 42.2427 290.329 42.104 290.425 41.928C290.526 41.7467 290.577 41.536 290.577 41.296C290.577 40.928 290.47 40.6267 290.257 40.392C290.043 40.1573 289.75 40.04 289.377 40.04C289.147 40.04 288.937 40.0827 288.745 40.168C288.553 40.2533 288.377 40.3893 288.217 40.576C288.179 40.6187 288.134 40.656 288.081 40.688C288.033 40.7147 287.977 40.728 287.913 40.728C287.822 40.728 287.75 40.704 287.697 40.656C287.649 40.6027 287.625 40.5333 287.625 40.448V37.664C287.625 37.5627 287.651 37.488 287.705 37.44C287.758 37.3867 287.833 37.36 287.929 37.36H290.649C290.75 37.36 290.825 37.384 290.873 37.432C290.926 37.48 290.953 37.5493 290.953 37.64C290.953 37.7307 290.926 37.8 290.873 37.848C290.825 37.896 290.75 37.92 290.649 37.92H288.273V40.168H288.097C288.235 39.944 288.427 39.7733 288.673 39.656C288.918 39.5333 289.193 39.472 289.497 39.472C289.854 39.472 290.161 39.5467 290.417 39.696C290.678 39.8453 290.878 40.056 291.017 40.328C291.161 40.5947 291.233 40.9067 291.233 41.264C291.233 41.616 291.155 41.928 291.001 42.2C290.846 42.472 290.627 42.6853 290.345 42.84C290.062 42.9947 289.723 43.072 289.329 43.072ZM293.773 43.072C293.469 43.072 293.213 43.0187 293.005 42.912C292.803 42.8 292.651 42.64 292.549 42.432C292.448 42.2187 292.397 41.96 292.397 41.656V39.616H291.861C291.771 39.616 291.701 39.5947 291.653 39.552C291.605 39.504 291.581 39.44 291.581 39.36C291.581 39.28 291.605 39.2187 291.653 39.176C291.701 39.1333 291.771 39.112 291.861 39.112H292.397V38.192C292.397 38.0853 292.427 38.0053 292.485 37.952C292.544 37.8933 292.624 37.864 292.725 37.864C292.827 37.864 292.904 37.8933 292.957 37.952C293.016 38.0053 293.045 38.0853 293.045 38.192V39.112H294.053C294.144 39.112 294.213 39.1333 294.261 39.176C294.309 39.2187 294.333 39.28 294.333 39.36C294.333 39.44 294.309 39.504 294.261 39.552C294.213 39.5947 294.144 39.616 294.053 39.616H293.045V41.592C293.045 41.896 293.109 42.128 293.237 42.288C293.365 42.4427 293.573 42.52 293.861 42.52C293.963 42.52 294.048 42.5093 294.117 42.488C294.192 42.4667 294.253 42.456 294.301 42.456C294.349 42.4507 294.389 42.4667 294.421 42.504C294.453 42.5413 294.469 42.6053 294.469 42.696C294.469 42.76 294.456 42.8187 294.429 42.872C294.408 42.9253 294.368 42.9627 294.309 42.984C294.245 43.0053 294.16 43.024 294.053 43.04C293.952 43.0613 293.859 43.072 293.773 43.072ZM295.377 43.056C295.271 43.056 295.191 43.0267 295.137 42.968C295.084 42.9093 295.057 42.8267 295.057 42.72V37.632C295.057 37.5253 295.084 37.4453 295.137 37.392C295.191 37.3333 295.271 37.304 295.377 37.304C295.479 37.304 295.559 37.3333 295.617 37.392C295.676 37.4453 295.705 37.5253 295.705 37.632V39.976H295.601C295.713 39.6667 295.895 39.4347 296.145 39.28C296.401 39.12 296.695 39.04 297.025 39.04C297.335 39.04 297.591 39.096 297.793 39.208C298.001 39.32 298.156 39.4907 298.257 39.72C298.359 39.944 298.409 40.2293 298.409 40.576V42.72C298.409 42.8267 298.38 42.9093 298.321 42.968C298.268 43.0267 298.191 43.056 298.089 43.056C297.983 43.056 297.9 43.0267 297.841 42.968C297.788 42.9093 297.761 42.8267 297.761 42.72V40.616C297.761 40.2533 297.689 39.9893 297.545 39.824C297.407 39.6533 297.183 39.568 296.873 39.568C296.516 39.568 296.231 39.68 296.017 39.904C295.809 40.1227 295.705 40.416 295.705 40.784V42.72C295.705 42.944 295.596 43.056 295.377 43.056ZM299.988 43.76C299.935 43.8293 299.879 43.8693 299.82 43.88C299.761 43.8907 299.711 43.88 299.668 43.848C299.625 43.816 299.601 43.7707 299.596 43.712C299.596 43.6533 299.623 43.5893 299.676 43.52C299.761 43.408 299.82 43.2933 299.852 43.176C299.884 43.064 299.9 42.96 299.9 42.864L299.932 43.032C299.793 43.032 299.681 42.992 299.596 42.912C299.516 42.8267 299.476 42.72 299.476 42.592C299.476 42.464 299.513 42.36 299.588 42.28C299.668 42.1947 299.772 42.152 299.9 42.152C300.039 42.152 300.148 42.2 300.228 42.296C300.308 42.3867 300.348 42.52 300.348 42.696C300.348 42.808 300.337 42.9227 300.316 43.04C300.295 43.1627 300.257 43.2853 300.204 43.408C300.151 43.5307 300.079 43.648 299.988 43.76ZM301.848 43C301.731 43 301.643 42.9733 301.584 42.92C301.531 42.8613 301.504 42.784 301.504 42.688C301.504 42.6293 301.518 42.5733 301.544 42.52C301.576 42.4613 301.619 42.4027 301.672 42.344L303.464 40.424C303.736 40.1307 303.931 39.8613 304.048 39.616C304.171 39.3653 304.232 39.112 304.232 38.856C304.232 38.536 304.134 38.2933 303.936 38.128C303.744 37.9573 303.462 37.872 303.088 37.872C302.848 37.872 302.622 37.9093 302.408 37.984C302.195 38.0587 301.99 38.1733 301.792 38.328C301.723 38.3813 301.659 38.4053 301.6 38.4C301.547 38.3947 301.499 38.3733 301.456 38.336C301.414 38.2987 301.384 38.2507 301.368 38.192C301.352 38.1333 301.352 38.0747 301.368 38.016C301.39 37.9573 301.432 37.904 301.496 37.856C301.704 37.6853 301.955 37.5493 302.248 37.448C302.542 37.3413 302.84 37.288 303.144 37.288C303.523 37.288 303.843 37.3467 304.104 37.464C304.366 37.5813 304.563 37.7547 304.696 37.984C304.83 38.208 304.896 38.4827 304.896 38.808C304.896 39.032 304.859 39.2533 304.784 39.472C304.715 39.6853 304.606 39.904 304.456 40.128C304.312 40.352 304.123 40.584 303.888 40.824L302.184 42.624V42.44H304.88C304.982 42.44 305.056 42.464 305.104 42.512C305.158 42.5547 305.184 42.6213 305.184 42.712C305.184 42.808 305.158 42.88 305.104 42.928C305.056 42.976 304.982 43 304.88 43H301.848ZM308.013 43.072C307.368 43.072 306.877 42.824 306.541 42.328C306.205 41.832 306.037 41.1147 306.037 40.176C306.037 39.5467 306.112 39.0187 306.261 38.592C306.411 38.16 306.632 37.8347 306.925 37.616C307.224 37.3973 307.587 37.288 308.013 37.288C308.664 37.288 309.155 37.5333 309.485 38.024C309.821 38.5093 309.989 39.224 309.989 40.168C309.989 40.7973 309.915 41.328 309.765 41.76C309.616 42.192 309.395 42.52 309.101 42.744C308.808 42.9627 308.445 43.072 308.013 43.072ZM308.013 42.504C308.461 42.504 308.792 42.3147 309.005 41.936C309.224 41.552 309.333 40.9627 309.333 40.168C309.333 39.368 309.224 38.784 309.005 38.416C308.792 38.0427 308.461 37.856 308.013 37.856C307.571 37.856 307.24 38.0427 307.021 38.416C306.803 38.7893 306.693 39.3733 306.693 40.168C306.693 40.9627 306.803 41.552 307.021 41.936C307.24 42.3147 307.571 42.504 308.013 42.504ZM311.442 43C311.325 43 311.237 42.9733 311.178 42.92C311.125 42.8613 311.098 42.784 311.098 42.688C311.098 42.6293 311.111 42.5733 311.138 42.52C311.17 42.4613 311.213 42.4027 311.266 42.344L313.058 40.424C313.33 40.1307 313.525 39.8613 313.642 39.616C313.765 39.3653 313.826 39.112 313.826 38.856C313.826 38.536 313.727 38.2933 313.53 38.128C313.338 37.9573 313.055 37.872 312.682 37.872C312.442 37.872 312.215 37.9093 312.002 37.984C311.789 38.0587 311.583 38.1733 311.386 38.328C311.317 38.3813 311.253 38.4053 311.194 38.4C311.141 38.3947 311.093 38.3733 311.05 38.336C311.007 38.2987 310.978 38.2507 310.962 38.192C310.946 38.1333 310.946 38.0747 310.962 38.016C310.983 37.9573 311.026 37.904 311.09 37.856C311.298 37.6853 311.549 37.5493 311.842 37.448C312.135 37.3413 312.434 37.288 312.738 37.288C313.117 37.288 313.437 37.3467 313.698 37.464C313.959 37.5813 314.157 37.7547 314.29 37.984C314.423 38.208 314.49 38.4827 314.49 38.808C314.49 39.032 314.453 39.2533 314.378 39.472C314.309 39.6853 314.199 39.904 314.05 40.128C313.906 40.352 313.717 40.584 313.482 40.824L311.778 42.624V42.44H314.474C314.575 42.44 314.65 42.464 314.698 42.512C314.751 42.5547 314.778 42.6213 314.778 42.712C314.778 42.808 314.751 42.88 314.698 42.928C314.65 42.976 314.575 43 314.474 43H311.442ZM317.543 43.072C317.234 43.072 316.922 43.0267 316.607 42.936C316.298 42.8453 316.028 42.712 315.799 42.536C315.73 42.488 315.684 42.4347 315.663 42.376C315.642 42.312 315.636 42.2533 315.647 42.2C315.663 42.1413 315.692 42.0933 315.735 42.056C315.778 42.0133 315.828 41.9893 315.887 41.984C315.951 41.9787 316.02 42 316.095 42.048C316.33 42.2027 316.564 42.3147 316.799 42.384C317.034 42.4533 317.276 42.488 317.527 42.488C317.799 42.488 318.028 42.448 318.215 42.368C318.402 42.288 318.543 42.1707 318.639 42.016C318.735 41.856 318.783 41.6613 318.783 41.432C318.783 41.1013 318.674 40.8507 318.455 40.68C318.236 40.5093 317.919 40.424 317.503 40.424H316.935C316.834 40.424 316.756 40.4 316.703 40.352C316.65 40.2987 316.623 40.2267 316.623 40.136C316.623 40.0507 316.65 39.984 316.703 39.936C316.756 39.8827 316.834 39.856 316.935 39.856H317.447C317.692 39.856 317.9 39.8133 318.071 39.728C318.247 39.6427 318.383 39.5227 318.479 39.368C318.575 39.208 318.623 39.016 318.623 38.792C318.623 38.4933 318.527 38.2667 318.335 38.112C318.143 37.952 317.866 37.872 317.503 37.872C317.263 37.872 317.036 37.9067 316.823 37.976C316.61 38.0453 316.399 38.1627 316.191 38.328C316.127 38.376 316.063 38.4 315.999 38.4C315.94 38.3947 315.89 38.376 315.847 38.344C315.81 38.3067 315.78 38.2587 315.759 38.2C315.743 38.1413 315.746 38.0827 315.767 38.024C315.788 37.96 315.834 37.9013 315.903 37.848C316.116 37.6667 316.367 37.528 316.655 37.432C316.943 37.336 317.239 37.288 317.543 37.288C317.906 37.288 318.215 37.3467 318.471 37.464C318.732 37.576 318.932 37.7413 319.071 37.96C319.21 38.1733 319.279 38.432 319.279 38.736C319.279 38.9653 319.234 39.176 319.143 39.368C319.058 39.5547 318.935 39.7147 318.775 39.848C318.62 39.9813 318.431 40.0773 318.207 40.136V40.048C318.596 40.112 318.898 40.272 319.111 40.528C319.33 40.7787 319.439 41.096 319.439 41.48C319.439 41.8053 319.362 42.088 319.207 42.328C319.058 42.5627 318.842 42.7467 318.559 42.88C318.276 43.008 317.938 43.072 317.543 43.072Z" fill="#808A9A"/>
</g>
<g filter="url(#filter1_dd_2076_13158)">
<rect x="291.588" y="59" width="15.1386" height="15.2263" rx="7.56931" fill="#17BC08"/>
<rect x="293.588" y="61" width="11.1386" height="11.2263" rx="5.56931" stroke="white" stroke-width="4"/>
</g>
<defs>
<filter id="filter0_dd_2076_13158" x="255" y="0" width="87" height="63" filterUnits="userSpaceOnUse" color-interpolation-filters="sRGB">
<feFlood flood-opacity="0" result="BackgroundImageFix"/>
<feColorMatrix in="SourceAlpha" type="matrix" values="0 0 0 0 0 0 0 0 0 0 0 0 0 0 0 0 0 0 127 0" result="hardAlpha"/>
<feMorphology radius="2" operator="erode" in="SourceAlpha" result="effect1_dropShadow_2076_13158"/>
<feOffset dy="2"/>
<feGaussianBlur stdDeviation="3.5"/>
<feColorMatrix type="matrix" values="0 0 0 0 0.0627451 0 0 0 0 0.0941176 0 0 0 0 0.156863 0 0 0 0.02 0"/>
<feBlend mode="normal" in2="BackgroundImageFix" result="effect1_dropShadow_2076_13158"/>
<feColorMatrix in="SourceAlpha" type="matrix" values="0 0 0 0 0 0 0 0 0 0 0 0 0 0 0 0 0 0 127 0" result="hardAlpha"/>
<feMorphology radius="2" operator="erode" in="SourceAlpha" result="effect2_dropShadow_2076_13158"/>
<feOffset dy="4"/>
<feGaussianBlur stdDeviation="4"/>
<feColorMatrix type="matrix" values="0 0 0 0 0.0627451 0 0 0 0 0.0941176 0 0 0 0 0.156863 0 0 0 0.04 0"/>
<feBlend mode="normal" in2="effect1_dropShadow_2076_13158" result="effect2_dropShadow_2076_13158"/>
<feBlend mode="normal" in="SourceGraphic" in2="effect2_dropShadow_2076_13158" result="shape"/>
</filter>
<filter id="filter1_dd_2076_13158" x="286.255" y="56.3333" width="25.8053" height="25.893" filterUnits="userSpaceOnUse" color-interpolation-filters="sRGB">
<feFlood flood-opacity="0" result="BackgroundImageFix"/>
<feColorMatrix in="SourceAlpha" type="matrix" values="0 0 0 0 0 0 0 0 0 0 0 0 0 0 0 0 0 0 127 0" result="hardAlpha"/>
<feOffset dy="2.66667"/>
<feGaussianBlur stdDeviation="2.66667"/>
<feColorMatrix type="matrix" values="0 0 0 0 0.196487 0 0 0 0 0.196487 0 0 0 0 0.279476 0 0 0 0.06 0"/>
<feBlend mode="multiply" in2="BackgroundImageFix" result="effect1_dropShadow_2076_13158"/>
<feColorMatrix in="SourceAlpha" type="matrix" values="0 0 0 0 0 0 0 0 0 0 0 0 0 0 0 0 0 0 127 0" result="hardAlpha"/>
<feOffset dy="2.66667"/>
<feGaussianBlur stdDeviation="1.33333"/>
<feColorMatrix type="matrix" values="0 0 0 0 0.196487 0 0 0 0 0.196487 0 0 0 0 0.279476 0 0 0 0.06 0"/>
<feBlend mode="multiply" in2="effect1_dropShadow_2076_13158" result="effect2_dropShadow_2076_13158"/>
<feBlend mode="normal" in="SourceGraphic" in2="effect2_dropShadow_2076_13158" result="shape"/>
</filter>
<linearGradient id="paint0_linear_2076_13158" x1="199" y1="67" x2="199" y2="276.953" gradientUnits="userSpaceOnUse">
<stop stop-color="#7459D9" stop-opacity="0.1"/>
<stop offset="0.998978" stop-color="white" stop-opacity="0"/>
</linearGradient>
<clipPath id="clip0_2076_13158">
<rect width="55" height="42" fill="white" transform="translate(265.5 4)"/>
</clipPath>
</defs>
</svg>
