<svg width="25" height="31" viewBox="0 0 25 31" fill="none" xmlns="http://www.w3.org/2000/svg">
<path d="M19.9959 0.858398H5.00421C2.75838 0.858398 0.920898 2.6813 0.920898 4.94171V25.9271C0.920898 28.1875 2.75838 30.025 5.00421 30.025H19.9959C22.2563 30.025 24.0792 28.1875 24.0792 25.9271V4.94171C24.0792 2.6813 22.2563 0.858398 19.9959 0.858398ZM6.50634 21.9022H18.4938C19.1063 21.9022 19.5875 22.398 19.5875 22.9959C19.5875 23.5938 19.1063 24.0897 18.4938 24.0897H6.50634C5.90842 24.0897 5.41259 23.5938 5.41259 22.9959C5.41259 22.398 5.90842 21.9022 6.50634 21.9022ZM5.41259 15.5001C5.41259 14.9021 5.90842 14.4063 6.50634 14.4063H18.4938C19.1063 14.4063 19.5875 14.9021 19.5875 15.5001C19.5875 16.1126 19.1063 16.5938 18.4938 16.5938H6.50634C5.90842 16.5938 5.41259 16.1126 5.41259 15.5001ZM18.4938 9.09797H6.50634C5.90842 9.09797 5.41259 8.61672 5.41259 8.00422C5.41259 7.40631 5.90842 6.91047 6.50634 6.91047H18.4938C19.1063 6.91047 19.5875 7.40631 19.5875 8.00422C19.5875 8.61672 19.1063 9.09797 18.4938 9.09797Z" fill="#0066F4"/>
</svg>
