<svg width="35" height="35" viewBox="0 0 35 35" fill="none" xmlns="http://www.w3.org/2000/svg">
<path d="M12.8917 16.9021C15.925 16.9021 18.3896 14.4375 18.3896 11.4042C18.3896 8.37083 15.925 5.90625 12.8917 5.90625C9.85837 5.90625 7.3938 8.37083 7.3938 11.4042C7.3938 14.4375 9.85837 16.9021 12.8917 16.9021Z" fill="#0066F4"/>
<path d="M23.5668 25.4918V28.0001C23.5668 28.5981 23.0855 29.0939 22.473 29.0939H4.0105C3.41258 29.0939 2.91675 28.5981 2.91675 28.0001V25.4918C2.91675 21.9772 5.77507 19.1189 9.28966 19.1189H17.1938C17.9084 19.1189 18.5938 19.2356 19.2355 19.4689C19.2355 19.4689 19.2355 19.4543 19.2501 19.4689C21.7584 20.3147 23.5668 22.6918 23.5668 25.4918Z" fill="#0066F4"/>
<path d="M23.5668 25.4918V28.0001C23.5668 28.5981 23.0855 29.0939 22.473 29.0939H4.0105C3.41258 29.0939 2.91675 28.5981 2.91675 28.0001V25.4918C2.91675 21.9772 5.77507 19.1189 9.28966 19.1189H17.1938C17.9084 19.1189 18.5938 19.2356 19.2355 19.4689C19.2355 19.4689 19.2355 19.4543 19.2501 19.4689C21.7584 20.3147 23.5668 22.6918 23.5668 25.4918Z" fill="#0066F4"/>
<path d="M32.0834 24.2374V26.2937C32.0834 26.7749 31.6896 27.1687 31.2084 27.1687H25.7542V25.4916C25.7542 24.0187 25.375 22.6187 24.7188 21.4083C24.4417 20.9124 24.1354 20.4458 23.7854 20.0229C23.5375 19.7458 23.2896 19.4687 23.0271 19.2354H27.0813C27.2417 19.2354 27.3875 19.2353 27.5334 19.2645C27.7229 19.2791 27.9125 19.3083 28.1021 19.352C29.2104 19.5853 30.1729 20.1979 30.8875 21.0145C31.0042 21.1458 31.1209 21.2916 31.2229 21.452C31.2375 21.452 31.2375 21.452 31.2229 21.4666C31.5 21.8749 31.7188 22.3124 31.8646 22.7937C31.9084 22.9541 31.9521 23.1145 31.9813 23.2749C32.0542 23.5812 32.0834 23.902 32.0834 24.2374Z" fill="#0066F4"/>
<path d="M23.8878 16.6979C26.296 16.6979 28.2482 14.7457 28.2482 12.3375C28.2482 9.92927 26.296 7.97705 23.8878 7.97705C21.4796 7.97705 19.5273 9.92927 19.5273 12.3375C19.5273 14.7457 21.4796 16.6979 23.8878 16.6979Z" fill="#0066F4"/>
</svg>
