<svg width="19" height="31" viewBox="0 0 19 31" fill="none" xmlns="http://www.w3.org/2000/svg">
<path d="M0.910156 9.50633C0.910156 12.5397 2.51436 15.3251 5.09561 16.8709L4.2352 17.7167C3.7977 18.1542 3.7977 18.8397 4.2352 19.2626L4.94977 19.9917L4.2352 20.7209C3.7977 21.1438 3.7977 21.8438 4.2352 22.2667L4.94977 22.9959L4.2352 23.7105C3.7977 24.148 3.7977 24.8334 4.2352 25.2709L5.40185 26.4376V27.4876C5.40185 27.8959 5.63516 28.2751 6.01432 28.4647L9.01853 29.9667C9.16436 30.0397 9.32476 30.0834 9.49976 30.0834C9.67476 30.0834 9.83516 30.0397 9.98099 29.9667L12.9852 28.4647C13.3644 28.2751 13.5977 27.8959 13.5977 27.4876V17.0459C16.3393 15.5584 18.0894 12.6709 18.0894 9.50633C18.0894 4.76675 14.2393 0.916748 9.49976 0.916748C4.76018 0.916748 0.910156 4.76675 0.910156 9.50633ZM9.49976 5.40842C10.5206 5.40842 11.3373 6.23966 11.3373 7.2605C11.3373 8.26675 10.5206 9.098 9.49976 9.098C8.47893 9.098 7.66225 8.26675 7.66225 7.2605C7.66225 6.23966 8.47893 5.40842 9.49976 5.40842Z" fill="#0066F4"/>
</svg>
