<svg width="31" height="31" viewBox="0 0 31 31" fill="none" xmlns="http://www.w3.org/2000/svg">
<path d="M15.5001 0.916748C7.46466 0.916748 0.916748 7.46466 0.916748 15.5001C0.916748 23.5355 7.46466 30.0834 15.5001 30.0834C23.5355 30.0834 30.0834 23.5355 30.0834 15.5001C30.0834 7.46466 23.5355 0.916748 15.5001 0.916748ZM17.5126 17.2938L18.373 21.3334C18.4751 21.7855 18.1251 22.2084 17.6584 22.2084H13.3417C12.8751 22.2084 12.5251 21.7855 12.6272 21.3334L13.4876 17.2938C11.8105 16.448 10.7167 14.5959 11.0667 12.5251C11.373 10.7022 12.8605 9.18552 14.6834 8.86468C17.5272 8.35427 19.9917 10.5272 19.9917 13.2834C19.9917 15.048 18.9855 16.5501 17.5126 17.2938Z" fill="#0066F4"/>
</svg>
