<svg width="24" height="24" viewBox="0 0 24 24" fill="none" xmlns="http://www.w3.org/2000/svg">
<path d="M21.9408 11.1699V18.9999C21.9408 19.5199 21.8012 20.0199 21.5719 20.4499L20.3757 19.4199L15.1721 14.9499L20.2361 10.4099L21.3626 9.3999C21.7314 9.9099 21.9408 10.5199 21.9408 11.1699Z" fill="#0066F4"/>
<path d="M20.5453 21.53C20.0867 21.83 19.5285 22 18.9404 22H4.99435C4.45605 22 3.94765 21.85 3.50903 21.6L4.81492 20.48L9.96866 16.03L10.1282 16.17C10.6465 16.63 11.3044 16.86 11.9624 16.86C12.6203 16.86 13.2882 16.63 13.8165 16.16L14.0458 15.96L19.2893 20.45L20.5453 21.53Z" fill="#0066F4"/>
<path d="M8.85205 15.0199L3.6086 19.5499L2.44227 20.5599C2.16315 20.0999 2.00366 19.5699 2.00366 18.9999V11.1699C2.00366 10.5299 2.20303 9.91991 2.57187 9.40991L3.69831 10.4199L8.85205 15.0199Z" fill="#0066F4"/>
<path d="M19.1398 2H4.795C4.38629 2 4.04736 2.34 4.04736 2.75V8.71L4.49595 9.11L5.53268 10.04L11.1151 15.04C11.6035 15.47 12.3412 15.47 12.8197 15.04L18.4021 10.04L19.4488 9.1L19.8874 8.71V2.75C19.8874 2.34 19.5485 2 19.1398 2ZM7.86532 5.08H8.89208C9.31076 5.08 9.63972 5.42 9.63972 5.83C9.63972 6.25 9.31076 6.58 8.89208 6.58H7.86532C7.45661 6.58 7.11768 6.25 7.11768 5.83C7.11768 5.42 7.45661 5.08 7.86532 5.08ZM16.0694 9.67H7.86532C7.45661 9.67 7.11768 9.33 7.11768 8.92C7.11768 8.5 7.45661 8.17 7.86532 8.17H16.0694C16.4782 8.17 16.8171 8.5 16.8171 8.92C16.8171 9.33 16.4782 9.67 16.0694 9.67Z" fill="#0066F4"/>
</svg>
