<svg width="22" height="22" viewBox="0 0 22 22" fill="none" xmlns="http://www.w3.org/2000/svg">
<path d="M13.75 10.9999C13.75 12.5187 12.5188 13.7499 11 13.7499C9.48121 13.7499 8.25 12.5187 8.25 10.9999C8.25 9.48114 9.48121 8.24992 11 8.24992C12.5188 8.24992 13.75 9.48114 13.75 10.9999Z" fill="#343439"/>
<path d="M20.0699 10.59C18.0915 6.63324 14.5779 4.58325 11 4.58325C7.42213 4.58325 3.90847 6.63324 1.9301 10.59C1.80107 10.848 1.80107 11.1518 1.9301 11.4099C3.90847 15.3666 7.42213 17.4166 11 17.4166C14.5779 17.4166 18.0915 15.3666 20.0699 11.4099C20.1989 11.1518 20.1989 10.848 20.0699 10.59ZM11 15.5833C8.27861 15.5833 5.49821 14.0975 3.78551 10.9999C5.49821 7.9023 8.27861 6.41659 11 6.41659C13.7214 6.41659 16.5018 7.9023 18.2145 10.9999C16.5018 14.0975 13.7214 15.5833 11 15.5833Z" fill="#343439"/>
</svg>
