<svg width="45" height="45" viewBox="0 0 45 45" fill="none" xmlns="http://www.w3.org/2000/svg">
<path fill-rule="evenodd" clip-rule="evenodd" d="M2.28516 12.3486V7.29492C2.28516 4.53252 4.53256 2.28516 7.29492 2.28516H12.3486C12.9796 2.28516 13.4912 1.77359 13.4912 1.14258C13.4912 0.511567 12.9796 0 12.3486 0H7.29492C3.27252 0 0 3.27248 0 7.29492V12.3486C0 12.9796 0.511567 13.4912 1.14258 13.4912C1.77359 13.4912 2.28516 12.9796 2.28516 12.3486ZM12.3486 42.7148C12.9796 42.7148 13.4912 43.2264 13.4912 43.8574C13.4912 44.4884 12.9796 45 12.3486 45H7.29492C3.27252 45 0 41.7275 0 37.7051V32.6514C0 32.0204 0.511567 31.5088 1.14258 31.5088C1.77359 31.5088 2.28516 32.0204 2.28516 32.6514V37.7051C2.28516 40.4674 4.53256 42.7148 7.29492 42.7148H12.3486ZM45 32.6514V37.7051C45 41.7275 41.7275 45 37.7051 45H32.6514C32.0204 45 31.5088 44.4884 31.5088 43.8574C31.5088 43.2264 32.0204 42.7148 32.6514 42.7148H37.7051C40.4674 42.7148 42.7148 40.4674 42.7148 37.7051V32.6514C42.7148 32.0204 43.2264 31.5088 43.8574 31.5088C44.4884 31.5088 45 32.0204 45 32.6514ZM45 7.29492V12.3486C45 12.9796 44.4884 13.4912 43.8574 13.4912C43.2264 13.4912 42.7148 12.9796 42.7148 12.3486V7.29492C42.7148 4.53252 40.4674 2.28516 37.7051 2.28516H32.6514C32.0204 2.28516 31.5088 1.77359 31.5088 1.14258C31.5088 0.511567 32.0204 0 32.6514 0H37.7051C41.7275 0 45 3.27248 45 7.29492ZM30.3851 33.2595C30.8664 32.8149 30.8962 32.0642 30.4516 31.5829C30.0069 31.1015 29.2562 31.0717 28.7749 31.5163C27.062 33.0985 24.8335 33.9699 22.5 33.9699C20.1665 33.9699 17.938 33.0985 16.2251 31.5163C15.7437 31.0717 14.9931 31.1015 14.5485 31.5829C14.1038 32.0642 14.1336 32.8149 14.6149 33.2595C16.7676 35.2479 19.5678 36.3429 22.5 36.3429C25.4322 36.3429 28.2324 35.2479 30.3851 33.2595ZM24.873 16.9629V25.4004C24.873 27.0724 23.5128 28.4326 21.8408 28.4326H20.874C20.2187 28.4326 19.6875 27.9014 19.6875 27.2461C19.6875 26.5908 20.2187 26.0596 20.874 26.0596H21.8408C22.2043 26.0596 22.5 25.7639 22.5 25.4004V16.9629C22.5 16.3076 23.0312 15.7764 23.6865 15.7764C24.3418 15.7764 24.873 16.3076 24.873 16.9629ZM33.0469 20.2808V16.897C33.0469 16.2781 32.5452 15.7764 31.9263 15.7764C31.3074 15.7764 30.8057 16.2781 30.8057 16.897V20.2808C30.8057 20.8996 31.3074 21.4014 31.9263 21.4014C32.5452 21.4014 33.0469 20.8996 33.0469 20.2808ZM12.2168 20.2808C12.2168 20.8996 12.7185 21.4014 13.3374 21.4014C13.9563 21.4014 14.458 20.8996 14.458 20.2808V16.897C14.458 16.2781 13.9563 15.7764 13.3374 15.7764C12.7185 15.7764 12.2168 16.2781 12.2168 16.897V20.2808Z" fill="black"/>
</svg>
