<svg width="24" height="24" viewBox="0 0 24 24" fill="none" xmlns="http://www.w3.org/2000/svg">
<path d="M12 22C11.59 22 11.25 21.66 11.25 21.25L11.25 9.54999C10.08 9.21999 9.21001 8.14999 9.21001 6.85999C9.21001 5.57999 10.08 4.50001 11.25 4.17001V2.75C11.25 2.34 11.59 2 12 2C12.41 2 12.75 2.34 12.75 2.75V4.17001C13.92 4.50001 14.79 5.57999 14.79 6.85999C14.79 8.14999 13.92 9.21999 12.75 9.54999L12.75 21.25C12.75 21.66 12.41 22 12 22Z" fill="#0066F4"/>
<path d="M4.85 22C4.43 22 4.1 21.66 4.1 21.25L4.1 19.83C2.92 19.5 2.06 18.42 2.06 17.14C2.06 15.86 2.92 14.78 4.1 14.45L4.1 2.75C4.1 2.34 4.43 2 4.85 2C5.26 2 5.6 2.34 5.6 2.75L5.6 14.45C6.77 14.78 7.64 15.86 7.64 17.14C7.64 18.42 6.77 19.5 5.6 19.83L5.6 21.25C5.6 21.66 5.26 22 4.85 22Z" fill="#0066F4"/>
<path d="M19.15 22C18.74 22 18.4 21.66 18.4 21.25V19.83C17.23 19.5 16.36 18.42 16.36 17.14C16.36 15.86 17.23 14.78 18.4 14.45V2.75C18.4 2.34 18.74 2 19.15 2C19.57 2 19.9 2.34 19.9 2.75V14.45C21.08 14.78 21.94 15.86 21.94 17.14C21.94 18.42 21.08 19.5 19.9 19.83V21.25C19.9 21.66 19.57 22 19.15 22Z" fill="#0066F4"/>
</svg>
