<svg width="24" height="25" viewBox="0 0 24 25" fill="none" xmlns="http://www.w3.org/2000/svg">
<path d="M8.68007 3.39014H5.32008C3.98008 3.39014 2.89008 4.48013 2.89008 5.82013V9.18011C2.89008 10.5201 3.98008 11.6101 5.32008 11.6101H8.68007C10.0201 11.6101 11.1101 10.5201 11.1101 9.18011V5.82013C11.1101 4.48013 10.0201 3.39014 8.68007 3.39014Z" fill="#CBCBCB"/>
<path d="M18.68 3.39014H15.32C13.98 3.39014 12.89 4.48013 12.89 5.82013V9.18011C12.89 10.5201 13.98 11.6101 15.32 11.6101H18.68C20.02 11.6101 21.11 10.5201 21.11 9.18011V5.82013C21.11 4.48013 20.02 3.39014 18.68 3.39014Z" fill="#CBCBCB"/>
<path d="M8.68001 13.3901H5.32002C3.98002 13.3901 2.89001 14.4801 2.89001 15.8201V19.1801C2.89001 20.5201 3.98002 21.6101 5.32002 21.6101H8.68001C10.02 21.6101 11.11 20.5201 11.11 19.1801V15.8201C11.11 14.4801 10.02 13.3901 8.68001 13.3901Z" fill="#CBCBCB"/>
<path d="M18.68 13.3901H15.32C13.98 13.3901 12.89 14.4801 12.89 15.8201V19.1801C12.89 20.5201 13.98 21.6101 15.32 21.6101H18.68C20.02 21.6101 21.11 20.5201 21.11 19.1801V15.8201C21.11 14.4801 20.02 13.3901 18.68 13.3901Z" fill="#CBCBCB"/>
</svg>
