<svg width="24" height="24" viewBox="0 0 24 24" fill="none" xmlns="http://www.w3.org/2000/svg">
<path d="M17.89 5.97V21.25H5.97C4.19 21.25 2.75 19.81 2.75 18.03V5.97C2.75 4.19 4.19 2.75 5.97 2.75H14.67C16.44 2.75 17.89 4.19 17.89 5.97Z" stroke="#0066F4" stroke-width="1.5" stroke-linecap="round" stroke-linejoin="round"/>
<path d="M21.25 19.1299V13.9999C21.25 12.2999 19.74 10.9199 17.89 10.9199" stroke="#0066F4" stroke-width="1.5" stroke-linecap="round" stroke-linejoin="round"/>
<path d="M14.21 21.25H19.18" stroke="#0066F4" stroke-width="1.5" stroke-linecap="round" stroke-linejoin="round"/>
<path d="M17.89 16.8899V19.7099C17.89 20.5599 18.64 21.2499 19.57 21.2499C20.5 21.2499 21.25 20.5599 21.25 19.7099V16.8899" stroke="#0066F4" stroke-width="1.5" stroke-linecap="round" stroke-linejoin="round"/>
<path d="M6.85001 6.87012H14.04" stroke="#0066F4" stroke-width="1.5" stroke-linecap="round" stroke-linejoin="round"/>
<path d="M6.85001 12H14.04" stroke="#0066F4" stroke-width="1.5" stroke-linecap="round" stroke-linejoin="round"/>
<path d="M6.88 17.1201H8.93001" stroke="#0066F4" stroke-width="1.5" stroke-linecap="round" stroke-linejoin="round"/>
</svg>
