<svg width="24" height="25" viewBox="0 0 24 25" fill="none" xmlns="http://www.w3.org/2000/svg">
<path d="M14.3901 10.0798L9.52003 14.9498" stroke="#CBCBCB" stroke-width="1.5" stroke-linecap="round" stroke-linejoin="round"/>
<path d="M8.92005 10.6799C9.61593 10.6799 10.18 10.1158 10.18 9.41991C10.18 8.72403 9.61593 8.15991 8.92005 8.15991C8.22417 8.15991 7.66004 8.72403 7.66004 9.41991C7.66004 10.1158 8.22417 10.6799 8.92005 10.6799Z" fill="#CBCBCB"/>
<path d="M15.0801 16.8398C15.7759 16.8398 16.3401 16.2757 16.3401 15.5798C16.3401 14.8839 15.7759 14.3198 15.0801 14.3198C14.3842 14.3198 13.8201 14.8839 13.8201 15.5798C13.8201 16.2757 14.3842 16.8398 15.0801 16.8398Z" fill="#CBCBCB"/>
<path d="M12 21.75C17.1086 21.75 21.25 17.6086 21.25 12.5C21.25 7.39137 17.1086 3.25 12 3.25C6.89137 3.25 2.75 7.39137 2.75 12.5C2.75 17.6086 6.89137 21.75 12 21.75Z" stroke="#CBCBCB" stroke-width="1.5" stroke-linecap="round" stroke-linejoin="round"/>
</svg>
