<svg width="36" height="36" viewBox="0 0 36 36" fill="none" xmlns="http://www.w3.org/2000/svg">
<path d="M21.585 14.3696L14.28 21.6746" stroke="#0066F4" stroke-width="1.5" stroke-linecap="round" stroke-linejoin="round"/>
<path d="M13.38 15.2697C14.4238 15.2697 15.27 14.4236 15.27 13.3797C15.27 12.3359 14.4238 11.4897 13.38 11.4897C12.3362 11.4897 11.49 12.3359 11.49 13.3797C11.49 14.4236 12.3362 15.2697 13.38 15.2697Z" fill="#0066F4"/>
<path d="M22.62 24.5097C23.6638 24.5097 24.51 23.6636 24.51 22.6197C24.51 21.5759 23.6638 20.7297 22.62 20.7297C21.5762 20.7297 20.73 21.5759 20.73 22.6197C20.73 23.6636 21.5762 24.5097 22.62 24.5097Z" fill="#0066F4"/>
<path d="M18 31.875C25.663 31.875 31.875 25.663 31.875 18C31.875 10.337 25.663 4.125 18 4.125C10.337 4.125 4.125 10.337 4.125 18C4.125 25.663 10.337 31.875 18 31.875Z" stroke="#0066F4" stroke-width="1.5" stroke-linecap="round" stroke-linejoin="round"/>
</svg>
