<svg width="31" height="31" viewBox="0 0 31 31" fill="none" xmlns="http://www.w3.org/2000/svg">
<path d="M24.9105 12.4682V8.8736C24.9105 3.9856 20.4772 0 15.04 0C9.60284 0 5.16948 3.9856 5.16948 8.8736V12.4682C2.22505 13.0246 0 15.3859 0 18.1984V24.1994C0 27.448 2.92771 30.08 6.54133 30.08H23.5554C27.1523 30.08 30.08 27.448 30.08 24.1994V18.1984C30.08 15.3859 27.855 13.0246 24.9105 12.4682ZM16.2947 22.0787V24.3046C16.2947 24.9213 15.7259 25.4326 15.04 25.4326C14.3541 25.4326 13.7853 24.9213 13.7853 24.3046V22.0787C12.7648 21.6426 12.0621 20.7251 12.0621 19.6573C12.0621 18.1834 13.4005 16.9802 15.04 16.9802C16.6795 16.9802 18.0179 18.1834 18.0179 19.6573C18.0179 20.7251 17.3152 21.6426 16.2947 22.0787ZM7.67893 12.3328V8.8736C7.67893 5.21888 10.9747 2.256 15.04 2.256C19.1053 2.256 22.4011 5.21888 22.4011 8.8736V12.3328H7.67893Z" fill="#0066F4"/>
</svg>
