<svg width="16" height="16" viewBox="0 0 16 16" fill="none" xmlns="http://www.w3.org/2000/svg">
<path d="M12.6667 7.33203H3.33333C2.59695 7.33203 2 7.92898 2 8.66536V13.332C2 14.0684 2.59695 14.6654 3.33333 14.6654H12.6667C13.403 14.6654 14 14.0684 14 13.332V8.66536C14 7.92898 13.403 7.33203 12.6667 7.33203Z" stroke="#5099FF" stroke-width="2" stroke-linecap="round" stroke-linejoin="round"/>
<path d="M4.66675 7.33203V4.66536C4.66675 3.78131 5.01794 2.93346 5.64306 2.30834C6.26818 1.68322 7.11603 1.33203 8.00008 1.33203C8.88414 1.33203 9.73198 1.68322 10.3571 2.30834C10.9822 2.93346 11.3334 3.78131 11.3334 4.66536V7.33203" stroke="#5099FF" stroke-width="2" stroke-linecap="round" stroke-linejoin="round"/>
</svg>
