<svg width="20" height="18" viewBox="0 0 20 18" fill="none" xmlns="http://www.w3.org/2000/svg">
<path fill-rule="evenodd" clip-rule="evenodd" d="M10 10.5C9.173 10.5 8.5 9.82701 8.5 9.00001C8.5 8.98693 8.50301 8.97412 8.50602 8.96131L8.50603 8.96129C8.50877 8.94961 8.51152 8.93792 8.512 8.92601L10.074 10.488C10.0621 10.4885 10.0504 10.4912 10.0387 10.494C10.0259 10.497 10.0131 10.5 10 10.5ZM2.707 0.293006C2.316 -0.0979941 1.684 -0.0979941 1.293 0.293006C0.902 0.684006 0.902 1.31601 1.293 1.70701L6.923 7.33701C6.647 7.84601 6.5 8.41101 6.5 9.00001C6.5 10.93 8.07 12.5 10 12.5C10.589 12.5 11.154 12.353 11.663 12.077L17.293 17.707C17.488 17.902 17.744 18 18 18C18.256 18 18.512 17.902 18.707 17.707C19.098 17.316 19.098 16.684 18.707 16.293L2.707 0.293006ZM10.2197 13.9976C5.9147 14.0976 3.1047 10.4146 2.1727 8.99561C2.6297 8.28161 3.3957 7.23561 4.4557 6.28461L3.0447 4.87261C1.5227 6.26161 0.5467 7.77961 0.1327 8.50261C-0.0442996 8.81061 -0.0442996 9.18961 0.1327 9.49761C0.7617 10.5946 4.1617 15.9996 10.0247 15.9996C10.1067 15.9996 10.1887 15.9986 10.2707 15.9966C11.4547 15.9666 12.5267 15.7106 13.4977 15.3266L11.9177 13.7466C11.3827 13.8886 10.8197 13.9826 10.2197 13.9976ZM9.7297 2.00341C15.7047 1.81641 19.2297 7.39041 19.8677 8.50241C20.0437 8.81041 20.0437 9.18941 19.8677 9.49741C19.4527 10.2204 18.4767 11.7384 16.9547 13.1274L15.5437 11.7154C16.6037 10.7644 17.3707 9.71841 17.8267 9.00441C16.8947 7.58541 14.0717 3.89441 9.7807 4.00241C9.1807 4.01741 8.6177 4.11141 8.0817 4.25341L6.5017 2.67341C7.4737 2.28941 8.5447 2.03341 9.7297 2.00341Z" fill="#F9FCFF"/>
</svg>
