<svg width="21" height="20" viewBox="0 0 21 20" fill="none" xmlns="http://www.w3.org/2000/svg">
<path d="M20.01 10C20.01 4.49 15.52 0 10.01 0C4.49001 0 0.0100098 4.49 0.0100098 10C0.0100098 15.51 4.49001 20 10.01 20C11.51 20 12.96 19.67 14.32 19.01L19.1 19.72C19.33 19.75 19.57 19.67 19.74 19.5C19.9 19.34 19.98 19.1 19.95 18.86L19.21 13.89C19.74 12.64 20.01 11.34 20.01 10ZM5.89001 11.03C5.33001 11.03 4.87001 10.57 4.87001 10C4.87001 9.43 5.33001 8.97 5.89001 8.97C6.46001 8.97 6.92001 9.43 6.92001 10C6.92001 10.57 6.46001 11.03 5.89001 11.03ZM10 11.03C9.44001 11.03 8.98001 10.57 8.98001 10C8.98001 9.43 9.44001 8.97 10 8.97C10.57 8.97 11.03 9.43 11.03 10C11.03 10.57 10.57 11.03 10 11.03ZM14.12 11.03C13.55 11.03 13.09 10.57 13.09 10C13.09 9.43 13.55 8.97 14.12 8.97C14.68 8.97 15.14 9.43 15.14 10C15.14 10.57 14.68 11.03 14.12 11.03Z" fill="white"/>
</svg>
