<svg width="257" height="55" viewBox="0 0 257 55" fill="none" xmlns="http://www.w3.org/2000/svg">
<path d="M41.1015 24.5135C40.4067 25.2126 39.8746 26.0563 39.5432 26.9843C39.2117 27.9125 39.0891 28.9023 39.1838 29.8833L39.1508 29.8503C39.2484 31.0052 39.0925 32.1671 38.6945 33.2556C38.2965 34.3438 37.6658 35.3322 36.8465 36.1517C36.027 36.971 35.0387 37.6019 33.9502 37.9997C32.862 38.3977 31.6998 38.5535 30.5452 38.456L30.5782 38.489C29.1969 38.3605 27.8097 38.661 26.6053 39.3498C25.4012 40.0385 24.4387 41.0819 23.8493 42.3377C23.2599 43.5936 23.072 45.0005 23.3114 46.367C23.551 47.7334 24.2061 48.9927 25.1874 49.9732C26.1688 50.9537 27.4287 51.6076 28.7953 51.8458C30.162 52.0841 31.5687 51.8949 32.824 51.3044C34.0793 50.7137 35.1217 49.7504 35.8094 48.5456C36.4971 47.3407 36.7965 45.9532 36.6667 44.572L36.7015 44.605C36.604 43.4504 36.7596 42.2882 37.1576 41.1998C37.5557 40.1115 38.1865 39.1232 39.0058 38.3037C39.8253 37.4843 40.8137 36.8535 41.9019 36.4557C42.9904 36.0576 44.1524 35.9018 45.3072 35.9993L45.2723 35.9663C46.4006 36.0677 47.5363 35.8827 48.5742 35.4284C49.6118 34.9741 50.5182 34.2652 51.209 33.3674C51.8998 32.4696 52.353 31.4118 52.5261 30.2924C52.6994 29.1727 52.5872 28.0276 52.2 26.9628C51.8128 25.8982 51.163 24.9486 50.3111 24.2018C49.4591 23.4551 48.4325 22.9356 47.3262 22.6914C46.22 22.4472 45.0699 22.486 43.9828 22.8045C42.8956 23.1231 41.9065 23.7109 41.107 24.5135H41.1015Z" fill="#F9FCFF"/>
<path d="M27.577 34.166L27.5422 34.133C28.5236 34.2318 29.5147 34.1113 30.444 33.7802C31.3731 33.4491 32.2172 32.9158 32.915 32.2186C33.6125 31.5214 34.1468 30.6777 34.4784 29.7487C34.8103 28.8198 34.9314 27.8289 34.8334 26.8473L34.8682 26.8803C34.7707 25.7255 34.9265 24.5635 35.3243 23.4751C35.7223 22.3868 36.3532 21.3984 37.1725 20.5789C37.992 19.7596 38.9804 19.1288 40.0686 18.7309C41.1571 18.3328 42.319 18.1771 43.4739 18.2746L43.439 18.2416C44.8204 18.3714 46.2081 18.0718 47.413 17.3838C48.618 16.6958 49.5812 15.6529 50.1716 14.3973C50.7619 13.1417 50.9506 11.7346 50.7119 10.3678C50.4732 9.00105 49.8187 7.74122 48.8375 6.76013C47.8564 5.77906 46.5966 5.12449 45.2298 4.88575C43.8631 4.64699 42.456 4.83566 41.2003 5.42603C39.9447 6.01638 38.9019 6.97971 38.2138 8.18459C37.5258 9.38946 37.2262 10.7772 37.356 12.1586L37.323 12.1238C37.4207 13.2786 37.2653 14.4408 36.8674 15.5293C36.4696 16.6178 35.8388 17.6063 35.0194 18.4259C34.1999 19.2452 33.2114 19.876 32.123 20.2739C31.0343 20.6717 29.8722 20.8272 28.7174 20.7295L28.7504 20.7643C27.769 20.6655 26.7777 20.7859 25.8486 21.117C24.9194 21.4479 24.0754 21.9814 23.3776 22.6787C22.6798 23.3759 22.1458 24.2196 21.8139 25.1485C21.4823 26.0775 21.3611 27.0684 21.4592 28.05L21.4262 28.017C21.5234 29.1716 21.3673 30.3336 20.9693 31.4218C20.5711 32.5099 19.9405 33.4983 19.1211 34.3176C18.3017 35.1369 17.3135 35.7676 16.2253 36.1658C15.1371 36.5638 13.9752 36.7198 12.8205 36.6226L12.8535 36.6556C11.4721 36.5258 10.0844 36.8254 8.87948 37.5134C7.67461 38.2015 6.71128 39.2443 6.12093 40.4999C5.53056 41.7556 5.34188 43.1627 5.58063 44.5294C5.81939 45.8962 6.47396 47.156 7.45503 48.1371C8.43612 49.1182 9.69595 49.7728 11.0627 50.0114C12.4295 50.2501 13.8366 50.0615 15.0922 49.4712C16.3478 48.8808 17.3907 47.9176 18.0787 46.7127C18.7668 45.5077 19.0663 44.12 18.9365 42.7386L18.9714 42.7716C18.8738 41.6168 19.0297 40.4548 19.4277 39.3664C19.8255 38.2781 20.4564 37.2898 21.2757 36.4703C22.0952 35.651 23.0835 35.0201 24.1718 34.6223C25.2602 34.2242 26.4222 34.0684 27.577 34.166Z" fill="#F9FCFF"/>
<path d="M15.29 30.4864C15.9849 29.7876 16.5168 28.9439 16.848 28.0156C17.1792 27.0874 17.3014 26.0974 17.2058 25.1166L17.2406 25.1496C17.1431 23.9946 17.2989 22.8321 17.6971 21.7434C18.0953 20.6548 18.7264 19.6663 19.5462 18.8468C20.3661 18.0273 21.3548 17.3967 22.4436 16.9989C23.5325 16.6012 24.695 16.4459 25.85 16.5439L25.8151 16.5109C27.196 16.6403 28.5833 16.3406 29.7876 15.6526C30.9919 14.9647 31.9546 13.922 32.5448 12.6669C33.1347 11.4116 33.3232 10.005 33.0845 8.63876C32.8458 7.27251 32.1913 6.01315 31.2106 5.03243C30.23 4.05171 28.9705 3.39735 27.6043 3.15862C26.2381 2.91986 24.8314 3.10836 23.5763 3.69837C22.321 4.28837 21.2784 5.25118 20.5905 6.4555C19.9025 7.65982 19.6027 9.04703 19.7321 10.4279L19.6991 10.3949C19.7967 11.5497 19.6408 12.7118 19.2428 13.8001C18.8448 14.8884 18.2142 15.8768 17.3948 16.6962C16.5753 17.5157 15.587 18.1464 14.4986 18.5443C13.4103 18.9423 12.2482 19.0981 11.0935 19.0006L11.1265 19.0336C9.99819 18.9324 8.86261 19.1177 7.82498 19.5722C6.78735 20.0267 5.88122 20.7358 5.19059 21.6338C4.49995 22.5316 4.04716 23.5894 3.87413 24.7089C3.70111 25.8285 3.81348 26.9736 4.20081 28.038C4.58814 29.1026 5.23792 30.0521 6.08993 30.7986C6.94193 31.5454 7.9686 32.0647 9.0748 32.3089C10.181 32.553 11.3309 32.5139 12.418 32.1955C13.5051 31.8768 14.4942 31.2891 15.2936 30.4864H15.29Z" fill="#F9FCFF"/>
<path d="M72.0812 12.2009H77.5262V38.6981H72.0812V12.2009Z" fill="#F9FCFF"/>
<path d="M80.6098 29.6248C80.6023 27.7207 81.16 25.8569 82.2124 24.27C83.2647 22.683 84.7644 21.4441 86.5214 20.7102C88.2785 19.9761 90.2138 19.7801 92.0823 20.147C93.9508 20.5138 95.6685 21.4268 97.0176 22.7707C98.3668 24.1143 99.2867 25.8283 99.6611 27.6954C100.035 29.5624 99.8472 31.4986 99.1203 33.2586C98.3934 35.0184 97.1604 36.5232 95.5777 37.5818C93.9948 38.6406 92.1336 39.2058 90.2293 39.2058C88.9654 39.2203 87.7113 38.9825 86.5401 38.5065C85.369 38.0306 84.3046 37.3261 83.409 36.4341C82.5132 35.542 81.8044 34.4804 81.3239 33.3112C80.8432 32.1421 80.6005 30.8889 80.6098 29.6248ZM94.4038 29.6248C94.3811 28.804 94.1169 28.0081 93.6445 27.3366C93.1718 26.6652 92.5118 26.1479 91.747 25.8496C90.9819 25.5511 90.1461 25.4847 89.3437 25.6589C88.5412 25.8331 87.8079 26.2397 87.2353 26.8284C86.663 27.4169 86.2765 28.1612 86.1249 28.9683C85.9731 29.7751 86.0624 30.6089 86.3819 31.3653C86.7015 32.1218 87.2368 32.7671 87.921 33.2209C88.6054 33.6746 89.4084 33.9166 90.2293 33.9166C90.7916 33.9316 91.351 33.8299 91.8722 33.618C92.3932 33.406 92.8648 33.0885 93.2569 32.6853C93.6491 32.282 93.9536 31.8019 94.1508 31.2751C94.3483 30.7484 94.4345 30.1865 94.4038 29.6248Z" fill="#F9FCFF"/>
<path d="M121.55 20.5499V37.7832C121.55 43.8809 116.794 46.4586 111.967 46.4586C110.268 46.5858 108.566 46.2424 107.048 45.4664C105.531 44.6901 104.257 43.5111 103.365 42.0586L108.011 39.3727C108.386 40.1299 108.983 40.7545 109.722 41.1632C110.462 41.5716 111.308 41.7447 112.149 41.6589C112.686 41.7333 113.233 41.686 113.749 41.5205C114.266 41.3549 114.738 41.0753 115.132 40.7026C115.526 40.3297 115.831 39.8732 116.024 39.3665C116.218 38.8599 116.295 38.3164 116.25 37.7759V36.1167C115.612 36.8968 114.801 37.5167 113.88 37.9264C112.96 38.3362 111.956 38.5244 110.95 38.4762C108.555 38.4007 106.284 37.3964 104.616 35.6756C102.949 33.955 102.017 31.6531 102.017 29.2573C102.017 26.8615 102.949 24.5596 104.616 22.839C106.284 21.1182 108.555 20.1139 110.95 20.0384C111.956 19.9902 112.96 20.1785 113.88 20.5882C114.801 20.998 115.612 21.6178 116.25 22.3979V20.5462L121.55 20.5499ZM116.252 29.2601C116.288 28.3826 116.061 27.5142 115.6 26.7667C115.139 26.0191 114.465 25.4267 113.664 25.0658C112.864 24.7046 111.973 24.5915 111.108 24.7407C110.242 24.8899 109.441 25.2947 108.808 25.9032C108.174 26.5115 107.737 27.2955 107.553 28.1542C107.369 29.0129 107.446 29.9072 107.775 30.7218C108.103 31.5363 108.668 32.2341 109.396 32.7251C110.124 33.216 110.983 33.4778 111.861 33.4767C112.433 33.5167 113.007 33.4364 113.546 33.241C114.085 33.0455 114.578 32.7392 114.991 32.3421C115.405 31.9448 115.731 31.4654 115.948 30.9344C116.165 30.4037 116.269 29.8333 116.252 29.2601Z" fill="#F9FCFF"/>
<path d="M124.634 29.6248C124.626 27.7207 125.184 25.8569 126.236 24.27C127.289 22.683 128.788 21.4441 130.545 20.7102C132.302 19.9761 134.238 19.7801 136.106 20.147C137.975 20.5138 139.692 21.4268 141.041 22.7707C142.391 24.1143 143.311 25.8283 143.685 27.6954C144.059 29.5624 143.871 31.4986 143.144 33.2586C142.417 35.0184 141.184 36.5232 139.602 37.5818C138.019 38.6406 136.157 39.2058 134.253 39.2058C132.989 39.2203 131.735 38.9825 130.564 38.5065C129.393 38.0306 128.328 37.3261 127.433 36.4341C126.537 35.542 125.828 34.4804 125.348 33.3112C124.867 32.1421 124.624 30.8889 124.634 29.6248ZM138.428 29.6248C138.405 28.804 138.141 28.0081 137.668 27.3366C137.196 26.6652 136.536 26.1479 135.771 25.8496C135.006 25.5511 134.17 25.4847 133.368 25.6589C132.565 25.8331 131.832 26.2397 131.259 26.8284C130.687 27.4169 130.3 28.1612 130.149 28.9683C129.997 29.7751 130.086 30.6089 130.406 31.3653C130.725 32.1218 131.261 32.7671 131.945 33.2209C132.629 33.6746 133.432 33.9166 134.253 33.9166C134.815 33.9316 135.375 33.8299 135.896 33.618C136.417 33.406 136.889 33.0885 137.281 32.6853C137.673 32.282 137.977 31.8019 138.175 31.2751C138.372 30.7484 138.458 30.1865 138.428 29.6248Z" fill="#F9FCFF"/>
<path d="M146.412 15.6861C146.412 15.0399 146.603 14.4083 146.962 13.871C147.321 13.3338 147.832 12.915 148.429 12.6678C149.026 12.4205 149.683 12.3558 150.316 12.4818C150.95 12.6079 151.532 12.9191 151.989 13.376C152.446 13.8328 152.757 14.415 152.883 15.0487C153.009 15.6824 152.944 16.3393 152.697 16.9363C152.45 17.5333 152.031 18.0435 151.494 18.4025C150.957 18.7615 150.325 18.9531 149.679 18.9531C148.815 18.9445 147.989 18.5976 147.378 17.9867C146.768 17.3759 146.42 16.5499 146.412 15.6861ZM146.962 20.5499H152.409V38.6999H146.954L146.962 20.5499Z" fill="#F9FCFF"/>
<path d="M175.919 29.6249C175.982 30.8245 175.808 32.0246 175.405 33.1563C175.003 34.288 174.38 35.329 173.574 36.2194C172.768 37.1097 171.793 37.832 170.707 38.3446C169.621 38.857 168.444 39.1498 167.244 39.2059C166.235 39.2609 165.226 39.0908 164.291 38.7078C163.356 38.3246 162.518 37.7383 161.838 36.9913V45.9581H156.393V20.5499H161.838V22.2549C162.518 21.5084 163.357 20.9225 164.292 20.5398C165.227 20.157 166.235 19.9871 167.244 20.0421C168.444 20.098 169.621 20.3906 170.708 20.9032C171.795 21.4158 172.769 22.1381 173.575 23.0288C174.382 23.9194 175.004 24.9607 175.406 26.0928C175.808 27.2247 175.983 28.4252 175.919 29.6249ZM170.474 29.6249C170.453 28.7755 170.182 27.9513 169.694 27.2552C169.207 26.5592 168.525 26.0224 167.734 25.7122C166.943 25.4018 166.078 25.3316 165.247 25.5106C164.417 25.6893 163.657 26.1091 163.064 26.7174C162.471 27.3259 162.07 28.0956 161.912 28.9306C161.754 29.7655 161.846 30.6283 162.176 31.4113C162.506 32.1943 163.06 32.8624 163.768 33.3323C164.476 33.802 165.307 34.0526 166.157 34.0524C166.74 34.0785 167.322 33.9807 167.866 33.7659C168.408 33.5512 168.9 33.2239 169.307 32.8059C169.715 32.3878 170.03 31.8884 170.231 31.3402C170.432 30.792 170.515 30.2074 170.474 29.6249Z" fill="#F9FCFF"/>
<path d="M192.722 33.2529C192.722 37.4274 189.094 39.2058 185.174 39.2058C183.59 39.3491 182 39.0144 180.609 38.2442C179.217 37.4742 178.089 36.3045 177.37 34.8864L182.087 32.2006C182.278 32.856 182.687 33.4264 183.248 33.816C183.808 34.2057 184.487 34.3914 185.167 34.3419C186.472 34.3419 187.127 33.9423 187.127 33.2181C187.127 31.2198 178.196 32.2739 178.196 25.9948C178.196 22.0366 181.537 20.0419 185.312 20.0419C186.731 19.997 188.135 20.3336 189.38 21.0165C190.624 21.6996 191.664 22.7039 192.388 23.9249L187.743 26.4293C187.539 25.9539 187.2 25.5489 186.767 25.2649C186.335 24.9809 185.829 24.8306 185.312 24.8324C184.367 24.8324 183.786 25.1991 183.786 25.8481C183.794 27.9179 192.722 26.5374 192.722 33.2529Z" fill="#F9FCFF"/>
<path d="M212.612 20.5498V38.6998H207.167V36.993C206.538 37.7461 205.74 38.3396 204.838 38.7246C203.936 39.1096 202.957 39.2751 201.978 39.2076C198.312 39.2076 195.195 36.5951 195.195 31.691V20.5498H200.64V30.8935C200.594 31.3258 200.644 31.7628 200.785 32.1741C200.924 32.5855 201.153 32.9613 201.454 33.2753C201.755 33.5894 202.12 33.8341 202.525 33.9927C202.928 34.1513 203.363 34.2199 203.797 34.1935C205.794 34.1935 207.172 33.033 207.172 30.4553V20.5553L212.612 20.5498Z" fill="#F9FCFF"/>
<path d="M243.833 27.555V38.698H238.388V28.0261C238.388 26.2111 237.517 25.0506 235.776 25.0506C233.961 25.0506 232.943 26.3211 232.943 28.4625V38.698H227.5V28.0261C227.5 26.2111 226.629 25.0506 224.886 25.0506C223.071 25.0506 222.055 26.3211 222.055 28.4625V38.698H216.61V20.548H222.055V22.2163C222.62 21.4762 223.36 20.8891 224.209 20.5091C225.06 20.1289 225.991 19.9677 226.919 20.0401C227.85 19.9945 228.778 20.1912 229.612 20.6108C230.444 21.0303 231.154 21.6588 231.673 22.4345C232.276 21.6229 233.075 20.9775 233.996 20.5588C234.916 20.14 235.928 19.9617 236.936 20.0401C241.104 20.042 243.833 23.0175 243.833 27.555Z" fill="#F9FCFF"/>
<path d="M248.439 20.438C250.67 20.438 252.479 18.6289 252.479 16.3974C252.479 14.1658 250.67 12.3567 248.439 12.3567C246.208 12.3567 244.398 14.1658 244.398 16.3974C244.398 18.6289 246.208 20.438 248.439 20.438Z" fill="#F9FCFF"/>
</svg>
