<svg width="24" height="25" viewBox="0 0 24 25" fill="none" xmlns="http://www.w3.org/2000/svg">
<path d="M11.8 12.96C13.1641 12.96 14.27 11.8542 14.27 10.49C14.27 9.12588 13.1641 8.02002 11.8 8.02002C10.4359 8.02002 9.33 9.12588 9.33 10.49C9.33 11.8542 10.4359 12.96 11.8 12.96Z" stroke="#CBCBCB" stroke-width="1.5" stroke-linecap="round" stroke-linejoin="round"/>
<path d="M6.82001 19.7899V18.3799C6.82001 16.7399 8.15 15.4199 9.78 15.4199H14.21C15.85 15.4199 17.17 16.7499 17.17 18.3799V19.7899" stroke="#CBCBCB" stroke-width="1.5" stroke-linecap="round" stroke-linejoin="round"/>
<path d="M12 21.75C17.1086 21.75 21.25 17.6086 21.25 12.5C21.25 7.39137 17.1086 3.25 12 3.25C6.89137 3.25 2.75 7.39137 2.75 12.5C2.75 17.6086 6.89137 21.75 12 21.75Z" stroke="#CBCBCB" stroke-width="1.5" stroke-linecap="round" stroke-linejoin="round"/>
</svg>
