<svg width="24" height="24" viewBox="0 0 24 24" fill="none" xmlns="http://www.w3.org/2000/svg">
<path d="M2.75 7.89999V5.83C2.75 4.12 4.13 2.75 5.83 2.75H18.16C19.87 2.75 21.24 4.13 21.24 5.83V7.89999" stroke="#0066F4" stroke-width="1.5" stroke-linecap="round" stroke-linejoin="round"/>
<path d="M21.25 16.0801V18.1701C21.25 19.8801 19.87 21.2501 18.17 21.2501H5.84001C4.13001 21.2501 2.76001 19.8701 2.76001 18.1701V16.1101" stroke="#0066F4" stroke-width="1.5" stroke-linecap="round" stroke-linejoin="round"/>
<path d="M15.08 16.1099H8.91C8.34 16.1099 7.88 15.6499 7.88 15.0799V8.90988C7.88 8.33988 8.34 7.87988 8.91 7.87988H15.08C15.65 7.87988 16.11 8.33988 16.11 8.90988V15.0799C16.11 15.6499 15.65 16.1099 15.08 16.1099Z" stroke="#0066F4" stroke-width="1.5" stroke-linecap="round" stroke-linejoin="round"/>
</svg>
