<svg width="25" height="25" viewBox="0 0 25 25" fill="none" xmlns="http://www.w3.org/2000/svg">
<path d="M13.5001 11.2801C13.5001 11.3701 13.1801 11.6801 12.3901 11.9201C11.8489 12.0873 11.2864 12.1749 10.7201 12.1801H10.4301C8.56005 12.1801 7.43005 11.5301 7.43005 11.2701C7.43005 11.0101 8.54005 10.3501 10.4301 10.3501H10.7701H11.1901C11.9309 10.3842 12.6505 10.608 13.2801 11.0001C13.4301 11.1701 13.5001 11.2601 13.5001 11.2801Z" fill="#FCF2F6"/>
<path d="M12.81 13.3601C13.0452 13.2881 13.2757 13.2012 13.5 13.1001V13.6701C13.5 13.7701 13.15 14.1201 12.23 14.3701C11.6477 14.5142 11.0497 14.5847 10.45 14.5801C8.75995 14.5801 7.66995 14.0801 7.44995 13.7201V13.1301C8.40061 13.5237 9.42107 13.721 10.45 13.7101H10.81C11.4889 13.6799 12.1611 13.5623 12.81 13.3601Z" fill="#FCF2F6"/>
<path d="M12.59 15.82C12.9012 15.7374 13.2055 15.6304 13.5 15.5V16.16C13.5 16.37 12.5 17.07 10.45 17.07C8.39995 17.07 7.44995 16.37 7.44995 16.16V15.5C8.39997 15.8958 9.42087 16.0932 10.45 16.08C11.1713 16.0818 11.89 15.9944 12.59 15.82Z" fill="#FCF2F6"/>
<path d="M17.61 8.82992C17.61 9.06992 16.5 9.74992 14.61 9.74992C14.41 9.74992 14.21 9.74992 14.01 9.74992C13.2805 9.31711 12.4644 9.05077 11.62 8.96992C11.5902 8.95793 11.5638 8.93894 11.5429 8.91458C11.522 8.89021 11.5073 8.86117 11.5 8.82992C11.55 8.56992 12.67 7.91992 14.55 7.91992C16.43 7.91992 17.56 8.56992 17.61 8.82992Z" fill="#FCF2F6"/>
<path d="M14.98 11.2299C15.8835 11.2052 16.7748 11.0154 17.61 10.6699V11.2299C17.61 11.4699 16.61 12.0399 14.98 12.1199V11.2299Z" fill="#FCF2F6"/>
<path d="M14.98 13.6201C15.8836 13.5965 16.7751 13.4066 17.61 13.0601V13.7201C17.61 13.9201 16.72 14.5301 14.98 14.6101V13.6201Z" fill="#FCF2F6"/>
<path d="M18.75 2.5H6.25C5.25544 2.5 4.30161 2.89509 3.59835 3.59835C2.89509 4.30161 2.5 5.25544 2.5 6.25L2.5 18.75C2.50264 19.7437 2.89858 20.696 3.60127 21.3987C4.30396 22.1014 5.25625 22.4974 6.25 22.5H18.75C19.7437 22.4974 20.696 22.1014 21.3987 21.3987C22.1014 20.696 22.4974 19.7437 22.5 18.75V6.25C22.5 5.25544 22.1049 4.30161 21.4017 3.59835C20.6984 2.89509 19.7446 2.5 18.75 2.5V2.5ZM19.11 13.72C19.11 15.21 17.11 16.02 14.98 16.11V16.16C14.98 17.74 12.69 18.57 10.43 18.57C8.17 18.57 5.89 17.74 5.89 16.16V11.28C5.89 9.79 7.89 8.97 10.03 8.88C10.03 5.72 19.12 5.71 19.12 8.88L19.11 13.72Z" fill="#FCF2F6"/>
</svg>
