<svg width="36" height="36" viewBox="0 0 36 36" fill="none" xmlns="http://www.w3.org/2000/svg">
<path d="M27.255 31.875H8.62501C6.13501 31.875 4.12501 29.865 4.12501 27.375V8.625C4.12501 6.135 6.13501 4.125 8.62501 4.125H27.255C29.805 4.125 31.875 6.195 31.875 8.745V27.24C31.875 29.805 29.805 31.875 27.255 31.875Z" stroke="#0066F4" stroke-width="1.5" stroke-linecap="round" stroke-linejoin="round"/>
<path d="M18 22.6199C20.5515 22.6199 22.62 20.5514 22.62 17.9999C22.62 15.4483 20.5515 13.3799 18 13.3799C15.4484 13.3799 13.38 15.4483 13.38 17.9999C13.38 20.5514 15.4484 22.6199 18 22.6199Z" stroke="#0066F4" stroke-width="1.5" stroke-linecap="round" stroke-linejoin="round"/>
<path d="M13.14 18H11.835" stroke="#0066F4" stroke-width="1.5" stroke-linecap="round" stroke-linejoin="round"/>
<path d="M24.165 18H22.755" stroke="#0066F4" stroke-width="1.5" stroke-linecap="round" stroke-linejoin="round"/>
<path d="M18 23.0698V24.1648" stroke="#0066F4" stroke-width="1.5" stroke-linecap="round" stroke-linejoin="round"/>
<path d="M18 11.8347V12.9297" stroke="#0066F4" stroke-width="1.5" stroke-linecap="round" stroke-linejoin="round"/>
<path d="M6.34503 13.38H4.90499C4.46999 13.38 4.12501 13.035 4.12501 12.6V9.78001C4.12501 9.34501 4.46999 9 4.90499 9H6.34503C6.78003 9 7.12501 9.34501 7.12501 9.78001V12.6C7.12501 13.02 6.78003 13.38 6.34503 13.38Z" fill="#0066F4"/>
<path d="M6.34503 27.0001H4.90499C4.46999 27.0001 4.12501 26.6551 4.12501 26.2201V23.4001C4.12501 22.9651 4.46999 22.6201 4.90499 22.6201H6.34503C6.78003 22.6201 7.12501 22.9651 7.12501 23.4001V26.2201C7.12501 26.6551 6.78003 27.0001 6.34503 27.0001Z" fill="#0066F4"/>
</svg>
