<svg width="39" height="40" viewBox="0 0 39 40" fill="none" xmlns="http://www.w3.org/2000/svg">
<path d="M31.326 0.833008H7.521C3.5535 0.833008 0.333496 4.05301 0.333496 8.02051V31.9788C0.333496 35.9272 3.5535 39.1663 7.521 39.1663H31.326C35.3702 39.1663 38.6668 35.8697 38.6668 31.8063V8.17384C38.6668 4.12968 35.3702 0.833008 31.326 0.833008ZM27.3776 21.4372H26.7069C26.1318 24.3313 23.8318 26.6122 20.9377 27.1872V27.8772C20.9377 28.663 20.286 29.3147 19.5002 29.3147C18.7143 29.3147 18.0627 28.663 18.0627 27.8772V27.1872C15.1685 26.6122 12.8685 24.3313 12.2935 21.4372H11.6227C10.8177 21.4372 10.1852 20.7855 10.1852 19.9997C10.1852 19.1947 10.8177 18.5622 11.6227 18.5622H12.2935C12.8685 15.6488 15.1685 13.368 18.0627 12.793V12.103C18.0627 11.3172 18.7143 10.6655 19.5002 10.6655C20.286 10.6655 20.9377 11.3172 20.9377 12.103V12.793C23.8318 13.368 26.1318 15.6488 26.7069 18.5622H27.3776C28.1826 18.5622 28.8151 19.1947 28.8151 19.9997C28.8151 20.7855 28.1826 21.4372 27.3776 21.4372ZM3.2085 8.49967H4.60768C5.16352 8.49967 5.60433 8.9405 5.60433 9.47716V13.0805C5.60433 13.6363 5.16352 14.0772 4.60768 14.0772H3.2085V8.49967ZM3.2085 25.903H4.60768C5.16352 25.903 5.60433 26.3439 5.60433 26.8997V30.503C5.60433 31.0397 5.16352 31.4997 4.60768 31.4997H3.2085V25.903Z" fill="#0066F4"/>
</svg>
