<svg width="72" height="75" viewBox="0 0 72 75" fill="none" xmlns="http://www.w3.org/2000/svg">
<path opacity="0.1" d="M52.3258 36.2127C52.2814 34.9263 52.1977 33.5545 52.0593 32.1348C51.8731 29.2989 51.5177 26.651 50.8737 24.9853C47.3271 24.2592 28.9023 25.6123 28.8886 25.6123L28.7741 25.0998L28.728 24.8965L28.646 24.5394L28.6238 24.4574C28.5042 23.9756 28.3692 23.499 28.2121 23.0258C28.2121 23.0258 14.2444 21.7787 9.61127 22.9882C9.61127 23.0292 9.61127 23.0685 9.61127 23.1095L9.62494 24.2524C9.63861 26.4647 9.58735 28.5404 9.70182 30.8194V30.8365C9.67965 30.8345 9.65735 30.8345 9.63519 30.8365C9.4554 30.8602 9.2857 30.9333 9.14488 31.0476C9.00406 31.1619 8.89763 31.3129 8.83738 31.4839C8.79141 31.6166 8.77451 31.7576 8.78784 31.8974L8.84934 32.6166C8.84934 32.6286 8.84934 32.6388 8.84934 32.6508C9.02017 34.4651 9.19101 36.2623 9.19101 36.2623C9.19101 36.2623 9.27985 36.2708 9.42506 36.2776L10.1921 36.3323C8.55891 36.4827 6.77537 38.6386 6.85395 40.4922C6.93254 42.3458 5.14558 45.836 5.59146 47.8382C5.93314 49.4031 7.69106 51.9195 8.54695 53.8312L8.48033 54.2105L4.65869 61.8845C4.91495 61.5086 7.22125 71.5368 17.9328 69.4133L25.5538 56.9968C26.4039 56.3558 27.1818 55.6243 27.8738 54.8152C28.1659 54.525 28.4088 54.1892 28.593 53.821C28.8651 53.3862 29.0729 52.9144 29.2098 52.4201C29.2439 52.2903 29.2798 52.1621 29.3174 52.0306C29.9392 50.4469 30.7695 48.2858 31.3777 46.7893C39.4071 46.5501 47.8379 46.0598 52.0712 45.0638H52.0798C52.4898 42.2792 52.4983 39.1546 52.3258 36.2127ZM11.0907 43.229C11.0244 42.7664 10.9845 42.3004 10.9711 41.8333C11.0651 42.3253 11.1676 42.8156 11.2752 43.3076C11.2137 43.2803 11.1522 43.2529 11.0907 43.229Z" fill="black"/>
<path d="M3.78564 61.3942C3.78564 61.3942 7.21606 71.5368 17.9327 69.4133C17.9327 69.4133 20.3108 58.2491 22.3027 56.6005C23.5874 55.5413 26.425 53.6416 27.0315 52.2663C27.638 50.8911 30.0741 44.36 30.5456 43.5741C31.0172 42.7883 25.4342 33.7458 25.4342 33.7458L13.6737 39.814L7.13064 51.431C7.13064 51.431 5.87499 58.9478 3.78564 61.3942Z" fill="#E3C1AF"/>
<path d="M7.01623 52.3364C7.01623 52.3364 6.17742 58.6079 3.40472 61.8845" stroke="#263238" stroke-width="0.134524" stroke-linecap="round" stroke-linejoin="round"/>
<path d="M17.9327 69.4132C17.9327 69.4132 20.2971 58.6112 22.3028 56.6004C22.3028 56.6004 26.8334 53.9661 27.65 50.8654C28.2155 48.718 29.2439 46.2425 29.7359 45.1184" stroke="#263238" stroke-width="0.134524" stroke-linecap="round" stroke-linejoin="round"/>
<path d="M18.886 45.4651C18.7152 45.3558 21.628 47.686 21.7407 50.8704" stroke="#263238" stroke-width="0.134524" stroke-linecap="round" stroke-linejoin="round"/>
<path d="M50.52 43.5126C41.0761 45.7334 10.6602 45.4413 10.6602 45.4413C10.4039 44.9015 10.0947 43.5416 9.79572 41.9665C9.19779 38.8043 8.63915 34.7742 8.63915 34.7742L7.63292 34.7042C7.63292 34.7042 7.46208 32.907 7.29124 31.0927C7.1204 29.2784 8.14543 29.2801 8.14543 29.2801L8.07197 23.0001L8.05318 21.4318C12.6863 20.2223 26.654 21.4694 26.654 21.4694L27.0896 22.983L27.3322 24.0559L49.3156 23.4357C51.3315 28.648 50.52 43.5126 50.52 43.5126Z" fill="#0066F4"/>
<path d="M46.8676 28.2783L32.449 28.9993C31.8555 29.0289 31.3984 29.5341 31.4281 30.1275L31.5746 33.0574C31.6043 33.6509 32.1094 34.1079 32.7029 34.0783L47.1216 33.3573C47.7151 33.3276 48.1721 32.8225 48.1424 32.229L47.9959 29.2992C47.9663 28.7057 47.4611 28.2486 46.8676 28.2783Z" fill="#263238"/>
<path d="M48.0634 35.2715L48.1095 35.7584L31.5075 36.4007L31.4938 35.9634L48.0634 35.2715Z" fill="#263238"/>
<path d="M48.1453 36.9646L48.1606 37.4019L31.5604 38.0152L31.545 37.5796L48.1453 36.9646Z" fill="#263238"/>
<path opacity="0.3" d="M49.3122 23.4358C49.3122 23.4358 51.762 35.0528 50.5201 43.5127C50.5201 43.5127 35.0285 45.3304 29.724 45.0365L29.507 42.2092L29.9512 42.1408C29.9512 42.1408 27.8123 26.0035 27.3271 24.056C27.3271 24.056 45.7759 22.7081 49.3122 23.4358Z" fill="black"/>
<path opacity="0.8" d="M28.9962 42.1682L29.179 44.3054C29.179 44.3054 13.5645 44.9887 12.1909 44.4916C10.8174 43.9945 12.2644 43.2018 15.8964 42.9165C19.5284 42.6312 28.9962 42.1682 28.9962 42.1682Z" fill="white"/>
<path d="M19.6736 33.1036C20.4614 33.1036 21.1001 32.5253 21.1001 31.812C21.1001 31.0987 20.4614 30.5205 19.6736 30.5205C18.8857 30.5205 18.2471 31.0987 18.2471 31.812C18.2471 32.5253 18.8857 33.1036 19.6736 33.1036Z" fill="#263238"/>
<path d="M8.63922 34.7726C8.96104 38.3865 9.63739 41.9599 10.6585 45.4414C17.2819 45.385 23.9036 45.3116 30.5252 45.0997C37.1469 44.8879 43.9513 44.4403 50.5132 43.5127C50.5132 43.5127 51.6886 33.1326 49.3054 23.4358C46.6711 22.8874 27.3938 24.0525 27.3938 24.0525" stroke="#263238" stroke-width="0.134524" stroke-linecap="round" stroke-linejoin="round"/>
<path d="M28.9962 42.1682L29.179 44.3054L14.3161 44.6471C13.7028 44.7 12.7478 44.7803 12.1841 44.4916C11.9278 44.36 11.7433 44.0389 11.8646 43.7758C11.9739 43.54 12.2609 43.4563 12.5172 43.4051C14.3349 43.0309 16.1902 42.8738 18.0404 42.7371C22.0015 42.4432 25.969 42.2445 29.9426 42.1409C29.8589 42.1409 28.8903 34.1474 28.7826 33.4094C28.3624 30.5222 27.9626 27.6231 27.4433 24.7513C27.2559 23.6395 26.9881 22.5427 26.6421 21.4695C20.5192 21.0322 14.1248 20.6273 8.03955 21.4319C8.09593 24.1431 7.99513 26.5571 8.13351 29.2802" stroke="#263238" stroke-width="0.134524" stroke-linecap="round" stroke-linejoin="round"/>
<path d="M10.4312 44.6366C10.3946 44.5261 10.3728 44.4112 10.3663 44.2949" stroke="#263238" stroke-width="0.134524" stroke-linecap="round" stroke-linejoin="round"/>
<path d="M10.4654 43.6475C10.6926 43.0786 11.3742 42.4363 13.2278 42.2313C16.6087 41.8554 23.9786 41.1789 28.3025 41.0149" stroke="#263238" stroke-width="0.134524" stroke-linecap="round" stroke-linejoin="round" stroke-dasharray="0.53 0.53"/>
<path d="M28.6373 41.003L28.979 40.9911L28.9329 40.6494" stroke="#263238" stroke-width="0.134524" stroke-linecap="round" stroke-linejoin="round"/>
<path d="M28.8373 39.995C28.0599 34.4035 27.1989 28.853 26.2132 23.2922" stroke="#263238" stroke-width="0.134524" stroke-linecap="round" stroke-linejoin="round" stroke-dasharray="0.52 0.52"/>
<path d="M26.1585 22.9659L26.097 22.6243L25.7554 22.6003" stroke="#263238" stroke-width="0.134524" stroke-linecap="round" stroke-linejoin="round"/>
<path d="M25.0652 22.556C22.2242 22.3663 14.1453 21.8931 8.75537 22.2621" stroke="#263238" stroke-width="0.134524" stroke-linecap="round" stroke-linejoin="round" stroke-dasharray="0.55 0.55"/>
<path d="M8.4068 22.2878L8.06512 22.3152" stroke="#263238" stroke-width="0.134524" stroke-linecap="round" stroke-linejoin="round"/>
<path d="M7.63293 34.7044L7.22463 30.348C7.21224 30.2172 7.22637 30.0852 7.26617 29.96C7.30598 29.8347 7.37064 29.7188 7.45628 29.6191C7.54193 29.5194 7.6468 29.438 7.76463 29.3798C7.88246 29.3216 8.01082 29.2878 8.14203 29.2803C10.6533 29.1351 17.1486 28.7934 19.6411 28.9933C20.837 29.089 22.137 29.4733 22.7162 30.618C23.1979 31.561 23.2697 32.9755 22.4616 33.7511C21.2316 34.9299 18.898 34.8393 17.3126 34.8957C14.3605 35.0085 7.63464 34.73 7.63293 34.7044Z" stroke="#263238" stroke-width="0.134524" stroke-linecap="round" stroke-linejoin="round"/>
<path d="M23.0767 32.0409C23.0767 31.9196 23.6986 34.5437 21.4264 35.4099C19.1543 36.276 8.63922 36.0027 8.63922 36.0027V34.7726C8.63922 34.7726 16.0775 34.9298 17.3161 34.8956C18.5546 34.8615 22.9434 35.2732 23.0767 32.0409Z" fill="#263238"/>
<path d="M20.8917 46.6987C20.8917 46.6987 22.7504 47.787 23.4457 49.8319" stroke="#263238" stroke-width="0.134524" stroke-linecap="round" stroke-linejoin="round"/>
<path d="M7.27588 29.9344C7.27588 29.9344 16.3918 29.5056 18.7117 29.5825C21.0317 29.6593 22.1678 30.1701 22.3984 31.624C22.629 33.0778 21.2231 33.9832 20.1024 34.1541C18.9817 34.3249 7.63122 34.3745 7.63122 34.3745" stroke="#263238" stroke-width="0.134524" stroke-linecap="round" stroke-linejoin="round" stroke-dasharray="0.54 0.54"/>
<path d="M13.5405 47.546C13.5405 47.546 12.1294 42.6446 9.53265 41.6794C9.53265 41.6794 9.02014 38.3344 10.1272 38.1499C11.2342 37.9654 14.3605 35.9051 13.5439 33.334C12.7273 30.7629 10.2758 34.6238 8.64259 34.7724C7.00938 34.9211 5.22584 37.0787 5.2993 38.934C5.37276 40.7893 3.59092 44.2795 4.03681 46.2801C4.4827 48.2806 7.23147 51.8494 7.45356 53.7064" fill="#E3C1AF"/>
<path d="M13.5405 47.546C13.5405 47.546 12.1294 42.6446 9.53265 41.6794C9.53265 41.6794 9.02014 38.3344 10.1272 38.1499C11.2342 37.9654 14.3605 35.9051 13.5439 33.334C12.7273 30.7629 10.2758 34.6238 8.64259 34.7724C7.00938 34.9211 5.22584 37.0787 5.2993 38.934C5.37276 40.7893 3.59092 44.2795 4.03681 46.2801C4.4827 48.2806 7.23147 51.8494 7.45356 53.7064" stroke="#263238" stroke-width="0.134524" stroke-linecap="round" stroke-linejoin="round"/>
<path d="M10.122 34.0192C10.122 34.0192 12.0781 34.3746 13.1407 33.1326C14.2033 31.8906 12.9801 31.812 12.9801 31.812L10.122 34.0192Z" fill="white" stroke="#263238" stroke-width="0.134524" stroke-linecap="round" stroke-linejoin="round"/>
<path d="M6.62842 36.7869C6.98549 36.8114 7.33078 36.9247 7.63294 37.1166" stroke="#263238" stroke-width="0.134524" stroke-linecap="round" stroke-linejoin="round"/>
<path d="M6.56866 37.4973C6.92435 37.531 7.26318 37.6649 7.54586 37.8834" stroke="#263238" stroke-width="0.134524" stroke-linecap="round" stroke-linejoin="round"/>
<path d="M11.8492 44.0629C11.8492 44.0629 20.2203 43.6306 22.4241 43.7571" stroke="#263238" stroke-width="0.134524" stroke-linecap="round" stroke-linejoin="round"/>
<path d="M20.3859 43.1179C20.3859 43.1179 22.4924 42.9471 23.8027 43.1179" stroke="#263238" stroke-width="0.134524" stroke-linecap="round" stroke-linejoin="round"/>
<path d="M25.7229 43.7332H29.1311" stroke="#263238" stroke-width="0.134524" stroke-linecap="round" stroke-linejoin="round"/>
<path d="M27.7849 25.0127C27.7849 25.0127 42.7553 23.675 48.7705 24.4387C48.7705 24.4387 50.3935 27.4232 50.0399 42.7183C43.2791 43.5849 36.4769 44.0907 29.6624 44.2336" stroke="#263238" stroke-width="0.134524" stroke-linecap="round" stroke-linejoin="round" stroke-dasharray="0.54 0.54"/>
<g opacity="0.1">
<path opacity="0.1" d="M68.311 46.1791C67.8856 44.3699 67.262 43.69 66.6368 43.1672C66.6368 43.1672 66.6231 42.1422 65.8219 41.5579C65.6079 41.3694 65.3794 41.198 65.1385 41.0454C64.3868 40.4816 63.5583 39.8495 63.5583 39.8495C63.1688 38.722 62.6409 37.357 62.0703 36.0142L62.0993 36.32C61.5151 34.8935 60.9428 33.4739 60.7822 33.0024V32.9921C60.953 33.4466 61.1238 33.8856 61.3118 34.2905L59.1729 26.7309C59.1216 26.4268 59.0687 26.1279 59.0157 25.8392C58.9132 24.985 58.6347 23.3757 57.9633 23.2612C57.9383 23.2595 57.9132 23.2595 57.8882 23.2612C57.8882 23.2612 57.0972 22.9195 57.0972 24.3221C56.1559 24.6365 55.792 25.3471 55.7015 26.1825C55.6525 26.4475 55.6467 26.7187 55.6844 26.9855C55.7015 27.2947 55.7373 27.6107 55.7852 27.9251L52.7545 23.9412L52.4624 23.5619L48.7245 18.6418L43.7001 12.0133C43.5132 11.7672 43.2796 11.5604 43.0127 11.4046C42.7458 11.2489 42.4508 11.1473 42.1446 11.1055C41.8384 11.0638 41.527 11.0828 41.2282 11.1615C40.9293 11.2401 40.6489 11.3769 40.403 11.564L34.1657 16.3013L31.7312 18.1498C29.864 19.1218 30.3509 21.042 30.8685 21.7237L41.7457 36.0416C41.6891 36.0344 41.632 36.0316 41.5749 36.033C41.5749 36.033 41.264 35.3001 40.4952 35.4163C40.3315 35.4239 40.1731 35.4765 40.0374 35.5684C39.9134 35.6336 39.8081 35.7294 39.7316 35.8468C39.6464 35.9497 39.5698 36.0594 39.5026 36.1748C39.1114 36.8445 39.4736 38.4828 40.0391 40.4834C40.075 40.6132 40.1108 40.7379 40.145 40.8541V40.8729L40.2902 41.3734C40.8437 43.2936 41.879 47.064 42.0703 48.9125C42.084 49.0833 42.0925 49.2661 42.096 49.4369C42.1079 51.5656 41.1632 55.1293 41.5698 56.6019C41.6227 56.7949 41.6774 56.9794 41.7321 57.1622C42.0345 58.1462 42.3044 59.0773 42.7793 60.0015C43.3567 61.1291 44.0452 62.2105 44.6893 63.3021C45.8715 65.3078 47.0947 67.2895 48.3589 69.2473C48.9414 70.1459 49.6231 70.9659 50.2825 71.8098C50.5849 72.1976 51.2443 72.7802 51.3588 73.2773C51.3588 73.2773 57.2065 73.7608 60.4798 71.6817L60.1723 67.0281L62.3675 54.4117C62.9945 53.4602 64.9301 51.6015 65.3162 51.0138C65.5161 50.7216 65.7108 50.4312 65.9005 50.1476C67.344 48.7997 68.0667 47.7559 68.3844 46.5413C68.3913 46.5447 68.3691 46.4063 68.311 46.1791ZM48.0667 48.9347L48.0377 48.88C48.635 49.1505 49.2677 49.3345 49.9169 49.4267C49.2353 49.3481 48.4648 49.2388 48.0667 48.9347ZM50.5336 49.5002L50.848 49.5224C50.7428 49.522 50.6378 49.5146 50.5336 49.5002ZM48.0052 48.8066L47.6123 48.0275C47.0656 46.4592 45.8305 42.7623 45.8253 42.7469C45.5835 41.6816 45.2602 40.6365 44.8584 39.6206C45.149 39.7231 45.4606 39.7517 45.765 39.704C46.0695 39.6563 46.3573 39.5337 46.6026 39.3473L49.5923 37.0768C49.9015 37.2631 50.2176 37.4305 50.5268 37.5774L53.3268 39.7658L51.1059 48.8937L48.0052 48.8066ZM59.3386 27.7833C59.5709 28.8732 59.9382 30.4415 60.4251 31.9603C59.9525 30.5988 59.588 29.2021 59.3352 27.7833H59.3386Z" fill="black"/>
<path opacity="0.1" d="M46.6471 71.644L46.6642 71.726C46.6642 71.726 46.6591 71.6953 46.6471 71.644Z" fill="black"/>
</g>
<path d="M57.0255 28.1183C57.1963 28.0056 59.7008 26.6423 60.9547 30.7304C62.2087 34.8186 63.6796 41.7751 63.6796 41.7751L60.7002 42.3542C60.7002 42.3542 57.9395 40.885 55.4657 37.2052C55.4657 37.2052 51.9977 36.3066 50.4875 34.1711C49.1208 32.2304 53.3371 25.1047 53.3371 25.1047L57.0255 28.1183Z" fill="#E3C1AF"/>
<path d="M55.9543 33.2056C56.6924 34.3126 58.0898 36.6411 59.9759 37.3757" stroke="#263238" stroke-width="0.134524" stroke-linecap="round" stroke-linejoin="round"/>
<path d="M53.8667 34.3967C54.2084 34.5351 55.0626 35.0271 55.4657 35.0459C55.4657 35.0459 57.2066 38.4917 60.0784 39.6107" stroke="#263238" stroke-width="0.134524" stroke-linecap="round" stroke-linejoin="round"/>
<path d="M52.2693 35.6658C53.3371 36.5593 54.6098 37.1691 55.4657 37.2033C55.4657 37.2033 57.2066 40.6491 60.0783 41.7681" stroke="#263238" stroke-width="0.134524" stroke-linecap="round" stroke-linejoin="round"/>
<path d="M43.2836 10.6962L33.8369 17.8718C33.0164 18.495 32.8565 19.6654 33.4797 20.4858L46.6003 37.759C47.2235 38.5794 48.3938 38.7393 49.2143 38.1161L58.661 30.9405C59.4814 30.3173 59.6413 29.1469 59.0181 28.3265L45.8976 11.0533C45.2744 10.2329 44.104 10.073 43.2836 10.6962Z" fill="#263238"/>
<path d="M58.3922 30.5664L49.7239 37.1522C49.478 37.3396 49.1975 37.4766 48.8985 37.5554C48.5995 37.6342 48.288 37.6531 47.9816 37.6112C47.6753 37.5693 47.3803 37.4674 47.1134 37.3112C46.8466 37.155 46.6132 36.9477 46.4267 36.7012L33.8958 20.2051C33.6916 19.9386 33.5482 19.6308 33.4755 19.3031C33.3745 18.863 33.4028 18.4031 33.5571 17.9788C33.7114 17.5545 33.985 17.1838 34.3451 16.9113L36.7812 15.0629L43.0168 10.3238C43.2628 10.1369 43.5434 10.0002 43.8423 9.92169C44.1412 9.84316 44.4526 9.8243 44.7588 9.86619C45.065 9.90807 45.3599 10.0099 45.6268 10.1658C45.8936 10.3217 46.1271 10.5287 46.3139 10.7749L51.3417 17.3931L55.0796 22.3132L58.838 27.2675C59.0256 27.5133 59.1628 27.7937 59.2418 28.0926C59.3209 28.3915 59.3403 28.703 59.2989 29.0094C59.2575 29.3158 59.1561 29.611 59.0005 29.8781C58.8449 30.1453 58.6382 30.3792 58.3922 30.5664Z" fill="#0066F4"/>
<path opacity="0.1" d="M51.3349 17.3931L36.7761 15.0612L43.0168 10.3238C43.2629 10.1369 43.5434 10.0002 43.8423 9.92169C44.1412 9.84316 44.4527 9.8243 44.7588 9.86619C45.065 9.90807 45.36 10.0099 45.6268 10.1658C45.8937 10.3217 46.1272 10.5287 46.314 10.7749L51.3349 17.3931Z" fill="black"/>
<path opacity="0.1" d="M58.3922 30.5663L49.7239 37.1521C49.478 37.3395 49.1975 37.4765 48.8985 37.5553C48.5996 37.6341 48.288 37.6531 47.9817 37.6112C47.6753 37.5693 47.3803 37.4673 47.1135 37.3111C46.8466 37.1549 46.6133 36.9476 46.4267 36.7011L33.8958 20.205C33.6916 19.9385 33.5482 19.6307 33.4755 19.303L55.3667 22.7078L58.8381 27.2777C59.2135 27.7734 59.3774 28.3977 59.2939 29.014C59.2103 29.6303 58.8861 30.1884 58.3922 30.5663Z" fill="black"/>
<path d="M44.2471 11.9989L42.7167 13.1614C42.4101 13.3942 42.3504 13.8315 42.5832 14.1381L44.436 16.5773C44.6689 16.8838 45.1062 16.9436 45.4127 16.7107L46.9432 15.5482C47.2497 15.3153 47.3094 14.8781 47.0766 14.5715L45.2238 12.1323C44.9909 11.8258 44.5537 11.766 44.2471 11.9989Z" fill="white" stroke="#263238" stroke-width="0.134524" stroke-linecap="round" stroke-linejoin="round"/>
<path d="M43.5139 12.5532L46.1568 16.1442" stroke="#263238" stroke-width="0.134524" stroke-linecap="round" stroke-linejoin="round"/>
<path d="M43.5139 15.3635L46.1568 13.3596" stroke="#263238" stroke-width="0.134524" stroke-linecap="round" stroke-linejoin="round"/>
<path d="M48.6322 36.0777L48.1811 36.4092L42.6785 29.1657L43.1261 28.8274L48.6322 36.0777Z" fill="#263238"/>
<path d="M49.3959 35.5121L48.9449 35.8469L43.4354 28.5914L43.8796 28.2532L49.3959 35.5121Z" fill="#263238"/>
<path d="M50.1578 34.95L49.7085 35.2815L44.1905 28.0192L44.6364 27.6792L50.1578 34.95Z" fill="#263238"/>
<path d="M50.9214 34.3847L50.4704 34.7161L45.0258 27.5494L45.47 27.2095L50.9214 34.3847Z" fill="#263238"/>
<path d="M51.7449 33.7765L51.2939 34.1096L45.8408 26.931L46.2866 26.5911L51.7449 33.7765Z" fill="#263238"/>
<path d="M51.7449 25.3302L51.2939 25.6616L45.8408 18.483L46.2866 18.1448L51.7449 25.3302Z" fill="#263238"/>
<path d="M39.8687 12.734L39.1708 13.2642L54.5368 33.4935L55.2347 32.9634L39.8687 12.734Z" fill="#263238"/>
<path d="M58.3922 30.5664L49.7239 37.1522C49.478 37.3396 49.1975 37.4766 48.8985 37.5554C48.5995 37.6342 48.288 37.6531 47.9816 37.6112C47.6753 37.5693 47.3803 37.4674 47.1134 37.3112C46.8466 37.155 46.6132 36.9477 46.4267 36.7012L33.8958 20.2051C33.6916 19.9386 33.5482 19.6308 33.4755 19.3031C33.3745 18.863 33.4028 18.4031 33.5571 17.9788C33.7114 17.5545 33.985 17.1838 34.3451 16.9113L36.7812 15.0629L43.0168 10.3238C43.2628 10.1369 43.5434 10.0002 43.8423 9.92169C44.1412 9.84316 44.4526 9.8243 44.7588 9.86619C45.065 9.90807 45.3599 10.0099 45.6268 10.1658C45.8936 10.3217 46.1271 10.5287 46.3139 10.7749L51.3417 17.3931L55.0796 22.3132L58.838 27.2675C59.0256 27.5133 59.1628 27.7937 59.2419 28.0926C59.3209 28.3915 59.3403 28.703 59.2989 29.0094C59.2575 29.3158 59.1561 29.611 59.0005 29.8781C58.8449 30.1453 58.6382 30.3792 58.3922 30.5664V30.5664Z" stroke="#263238" stroke-width="0.134524" stroke-linecap="round" stroke-linejoin="round"/>
<path d="M51.3656 73.2757C51.3656 73.2757 61.4553 76.8633 64.5082 69.0492C64.5082 69.0492 59.7333 63.2407 62.3403 58.4949C63.9803 55.5052 68.516 48.9058 68.516 48.9058C68.516 48.9058 70.4106 47.1068 71 45.2994C71 45.2994 70.6754 43.2852 69.2472 41.9219C69.2472 41.9219 69.2318 40.8969 68.4306 40.3126C67.6294 39.7284 66.1602 38.6042 66.1602 38.6042C66.1602 38.6042 63.7445 32.8094 63.3858 31.7622C63.027 30.715 62.3061 28.735 61.9456 26.5482C61.5852 24.3615 61.252 22.0074 60.4867 22.0142C60.4867 22.0142 59.6974 21.6725 59.6974 23.0751C59.6974 23.0751 58.0403 23.9293 58.2846 25.7368C58.5289 27.5442 58.7544 28.4787 58.6895 29.4952C58.6245 30.5117 58.9508 34.0412 59.7674 35.1482C59.7674 35.1482 60.0408 40.1025 60.4508 41.3923C60.4645 41.4316 60.4764 41.4675 60.4884 41.4999C60.9189 42.5916 56.6172 46.7959 54.2887 47.9337C54.2887 47.9337 54.0444 48.3881 53.1407 48.2634C52.2369 48.1387 50.7079 48.0806 50.4448 47.4092C50.1817 46.7378 48.4307 41.4999 48.4307 41.4999C48.4307 41.4999 47.0144 34.786 44.1853 34.7877C44.1853 34.7877 43.7565 33.7627 42.6478 34.3231C41.5391 34.8834 42.2651 37.938 42.7554 39.6088C43.2457 41.2796 44.4877 45.6718 44.6893 47.6928C44.8909 49.7138 43.7463 53.7627 44.1768 55.3549C44.6073 56.9471 45.0857 58.0216 46.4592 60.6286C47.8327 63.2356 50.8753 71.0087 51.3656 73.2757Z" fill="#E3C1AF"/>
<path d="M51.3657 73.2755C51.3657 73.2755 49.2063 65.1471 46.0321 59.8904C42.858 54.6337 44.7252 52.775 44.7252 48.3999C44.7252 44.0247 41.1598 36.5762 42.1216 34.9344C43.0835 33.2927 44.3955 34.6064 44.9439 36.1388C45.4923 37.6713 44.7252 38.5476 43.1877 38.657" stroke="#263238" stroke-width="0.134524" stroke-linecap="round" stroke-linejoin="round"/>
<path d="M44.1854 34.7945C44.1854 34.7945 46.0288 34.6818 47.1614 37.6287C48.2941 40.5757 50.1084 48.0498 51.9978 50.3236" stroke="#263238" stroke-width="0.134524" stroke-linecap="round" stroke-linejoin="round"/>
<path d="M50.5063 47.5627C50.5165 47.5867 53.1457 49.0524 57.2253 47.7678" stroke="#263238" stroke-width="0.134524" stroke-linecap="round" stroke-linejoin="round"/>
<path d="M44.5355 43.444C44.7405 43.1932 45.0078 43.0007 45.3107 42.8859C45.6135 42.771 45.9413 42.7378 46.261 42.7897" stroke="#263238" stroke-width="0.134524" stroke-linecap="round" stroke-linejoin="round"/>
<path d="M44.8857 44.3717C45.0629 44.1599 45.296 44.0023 45.5586 43.9168C45.8211 43.8313 46.1024 43.8214 46.3703 43.8883" stroke="#263238" stroke-width="0.134524" stroke-linecap="round" stroke-linejoin="round"/>
<path d="M59.6974 23.0701C57.0153 23.9635 59.0141 28.0141 58.6895 29.4919C58.3649 30.9696 59.202 33.7987 59.846 35.3328C59.846 37.1317 60.4867 41.4966 60.4867 41.4966C60.0903 42.8855 56.7829 46.9788 53.5695 48.2601" stroke="#263238" stroke-width="0.134524" stroke-linecap="round" stroke-linejoin="round"/>
<path d="M61.6655 25.1097C61.6655 25.1097 61.4656 22.009 60.4867 22.009C59.5078 22.009 59.5676 24.0984 59.9742 25.6496C60.3808 27.2008 61.9627 26.9787 61.6655 25.1097Z" stroke="#263238" stroke-width="0.134524" stroke-linecap="round" stroke-linejoin="round"/>
<path d="M61.6654 25.1099C61.6654 25.1099 62.4991 29.9839 63.9119 33.0453" stroke="#263238" stroke-width="0.134524" stroke-linecap="round" stroke-linejoin="round"/>
<path d="M65.5776 44.4604C66.2609 43.3534 66.5633 42.3062 66.8161 40.9736C66.7529 40.1382 65.7911 37.4117 64.6738 34.7705" stroke="#263238" stroke-width="0.134524" stroke-linecap="round" stroke-linejoin="round"/>
<path d="M66.2507 38.8623C67.3594 39.696 69.2882 40.3366 69.0661 41.7751C68.821 43.2141 68.3175 44.5968 67.5798 45.8564" stroke="#263238" stroke-width="0.134524" stroke-linecap="round" stroke-linejoin="round"/>
<path d="M64.7541 69.413C64.7541 69.413 60.8915 64.0504 61.6654 60.3467C62.2342 57.6218 65.8919 52.8571 68.5159 48.9108C69.9612 47.5629 70.6839 46.5191 70.9999 45.3044C70.537 43.0237 69.7853 42.3592 69.0626 41.7749" stroke="#263238" stroke-width="0.134524" stroke-linecap="round" stroke-linejoin="round"/>
<path d="M65.7844 39.7471C65.3541 39.6261 64.9036 39.5948 64.4608 39.655C64.0179 39.7153 63.5921 39.8658 63.2098 40.0973" stroke="#263238" stroke-width="0.134524" stroke-linecap="round" stroke-linejoin="round"/>
<path d="M65.5674 40.6647C65.0427 40.5852 64.5064 40.6794 64.0401 40.9329" stroke="#263238" stroke-width="0.134524" stroke-linecap="round" stroke-linejoin="round"/>
</svg>
