<svg width="24" height="25" viewBox="0 0 24 25" fill="none" xmlns="http://www.w3.org/2000/svg">
<path d="M18.17 21.75H5.75C4.09 21.75 2.75 20.41 2.75 18.75V6.25C2.75 4.59 4.09 3.25 5.75 3.25H18.17C19.87 3.25 21.25 4.63 21.25 6.33V18.66C21.25 20.37 19.87 21.75 18.17 21.75Z" stroke="#CBCBCB" stroke-width="1.5" stroke-linecap="round" stroke-linejoin="round"/>
<path d="M12 15.5799C13.701 15.5799 15.08 14.201 15.08 12.4999C15.08 10.7989 13.701 9.41992 12 9.41992C10.299 9.41992 8.92001 10.7989 8.92001 12.4999C8.92001 14.201 10.299 15.5799 12 15.5799Z" stroke="#CBCBCB" stroke-width="1.5" stroke-linecap="round" stroke-linejoin="round"/>
<path d="M8.76001 12.5H7.89001" stroke="#CBCBCB" stroke-width="1.5" stroke-linecap="round" stroke-linejoin="round"/>
<path d="M16.11 12.5H15.17" stroke="#CBCBCB" stroke-width="1.5" stroke-linecap="round" stroke-linejoin="round"/>
<path d="M12 15.8799V16.6099" stroke="#CBCBCB" stroke-width="1.5" stroke-linecap="round" stroke-linejoin="round"/>
<path d="M12 8.38989V9.11989" stroke="#CBCBCB" stroke-width="1.5" stroke-linecap="round" stroke-linejoin="round"/>
<path d="M4.23001 9.42H3.26999C2.97999 9.42 2.75 9.18999 2.75 8.89999V7.02C2.75 6.73 2.97999 6.5 3.26999 6.5H4.23001C4.52001 6.5 4.75 6.73 4.75 7.02V8.89999C4.75 9.17999 4.52001 9.42 4.23001 9.42Z" fill="#CBCBCB"/>
<path d="M4.23001 18.5001H3.26999C2.97999 18.5001 2.75 18.2701 2.75 17.9801V16.1001C2.75 15.8101 2.97999 15.5801 3.26999 15.5801H4.23001C4.52001 15.5801 4.75 15.8101 4.75 16.1001V17.9801C4.75 18.2701 4.52001 18.5001 4.23001 18.5001Z" fill="#CBCBCB"/>
</svg>
