<svg width="72" height="75" viewBox="0 0 72 75" fill="none" xmlns="http://www.w3.org/2000/svg">
<path d="M41.256 33.5461H14.523C13.2453 33.5461 12.2096 34.5819 12.2096 35.8595V70.9265C12.2096 72.2041 13.2453 73.2399 14.523 73.2399H41.256C42.5336 73.2399 43.5694 72.2041 43.5694 70.9265V35.8595C43.5694 34.5819 42.5336 33.5461 41.256 33.5461Z" fill="#003780"/>
<path d="M43.0566 33.5454H16.3236C15.0459 33.5454 14.0102 34.5811 14.0102 35.8588V70.9257C14.0102 72.2034 15.0459 73.2391 16.3236 73.2391H43.0566C44.3342 73.2391 45.37 72.2034 45.37 70.9257V35.8588C45.37 34.5811 44.3342 33.5454 43.0566 33.5454Z" fill="#0066F4"/>
<path d="M19.489 73.241H16.8865C16.8066 73.241 16.7419 73.3057 16.7419 73.3856V73.8039C16.7419 73.8837 16.8066 73.9485 16.8865 73.9485H19.489C19.5689 73.9485 19.6336 73.8837 19.6336 73.8039V73.3856C19.6336 73.3057 19.5689 73.241 19.489 73.241Z" fill="#003780"/>
<path d="M42.4917 73.241H39.8892C39.8093 73.241 39.7446 73.3057 39.7446 73.3856V73.8039C39.7446 73.8837 39.8093 73.9485 39.8892 73.9485H42.4917C42.5716 73.9485 42.6363 73.8837 42.6363 73.8039V73.3856C42.6363 73.3057 42.5716 73.241 42.4917 73.241Z" fill="#003780"/>
<path opacity="0.2" d="M43.0566 33.5454H16.3236C15.0459 33.5454 14.0102 34.5811 14.0102 35.8588V70.9257C14.0102 72.2034 15.0459 73.2391 16.3236 73.2391H43.0566C44.3342 73.2391 45.37 72.2034 45.37 70.9257V35.8588C45.37 34.5811 44.3342 33.5454 43.0566 33.5454Z" fill="#003780"/>
<g style="mix-blend-mode:color-dodge" opacity="0.4">
<path d="M39.9065 68.6625H19.4717C19.2377 68.662 19.0134 68.5688 18.8479 68.4034C18.6824 68.2379 18.5893 68.0136 18.5887 67.7796V39.0089C18.5887 38.7745 18.6817 38.5498 18.8472 38.3839C19.0128 38.218 19.2373 38.1245 19.4717 38.124H39.9065C40.1409 38.1245 40.3654 38.218 40.531 38.3839C40.6965 38.5498 40.7895 38.7745 40.7895 39.0089V67.7796C40.789 68.0136 40.6958 68.2379 40.5303 68.4034C40.3648 68.5688 40.1405 68.662 39.9065 68.6625ZM19.4717 38.2204C19.2629 38.2209 19.0628 38.3042 18.9154 38.452C18.7679 38.5998 18.6851 38.8001 18.6851 39.0089V67.7796C18.6851 67.8829 18.7055 67.9852 18.745 68.0806C18.7845 68.176 18.8425 68.2627 18.9155 68.3358C18.9885 68.4088 19.0753 68.4668 19.1707 68.5063C19.2661 68.5458 19.3684 68.5661 19.4717 68.5661H39.9065C40.1151 68.5661 40.3152 68.4833 40.4627 68.3358C40.6102 68.1883 40.6931 67.9882 40.6931 67.7796V39.0089C40.6931 38.8001 40.6103 38.5998 40.4628 38.452C40.3154 38.3042 40.1153 38.2209 39.9065 38.2204H19.4717Z" fill="#E6E6E6"/>
</g>
<path d="M40.3576 67.7797V39.007C40.3576 38.759 40.1565 38.5579 39.9084 38.5579H19.4717C19.2236 38.5579 19.0225 38.759 19.0225 39.007L19.0225 67.7797C19.0225 68.0278 19.2236 68.2289 19.4717 68.2289H39.9084C40.1565 68.2289 40.3576 68.0278 40.3576 67.7797Z" fill="#0066F4"/>
<path opacity="0.1" d="M40.3576 67.7797V39.007C40.3576 38.759 40.1565 38.5579 39.9084 38.5579H19.4717C19.2236 38.5579 19.0225 38.759 19.0225 39.007L19.0225 67.7797C19.0225 68.0278 19.2236 68.2289 19.4717 68.2289H39.9084C40.1565 68.2289 40.3576 68.0278 40.3576 67.7797Z" fill="white"/>
<path d="M46.0428 41.729H45.85V43.3561H46.0428V41.729Z" fill="#0066F4"/>
<path d="M46.0428 35.8589H45.85V40.0153H46.0428V35.8589Z" fill="#0066F4"/>
<path opacity="0.1" d="M29.689 60.529C33.3197 60.529 36.2629 57.5858 36.2629 53.9552C36.2629 50.3246 33.3197 47.3813 29.689 47.3813C26.0584 47.3813 23.1152 50.3246 23.1152 53.9552C23.1152 57.5858 26.0584 60.529 29.689 60.529Z" fill="#003780"/>
<path d="M29.6891 44.1927C30.576 44.1927 31.2949 43.4737 31.2949 42.5868C31.2949 41.6999 30.576 40.981 29.6891 40.981C28.8022 40.981 28.0832 41.6999 28.0832 42.5868C28.0832 43.4737 28.8022 44.1927 29.6891 44.1927Z" fill="#0066F4"/>
<path opacity="0.6" d="M29.6794 44.1888C30.5663 44.1888 31.2853 43.4698 31.2853 42.5829C31.2853 41.696 30.5663 40.9771 29.6794 40.9771C28.7925 40.9771 28.0735 41.696 28.0735 42.5829C28.0735 43.4698 28.7925 44.1888 29.6794 44.1888Z" fill="white"/>
<path d="M29.689 43.8554C29.4382 43.8554 29.1929 43.781 28.9843 43.6416C28.7757 43.5022 28.6131 43.3041 28.5171 43.0723C28.4211 42.8405 28.396 42.5855 28.4449 42.3394C28.4939 42.0933 28.6147 41.8673 28.7921 41.6899C28.9695 41.5125 29.1955 41.3917 29.4416 41.3427C29.6876 41.2938 29.9427 41.3189 30.1745 41.4149C30.4063 41.5109 30.6044 41.6735 30.7438 41.8821C30.8831 42.0907 30.9575 42.336 30.9575 42.5869C30.957 42.9231 30.8232 43.2455 30.5854 43.4833C30.3477 43.721 30.0253 43.8549 29.689 43.8554ZM29.689 41.4147C29.4572 41.4147 29.2306 41.4835 29.0378 41.6123C28.8451 41.7411 28.6949 41.9241 28.6061 42.1383C28.5174 42.3525 28.4942 42.5882 28.5394 42.8155C28.5847 43.0429 28.6963 43.2517 28.8602 43.4157C29.0241 43.5796 29.233 43.6912 29.4604 43.7365C29.6877 43.7817 29.9234 43.7585 30.1376 43.6698C30.3518 43.581 30.5348 43.4308 30.6636 43.2381C30.7924 43.0453 30.8611 42.8187 30.8611 42.5869C30.8606 42.2762 30.737 41.9783 30.5173 41.7586C30.2976 41.5389 29.9997 41.4153 29.689 41.4147Z" fill="#0066F4"/>
<path d="M18.9955 42.3362H18.2803C18.1227 42.3362 17.995 42.4639 17.995 42.6215V46.535C17.995 46.6925 18.1227 46.8203 18.2803 46.8203H18.9955C19.1531 46.8203 19.2808 46.6925 19.2808 46.535V42.6215C19.2808 42.4639 19.1531 42.3362 18.9955 42.3362Z" fill="#0066F4"/>
<path opacity="0.6" d="M18.9955 42.3362H18.2803C18.1227 42.3362 17.995 42.4639 17.995 42.6215V46.535C17.995 46.6925 18.1227 46.8203 18.2803 46.8203H18.9955C19.1531 46.8203 19.2808 46.6925 19.2808 46.535V42.6215C19.2808 42.4639 19.1531 42.3362 18.9955 42.3362Z" fill="white"/>
<path d="M18.9955 59.9663H18.2803C18.1227 59.9663 17.995 60.094 17.995 60.2516V64.1651C17.995 64.3227 18.1227 64.4504 18.2803 64.4504H18.9955C19.1531 64.4504 19.2808 64.3227 19.2808 64.1651V60.2516C19.2808 60.094 19.1531 59.9663 18.9955 59.9663Z" fill="#0066F4"/>
<path opacity="0.6" d="M18.9955 59.9663H18.2803C18.1227 59.9663 17.995 60.094 17.995 60.2516V64.1651C17.995 64.3227 18.1227 64.4504 18.2803 64.4504H18.9955C19.1531 64.4504 19.2808 64.3227 19.2808 64.1651V60.2516C19.2808 60.094 19.1531 59.9663 18.9955 59.9663Z" fill="white"/>
<path d="M29.689 59.968C33.3197 59.968 36.2629 57.0248 36.2629 53.3942C36.2629 49.7635 33.3197 46.8203 29.689 46.8203C26.0584 46.8203 23.1152 49.7635 23.1152 53.3942C23.1152 57.0248 26.0584 59.968 29.689 59.968Z" fill="#0066F4"/>
<path opacity="0.6" d="M29.689 59.968C33.3197 59.968 36.2629 57.0248 36.2629 53.3942C36.2629 49.7635 33.3197 46.8203 29.689 46.8203C26.0584 46.8203 23.1152 49.7635 23.1152 53.3942C23.1152 57.0248 26.0584 59.968 29.689 59.968Z" fill="white"/>
<path d="M26.4367 49.867L26.1641 50.1396L32.9445 56.9201L33.2171 56.6474L26.4367 49.867Z" fill="#0066F4"/>
<path d="M32.9445 49.867L26.1641 56.6475L26.4367 56.9201L33.2171 50.1397L32.9445 49.867Z" fill="#0066F4"/>
<path opacity="0.2" d="M32.9222 49.8448L26.1418 56.6252L26.4144 56.8979L33.1948 50.1175L32.9222 49.8448Z" fill="#003780"/>
<path opacity="0.2" d="M26.4158 49.8463L26.1432 50.1189L32.9236 56.8993L33.1962 56.6267L26.4158 49.8463Z" fill="#003780"/>
<path d="M29.6699 58.3621C28.6826 58.3625 27.7175 58.0701 26.8964 57.5219C26.0754 56.9737 25.4354 56.1943 25.0573 55.2823C24.6792 54.3704 24.5801 53.3668 24.7725 52.3985C24.9649 51.4302 25.4401 50.5406 26.138 49.8424C26.8359 49.1442 27.7253 48.6687 28.6935 48.4759C29.6617 48.2832 30.6654 48.3819 31.5775 48.7596C32.4896 49.1373 33.2692 49.7771 33.8178 50.5979C34.3663 51.4187 34.6591 52.3838 34.6591 53.371C34.658 54.6941 34.1321 55.9627 33.1967 56.8984C32.2614 57.8342 30.9929 58.3606 29.6699 58.3621ZM29.6699 48.7654C28.7589 48.7651 27.8683 49.0349 27.1106 49.5407C26.353 50.0465 25.7624 50.7657 25.4135 51.6072C25.0646 52.4487 24.9732 53.3748 25.1506 54.2683C25.3281 55.1618 25.7666 55.9826 26.4106 56.6269C27.0547 57.2712 27.8753 57.71 28.7687 57.8879C29.6622 58.0658 30.5883 57.9747 31.43 57.6262C32.2716 57.2776 32.991 56.6873 33.4972 55.9299C34.0033 55.1725 34.2735 54.282 34.2735 53.371C34.2725 52.1502 33.7872 50.9796 32.9241 50.1162C32.061 49.2528 30.8907 48.767 29.6699 48.7654Z" fill="#0066F4"/>
<path d="M31.1446 54.8477C31.96 54.0323 31.96 52.7104 31.1446 51.895C30.3293 51.0797 29.0074 51.0797 28.192 51.895C27.3767 52.7104 27.3767 54.0323 28.192 54.8477C29.0074 55.663 30.3293 55.663 31.1446 54.8477Z" fill="#0066F4"/>
<path opacity="0.2" d="M29.6699 58.3621C28.6826 58.3625 27.7175 58.0701 26.8964 57.5219C26.0754 56.9737 25.4354 56.1943 25.0573 55.2823C24.6792 54.3704 24.5801 53.3668 24.7725 52.3985C24.9649 51.4302 25.4401 50.5406 26.138 49.8424C26.8359 49.1442 27.7253 48.6687 28.6935 48.4759C29.6617 48.2832 30.6654 48.3819 31.5775 48.7596C32.4896 49.1373 33.2692 49.7771 33.8178 50.5979C34.3663 51.4187 34.6591 52.3838 34.6591 53.371C34.658 54.6941 34.1321 55.9627 33.1967 56.8984C32.2614 57.8342 30.9929 58.3606 29.6699 58.3621ZM29.6699 48.7654C28.7589 48.7651 27.8683 49.0349 27.1106 49.5407C26.353 50.0465 25.7624 50.7657 25.4135 51.6072C25.0646 52.4487 24.9732 53.3748 25.1506 54.2683C25.3281 55.1618 25.7666 55.9826 26.4106 56.6269C27.0547 57.2712 27.8753 57.71 28.7687 57.8879C29.6622 58.0658 30.5883 57.9747 31.43 57.6262C32.2716 57.2776 32.991 56.6873 33.4972 55.9299C34.0033 55.1725 34.2735 54.282 34.2735 53.371C34.2725 52.1502 33.7872 50.9796 32.9241 50.1162C32.061 49.2528 30.8907 48.767 29.6699 48.7654Z" fill="#003780"/>
<path opacity="0.2" d="M31.1446 54.8477C31.96 54.0323 31.96 52.7104 31.1446 51.895C30.3293 51.0797 29.0074 51.0797 28.192 51.895C27.3767 52.7104 27.3767 54.0323 28.192 54.8477C29.0074 55.663 30.3293 55.663 31.1446 54.8477Z" fill="#003780"/>
<path d="M56.5721 1.05762L47.7187 13.8135C47.7187 13.8135 46.9616 15.6191 46.03 16.9588C45.0984 18.2986 42.4861 19.6384 42.4861 19.6384C42.4861 19.6384 42.254 22.1418 41.4969 23.0158C40.7397 23.8898 39.1086 23.3664 39.1086 23.3664C39.1086 23.3664 38.4091 24.1235 37.652 24.4724C36.8949 24.8214 34.5659 23.5408 34.5659 23.5408C34.5659 23.5408 36.6612 25.8122 36.9525 26.5693C37.2438 27.3265 37.7689 27.9667 36.8373 28.6662C35.9057 29.3657 34.8556 28.3749 34.8556 28.3749C34.8556 28.3749 35.323 29.8892 33.9833 30.1805C32.6435 30.4718 31.1837 27.5586 30.601 26.5693C30.0184 25.5801 28.3296 21.8505 28.0399 21.6761C27.7502 21.5016 27.342 20.57 27.9247 19.696C28.5073 18.822 32.6403 13.2308 33.1061 12.8323C33.5719 12.4337 42.4861 10.3192 42.4861 10.3192L45.8651 1" fill="#E3C1AF"/>
<path opacity="0.2" d="M46.8079 13.9527C46.8079 13.9527 45.8475 16.8339 44.807 17.3941C43.7666 17.9544 37.8441 19.475 35.5231 19.1549C33.2021 18.8347 31.9215 17.9544 31.9215 17.9544C31.9215 17.9544 30.641 19.6351 30.0807 20.1953C29.6906 20.5576 29.2264 20.8307 28.7202 20.9957C28.7202 20.9957 31.5053 27.9923 33.5078 30.158C33.6634 30.2061 33.8286 30.2138 33.988 30.1804C35.3278 29.8891 34.8604 28.3748 34.8604 28.3748C34.8604 28.3748 35.9088 29.3641 36.842 28.6662C37.7752 27.9683 37.2486 27.3264 36.9573 26.5693C36.666 25.8121 34.5627 23.5408 34.5627 23.5408C34.5627 23.5408 36.8917 24.8213 37.6488 24.4724C38.4059 24.1234 39.1054 23.3647 39.1054 23.3647C39.1054 23.3647 40.7365 23.8897 41.4936 23.0157C42.2507 22.1418 42.4828 19.6383 42.4828 19.6383C42.4828 19.6383 45.1032 18.2985 46.0364 16.9587C46.9696 15.619 47.7251 13.8134 47.7251 13.8134L51.373 8.55835L46.8079 13.9527Z" fill="black"/>
<path d="M56.5721 1.05762L47.7187 13.8135C47.7187 13.8135 46.9616 15.6191 46.03 16.9588C45.0984 18.2986 42.4861 19.6384 42.4861 19.6384C42.4861 19.6384 42.254 22.1418 41.4969 23.0158C40.7397 23.8898 39.1086 23.3664 39.1086 23.3664C39.1086 23.3664 38.4091 24.1235 37.652 24.4724C36.8949 24.8214 34.5659 23.5408 34.5659 23.5408C34.5659 23.5408 36.6612 25.8122 36.9525 26.5693C37.2438 27.3265 37.7689 27.9667 36.8373 28.6662C35.9057 29.3657 34.8556 28.3749 34.8556 28.3749C34.8556 28.3749 35.323 29.8892 33.9833 30.1805C32.6435 30.4718 31.1837 27.5586 30.601 26.5693C30.0184 25.5801 28.3296 21.8505 28.0399 21.6761C27.7502 21.5016 27.342 20.57 27.9247 19.696C28.5073 18.822 32.6403 13.2308 33.1061 12.8323C33.5719 12.4337 42.4861 10.3192 42.4861 10.3192L45.8651 1" stroke="#263238" stroke-width="0.122519" stroke-linecap="round" stroke-linejoin="round"/>
<path d="M26.292 35.0722L26.5241 35.9462L30.1352 35.0722L33.5143 26.2188L31.3005 25.4617L26.292 35.0722Z" fill="#CBCBCB" stroke="#263238" stroke-width="0.122519" stroke-linecap="round" stroke-linejoin="round"/>
<path d="M27.3981 23.3071L32.4066 25.1719L29.9608 36.2375L24.0782 34.4319L27.3981 23.3071Z" fill="#CBCBCB" stroke="#263238" stroke-width="0.122519" stroke-linecap="round" stroke-linejoin="round"/>
<path d="M24.2751 33.7708L29.495 35.3058L31.7664 25.4616L27.1932 23.9922L24.2751 33.7708Z" fill="#92E3A9" stroke="#263238" stroke-width="0.122519" stroke-linecap="round" stroke-linejoin="round"/>
<path d="M27.1723 26.4268C26.9452 26.3666 26.7078 26.3557 26.476 26.3947L25.1122 30.9647C25.3096 31.1571 25.5525 31.2964 25.8181 31.3697C26.8874 31.6642 28.0591 30.795 28.4337 29.4296C28.8082 28.0643 28.24 26.7197 27.1723 26.4268Z" fill="white" stroke="#263238" stroke-width="0.122519" stroke-linecap="round" stroke-linejoin="round"/>
<path d="M26.9787 27.184C26.9718 27.1809 26.9662 27.1756 26.9627 27.169C26.9592 27.1623 26.9581 27.1546 26.9595 27.1472L27.0203 26.9103C27.024 26.9003 27.0254 26.8896 27.0244 26.879C27.0233 26.8684 27.0199 26.8582 27.0144 26.8491C27.0088 26.84 27.0013 26.8323 26.9923 26.8266C26.9834 26.8208 26.9732 26.8172 26.9627 26.8159L26.7081 26.7551C26.6982 26.751 26.6874 26.7494 26.6767 26.7502C26.666 26.7511 26.6556 26.7545 26.6464 26.7601C26.6372 26.7657 26.6295 26.7734 26.6238 26.7825C26.6181 26.7916 26.6147 26.802 26.6137 26.8127L26.5641 27.0576C26.5622 27.0649 26.5578 27.0713 26.5517 27.0757C26.5455 27.0801 26.538 27.0822 26.5305 27.0816C26.4437 27.0727 26.3563 27.0727 26.2696 27.0816L25.8038 28.6455C26.1671 29.0232 26.7338 29.2121 26.6585 29.529C26.6153 29.7083 26.452 29.8492 26.1655 29.7852C26.1056 29.7771 26.0481 29.7563 25.997 29.7241C25.9458 29.6919 25.9022 29.649 25.8691 29.5985C25.836 29.5479 25.8142 29.4908 25.8051 29.431C25.796 29.3713 25.7999 29.3102 25.8166 29.2521L25.831 29.1881C25.839 29.1529 25.8182 29.1241 25.7685 29.1129L25.6709 29.0889L25.394 30.014C25.5052 30.1152 25.6352 30.1935 25.7765 30.2445C25.7837 30.2477 25.7896 30.2533 25.7931 30.2603C25.7966 30.2673 25.7975 30.2753 25.7958 30.283L25.7381 30.4862C25.7337 30.4962 25.7318 30.5071 25.7325 30.5179C25.7332 30.5288 25.7365 30.5393 25.7422 30.5486C25.7478 30.5579 25.7557 30.5656 25.765 30.5712C25.7743 30.5768 25.7849 30.5801 25.7958 30.5807L26.0599 30.6447C26.0692 30.6497 26.0794 30.6524 26.09 30.6527C26.1005 30.6531 26.1109 30.651 26.1205 30.6467C26.1301 30.6423 26.1385 30.6359 26.1452 30.6278C26.1519 30.6197 26.1567 30.6101 26.1591 30.5999L26.2023 30.3982C26.2047 30.3908 26.2094 30.3842 26.2157 30.3796C26.2221 30.375 26.2297 30.3726 26.2375 30.3726C26.801 30.4318 27.1835 30.1549 27.302 29.6619C27.3948 29.2681 27.262 28.9336 26.8506 28.6183C26.4744 28.3333 26.0775 28.1925 26.1463 27.9011C26.1943 27.6995 26.3784 27.6066 26.6265 27.6658C26.6879 27.6757 26.7464 27.6988 26.7981 27.7335C26.8497 27.7681 26.8932 27.8136 26.9256 27.8666C26.958 27.9197 26.9786 27.9792 26.9858 28.041C26.993 28.1028 26.9867 28.1654 26.9675 28.2245L26.9562 28.2693C26.9562 28.2965 26.9723 28.3205 27.0219 28.3333L27.4909 28.4454C27.5009 28.4491 27.5116 28.4505 27.5222 28.4495C27.5328 28.4484 27.543 28.445 27.5521 28.4395C27.5612 28.4339 27.5689 28.4264 27.5746 28.4174C27.5804 28.4085 27.584 28.3983 27.5853 28.3878L27.6205 28.2389C27.7278 27.7699 27.5021 27.3713 26.9787 27.184Z" fill="#263238"/>
<path d="M31.5326 17.4822C31.5326 17.4822 32.2321 18.5307 32.3489 19.4639C32.4482 20.2593 32.2622 21.0641 31.8239 21.7353C31.475 22.2587 31.126 22.7245 30.8347 23.5408C30.5434 24.3572 30.4857 25.5209 30.0776 26.1019C29.6694 26.683 29.4373 27.2656 30.0183 27.7906C30.5994 28.3157 32.1152 28.2564 32.9316 26.7422C33.7479 25.228 34.2714 23.5969 34.7948 23.0142C35.3182 22.4316 37.0085 21.0934 37.0085 21.0934C37.0085 21.0934 41.6089 20.4531 42.4829 19.6384C43.3569 18.8236 44.114 16.6099 44.114 16.6099" fill="#E3C1AF"/>
<path opacity="0.2" d="M43.7666 17.3943C43.7666 17.3943 41.2856 18.995 39.3647 19.4752C37.4439 19.9554 36.2434 19.9554 35.5231 20.9158C34.8028 21.8762 34.0825 24.9175 33.1221 25.4777C32.1617 26.038 32.0016 24.0371 30.641 24.4373L30.5962 24.4533C30.4633 25.0776 30.3465 25.7179 30.0776 26.1036C29.6694 26.6863 29.4373 27.2673 30.0183 27.7923C30.5994 28.3174 32.1152 28.2581 32.9316 26.7439C33.7479 25.2296 34.2714 23.5985 34.7948 23.0159C35.3182 22.4332 37.0085 21.0951 37.0085 21.0951C37.0085 21.0951 41.6089 20.4548 42.4829 19.64C43.0111 19.147 43.4961 18.145 43.797 17.4279L43.7666 17.3943Z" fill="black"/>
<path d="M31.5326 17.4822C31.5326 17.4822 32.2321 18.5307 32.3489 19.4639C32.4482 20.2593 32.2622 21.0641 31.8239 21.7353C31.475 22.2587 31.126 22.7245 30.8347 23.5408C30.5434 24.3572 30.4857 25.5209 30.0776 26.1019C29.6694 26.683 29.4373 27.2656 30.0183 27.7906C30.5994 28.3157 32.1152 28.2564 32.9316 26.7422C33.7479 25.228 34.2714 23.5969 34.7948 23.0142C35.3182 22.4316 37.0085 21.0934 37.0085 21.0934C37.0085 21.0934 41.6089 20.4531 42.4829 19.6384C43.3569 18.8236 44.114 16.6099 44.114 16.6099" stroke="#263238" stroke-width="0.122519" stroke-linecap="round" stroke-linejoin="round"/>
<path d="M29.727 20.3954C29.727 20.3954 31.2428 21.2102 32.3489 20.2786" stroke="#263238" stroke-width="0.122519" stroke-linecap="round" stroke-linejoin="round"/>
<path d="M34.8524 28.375L33.5142 25.8123" stroke="#263238" stroke-width="0.122519" stroke-linecap="round" stroke-linejoin="round"/>
<path d="M39.1054 23.3662C39.1054 23.3662 40.1539 22.4922 40.0946 20.5698" stroke="#263238" stroke-width="0.122519" stroke-linecap="round" stroke-linejoin="round"/>
<path d="M7.48218 74.0618H55.4565" stroke="#263238" stroke-width="0.122519" stroke-linecap="round" stroke-linejoin="round"/>
<path d="M1.66846 74.1104H4.54969" stroke="#263238" stroke-width="0.122519" stroke-linecap="round" stroke-linejoin="round"/>
</svg>
