<svg width="32" height="32" viewBox="0 0 32 32" fill="none" xmlns="http://www.w3.org/2000/svg">
<path d="M28.36 9.1338V3.65381" stroke="#D05888" stroke-width="2" stroke-linecap="round" stroke-linejoin="round"/>
<path d="M13.3067 28.3069C18.6013 28.3069 22.8934 24.0089 22.8934 18.7069C22.8934 13.405 18.6013 9.10693 13.3067 9.10693C8.01212 9.10693 3.72002 13.405 3.72002 18.7069C3.72002 24.0089 8.01212 28.3069 13.3067 28.3069Z" stroke="#D05888" stroke-width="2" stroke-linecap="round" stroke-linejoin="round"/>
<path d="M28.3733 3.64014L22.8933 9.13347" stroke="#D05888" stroke-width="2" stroke-linecap="round" stroke-linejoin="round"/>
<path d="M22.8933 3.65381H28.36" stroke="#D05888" stroke-width="2" stroke-linecap="round" stroke-linejoin="round"/>
<path d="M14.04 18.0401V16.8134L14.96 17.1734C15.0533 17.2001 15.1334 17.2268 15.2267 17.2268C15.4667 17.2268 15.6933 17.1068 15.84 16.9068C16.04 16.6268 16.0133 16.2534 15.7867 16.0001C15.3867 15.5334 14.76 15.2001 14.04 15.0668V15.0001C14.04 14.5868 13.7067 14.2534 13.2933 14.2534C12.88 14.2534 12.5467 14.5868 12.5467 15.0001V15.0801C11.2533 15.3201 10.32 16.1734 10.32 17.2268C10.32 18.2801 11.2533 19.1334 12.5467 19.3734V20.6001L11.6267 20.2401C11.3067 20.1201 10.9467 20.2268 10.76 20.5068C10.56 20.7868 10.5867 21.1601 10.8133 21.4134C11.2133 21.8801 11.84 22.2134 12.56 22.3468V22.4134C12.56 22.8267 12.8934 23.1601 13.3067 23.1601C13.72 23.1601 14.0533 22.8267 14.0533 22.4134V22.3334C15.3467 22.0934 16.28 21.2401 16.28 20.1868C16.28 19.1334 15.3333 18.2801 14.04 18.0401ZM12.56 17.8401C12.0934 17.6934 11.8133 17.4268 11.8133 17.2134C11.8133 17.0001 12.0934 16.7334 12.56 16.5868V17.8401ZM14.04 20.8134V19.5601C14.5067 19.7068 14.7867 19.9734 14.7867 20.1868C14.7867 20.4001 14.5067 20.6668 14.04 20.8134Z" fill="#D05888"/>
</svg>
