<svg width="20" height="20" viewBox="0 0 20 20" fill="none" xmlns="http://www.w3.org/2000/svg">
<path d="M2.22168 15L2.22168 17.7777" stroke="white" stroke-width="1.5" stroke-linecap="round" stroke-linejoin="round"/>
<path d="M11.6831 2.30826C8.37403 2.30826 5.69147 4.99455 5.69147 8.30826C5.69147 11.622 8.37403 14.3083 11.6831 14.3083C14.9922 14.3083 17.6748 11.622 17.6748 8.30826C17.6748 4.99455 14.9922 2.30826 11.6831 2.30826Z" stroke="white" stroke-width="1.5" stroke-linecap="round" stroke-linejoin="round"/>
<path d="M2.2674 17.7252L5.69238 14.2919" stroke="white" stroke-width="1.5" stroke-linecap="round" stroke-linejoin="round"/>
<path d="M5 17.7777H2.22222" stroke="white" stroke-width="1.5" stroke-linecap="round" stroke-linejoin="round"/>
<path d="M11.2248 8.72495V9.49161L10.6498 9.26661C10.5915 9.24995 10.5415 9.23328 10.4831 9.23328C10.3331 9.23328 10.1915 9.30828 10.0998 9.43328C9.97479 9.60828 9.99147 9.84161 10.1331 9.99995C10.3831 10.2916 10.7748 10.4999 11.2248 10.5833V10.6249C11.2248 10.8833 11.4331 11.0916 11.6915 11.0916C11.9498 11.0916 12.1581 10.8833 12.1581 10.6249V10.5749C12.9665 10.4249 13.5498 9.89161 13.5498 9.23328C13.5498 8.57495 12.9665 8.04161 12.1581 7.89161V7.12495L12.7331 7.34995C12.9331 7.42495 13.1581 7.35828 13.2748 7.18328C13.3998 7.00828 13.3831 6.77495 13.2415 6.61661C12.9915 6.32495 12.5998 6.11661 12.1498 6.03328V5.99161C12.1498 5.73328 11.9415 5.52494 11.6831 5.52494C11.4248 5.52494 11.2165 5.73328 11.2165 5.99161V6.04161C10.4081 6.19161 9.8248 6.72495 9.8248 7.38328C9.8248 8.04161 10.4165 8.57495 11.2248 8.72495ZM12.1498 8.84995C12.4415 8.94161 12.6165 9.10828 12.6165 9.24161C12.6165 9.37495 12.4415 9.54161 12.1498 9.63328V8.84995ZM11.2248 6.99161V7.77495C10.9331 7.68328 10.7581 7.51661 10.7581 7.38328C10.7581 7.24995 10.9331 7.08328 11.2248 6.99161Z" fill="white"/>
</svg>
