<svg width="34" height="35" viewBox="0 0 34 35" fill="none" xmlns="http://www.w3.org/2000/svg">
<path d="M24.6927 12.1458C24.7069 12.1167 24.7069 12.1022 24.7069 12.0731V8.0291C24.7069 5.20706 22.4544 2.90869 19.6636 2.90869C18.7002 2.90869 17.8077 3.18508 17.0427 3.66512C16.2777 3.18508 15.3852 2.90869 14.4219 2.90869C11.6311 2.90869 9.3644 5.20706 9.3644 8.0291V8.61096H8.07523C6.02107 8.61096 4.27857 10.2256 4.10857 12.2913L2.84773 27.667C2.76273 28.758 3.13107 29.8636 3.85357 30.6782C4.6044 31.5219 5.68106 32.0019 6.80023 32.0019H22.0294C22.0861 32.0019 22.1569 32.0019 22.2136 31.9874C23.2761 31.9437 24.2677 31.4782 24.9761 30.6782C25.2169 30.4163 25.4152 30.1254 25.5711 29.8199C25.8969 29.1653 26.0527 28.4089 25.9961 27.667L24.7211 12.2913C24.7211 12.2476 24.7069 12.1894 24.6927 12.1458ZM17.4111 17.0044C17.8219 16.5825 18.5019 16.5825 18.9127 17.0189C19.3236 17.4553 19.3094 18.139 18.8986 18.5608L13.9261 23.6085C13.7136 23.8122 13.4444 23.914 13.1752 23.914C12.9061 23.914 12.6369 23.8122 12.4244 23.6085L9.94523 21.0774C9.52023 20.6556 9.52023 19.9719 9.93106 19.5355C10.3419 19.1136 11.0077 19.1136 11.4327 19.5355L13.1752 21.2956L17.4111 17.0044ZM19.6636 5.09068C21.2786 5.09068 22.5819 6.39988 22.5819 8.0291V8.61096H19.4652V8.0291C19.4652 7.01084 19.1677 6.06531 18.6719 5.26524C18.9836 5.14887 19.3094 5.09068 19.6636 5.09068ZM16.7452 8.0291C16.7452 7.56361 16.8444 7.14176 17.0427 6.749C17.2411 7.14176 17.3402 7.56361 17.3402 8.0291V8.61096H16.7452V8.0291ZM11.4894 8.0291C11.4894 6.39988 12.8069 5.09068 14.4219 5.09068C14.7619 5.09068 15.1019 5.14887 15.4136 5.26524C14.9177 6.06531 14.6202 7.01084 14.6202 8.0291V8.61096H11.4894V8.0291Z" fill="white"/>
<path d="M29.8914 12.2907C29.7497 10.5451 28.4747 9.10502 26.8314 8.72681V11.0397V12.0289C26.8314 12.058 28.1064 27.4774 28.1064 27.4774C28.1772 28.2193 28.0922 28.9611 27.8939 29.6739C27.7947 30.0667 27.653 30.4449 27.4689 30.8086C27.2422 31.245 26.973 31.6377 26.6614 32.0014H27.1997C28.3189 32.0014 29.3955 31.5213 30.1464 30.6776C30.8689 29.863 31.2372 28.7575 31.1522 27.6665L29.8914 12.2907Z" fill="white"/>
</svg>
