<svg width="243" height="170" viewBox="0 0 243 170" fill="none" xmlns="http://www.w3.org/2000/svg">
<g clip-path="url(#clip0_1689_767)">
<path fill-rule="evenodd" clip-rule="evenodd" d="M81.7446 80.1922C82.9382 75.551 84.0632 70.8089 85.8342 66.3485C86.9428 63.5573 88.1174 60.7916 89.2939 58.0286C89.4569 57.6451 89.5258 57.2753 89.8433 57.0843C90.2672 56.8293 91.1446 56.8348 91.6229 56.7471C98.4184 55.5007 105.285 54.5495 112.173 54.0143C120.034 53.4036 127.698 53.6831 135.477 54.9642C142.13 56.0596 148.716 57.5695 155.231 59.2985C156.189 59.5526 157.145 59.812 158.099 60.0789C158.544 60.2032 159.282 60.2666 159.67 60.5261C160.499 61.0808 160.779 63.3532 161.09 64.3159C161.506 65.6064 161.749 67.3791 162.551 68.477C163.745 70.1109 165.563 71.5284 167.043 72.8869C172.21 77.6279 177.873 81.9528 184.546 84.2967C194.868 87.923 205.754 90.1957 216.447 92.4427C216.696 92.495 216.945 92.547 217.194 92.5986C214.426 95.664 211.657 98.7295 208.889 101.795C207.328 103.523 205.768 105.251 204.207 106.979C203.405 107.868 203.493 108.026 202.358 107.779C196.672 106.538 190.996 105.186 185.413 103.537C182.676 102.729 179.892 101.89 177.345 100.581C173.84 98.7796 170.55 96.5525 167.349 94.2653C164.486 92.2205 161.691 90.0814 158.947 87.8816C158.406 87.4482 156.453 85.3578 155.82 85.4939C155.274 85.6113 154.328 86.8541 153.928 87.216C152.871 88.1734 151.809 89.1263 150.74 90.0716C149.04 91.5754 147.303 93.4172 145.316 94.5491C143.223 95.742 140.824 96.5547 138.615 97.5045C137.382 98.0341 136.149 98.5619 134.915 99.0885C134.593 99.2259 134.143 99.5248 133.795 99.5322C132.767 99.554 131.274 98.718 130.32 98.3925C127.869 97.556 125.437 96.6663 123.03 95.7127C117.889 93.676 112.24 91.4632 108.01 87.7985C107.272 87.1592 106.551 86.4435 106.063 85.5895C105.893 85.2934 105.641 84.8811 105.624 84.5313C105.596 83.9738 105.91 83.8645 106.376 83.5159C108.782 81.7175 111.376 80.1501 113.928 78.5696C114.528 78.1984 115.128 77.8287 115.731 77.4627L85.9177 79.8569C84.5266 79.9688 83.1357 80.0802 81.7446 80.1922Z" fill="#0066F4"/>
<path fill-rule="evenodd" clip-rule="evenodd" d="M126.139 23.4261C129.289 23.5698 132.518 23.7162 135.64 24.1596C138.753 24.6011 141.657 25.731 144.47 27.0993C149.542 29.5659 154.727 32.5643 157.989 37.3091C159.514 39.5276 160.758 41.8504 162.863 43.5968C163.356 44.005 163.893 44.496 164.547 44.621C165.066 44.7203 165.525 44.51 166.034 44.4848C167.005 44.4366 167.373 44.9486 167.373 45.9137C168.102 45.6226 168.896 45.3593 169.692 45.4662C170.356 45.5558 170.885 45.9567 171.523 46.1252C172.675 46.4293 173.802 45.9745 174.898 45.6354C177.665 44.7795 180.704 44.1312 183.61 44.4366C185.525 44.6378 187.845 45.4681 186.854 47.9342C186.032 49.98 182.957 51.0156 181.015 51.5246C179.363 51.9575 177.142 51.5712 177.282 53.8503C177.379 55.4412 177.62 57.1476 179.311 57.6638C180.238 57.9468 183.523 58.3686 181.604 59.8041C180.188 60.8639 179.693 62.7298 178.616 64.1311C177.243 65.9171 175.381 67.361 173.205 68.0128C170.77 68.7423 168.193 68.6024 165.692 68.8854C167.454 71.3166 169.997 72.9885 172.313 74.8373C174.747 76.7811 177.096 78.9055 179.913 80.2911C182.438 81.5332 185.167 82.3956 187.775 83.4488C190.514 84.5549 193.273 85.6483 196.101 86.5102C201.804 88.2482 207.804 89.4622 213.668 90.5285C216.561 91.0548 219.399 90.9776 222.322 91.0244C225.32 91.0727 228.317 91.5983 231.26 92.1382C232.687 92.4003 234.127 92.5654 235.554 92.8261C236.239 92.9514 238.949 93.2272 239.046 94.23C239.203 95.863 237.438 96.7784 236.144 97.2339C235.592 97.4286 234.702 97.4 234.224 97.6676C233.706 97.957 233.908 98.3829 233.849 98.9432C233.763 99.7576 233.327 100.343 232.659 100.795C232.11 101.167 231.448 101.152 231.826 101.856C232.001 102.18 232.438 102.385 232.64 102.727C232.87 103.117 232.976 103.546 232.929 103.995C232.847 104.782 232.327 105.382 231.603 105.66C230.444 106.105 229.084 105.79 227.897 105.646C225.912 105.404 223.896 105.38 221.937 104.946C219.894 104.493 217.906 103.795 215.861 103.331C214.813 103.093 213.762 102.894 212.737 102.564C212.07 102.349 211.106 101.792 210.396 101.967C209.731 102.13 209.211 102.933 208.776 103.399C208.175 104.043 207.594 104.703 206.984 105.338C206.58 105.757 206.165 106.169 205.724 106.55C205.581 106.674 204.694 107.216 204.682 107.361C204.648 107.772 205.615 107.765 205.822 107.928C207.026 108.88 205.217 109.482 204.436 109.434C202.637 109.324 200.829 109.104 199.046 108.839C194.803 108.21 190.572 107.53 186.515 106.109C182.502 104.703 178.587 103.208 174.875 101.113C171.312 99.1017 167.866 96.8281 164.501 94.504C162.868 93.3762 161.224 92.2078 159.845 90.7711C158.497 89.366 157.398 87.7527 156.279 86.1651C153.601 88.7512 151.024 91.4709 148.148 93.8418C145.411 96.0969 142.122 97.3017 138.939 98.7664C139.042 99.432 142.153 99.8305 142.721 100.004C145.316 100.793 147.806 102.06 150.33 103.053C154.529 104.706 158.512 106.857 159.911 111.448C161.286 115.962 159.691 120.505 157.746 124.582C155.451 129.396 152.725 133.854 149.429 138.05C148.027 139.835 146.516 141.478 144.978 143.141C143.665 144.559 142.54 146.239 143.09 148.255C144.146 147.925 144.34 148.749 143.649 149.447C143.035 150.067 141.974 150.187 141.154 150.29C138.669 150.601 136.103 150.491 133.615 150.26C129.085 149.838 124.545 148.695 120.444 146.728C118.404 145.749 117.666 147.327 116.263 148.549C115.159 149.511 113.638 150.134 112.799 151.378C112.109 152.401 112.56 154.019 113.993 153.635C115.109 153.337 116.005 152.092 117.187 152.044C119.284 151.959 115.327 154.951 114.821 155.316C115.823 156.212 116.96 154.983 117.97 154.778C118.939 154.581 119.21 155.083 118.694 155.891C118.291 156.521 117.026 156.967 117.867 157.733C118.564 158.368 120.11 158.702 120.966 158.98C123.636 159.849 126.293 160.466 129.073 160.862C129.971 160.991 131.41 160.909 132.138 161.545C133.098 162.384 132.635 163.775 132.149 164.737C130.308 168.379 126.481 170.17 122.551 170.432C120.13 170.593 117.687 170.437 115.259 170.568C112.598 170.711 109.931 170.923 107.264 170.835C102.976 170.694 100.249 167.595 98.1112 164.188C96.7531 162.023 95.5015 159.795 94.326 157.527C93.8666 156.641 92.9049 155.723 92.7414 154.727C92.5939 153.83 93.1659 153.111 93.7217 152.477C95.1843 150.808 96.9439 149.534 98.6632 148.154C99.6448 147.367 100.022 146.715 100.459 145.569C100.827 144.604 101.535 144.192 102.158 143.422C102.843 142.575 102.628 142.425 102.093 141.733C101.534 141.008 101.754 139.941 101.989 139.121C102.326 137.944 103.048 137.685 104.127 137.306C105.111 136.961 105.945 136.354 106.817 135.792C111.127 133.013 115.187 129.869 119.549 127.168C123.853 124.504 128.352 122.15 132.459 119.176C129.124 118.728 126.183 116.927 123.036 115.861C121.421 115.313 119.822 114.729 118.26 114.044C117.663 113.782 116.968 113.55 116.436 113.165C115.901 112.779 115.49 112.27 114.929 111.905C113.599 111.037 112.017 110.543 110.587 109.866C109.042 109.136 107.517 108.337 106.081 107.407C104.741 106.539 103.454 105.547 102.34 104.4C101.452 103.487 100.589 102.297 99.3319 101.877C99.4638 103.627 101.632 105.076 102.821 106.13C104.749 107.839 106.754 109.291 108.909 110.703C106.491 112.774 103.545 114.123 100.713 115.522C97.5299 117.094 94.4355 118.838 91.265 120.435C88.5791 121.788 85.7535 122.831 83.0233 124.088C80.0781 125.444 77.0464 126.582 73.9734 127.614C71.1924 128.548 68.574 129.544 65.9498 130.854C63.3989 132.129 60.6692 133.103 57.9403 133.921C54.8741 134.84 51.9487 135.714 48.9997 136.974C46.3406 138.11 43.6706 138.836 40.8563 139.453C39.9267 139.658 38.7331 140.032 38.082 139.132C37.5884 138.45 37.5143 137.398 37.3727 136.596C36.8302 133.527 36.7872 130.409 36.2991 127.335C34.4467 127.893 32.6921 128.581 30.7378 128.67C29.5093 128.726 28.7626 128.852 28.4566 130.193C29.1673 130.274 31.7066 130.309 31.7753 131.315C31.8373 132.223 30.3008 132.233 29.7559 132.258C28.7809 132.302 27.8972 132.142 27.3768 133.096C28.1436 133.379 29.8434 132.863 30.1829 133.894C30.6204 135.224 28.6338 135.221 27.919 135.328C26.6719 135.515 26.8 136.494 26.8856 137.541C26.998 138.918 27.083 140.297 27.2691 141.667C27.6664 144.595 28.3472 147.479 28.6697 150.417C28.9484 152.958 29.1046 155.399 27.2881 157.424C26.5579 158.238 25.5427 159.175 24.395 159.272C23.2301 159.37 23.2513 158.554 22.5262 157.954C22.0819 157.586 21.4934 157.511 20.97 157.313C20.3334 157.071 19.7156 156.718 19.1436 156.352C18.0893 155.677 17.1677 154.84 16.4223 153.833C13.5071 149.895 12.4649 144.01 12.1762 139.235C11.9925 136.199 12.1757 133.158 12.4544 130.133C12.6045 128.504 12.7555 126.874 12.9527 125.25C13.0136 124.747 13.1158 124.243 13.1537 123.738C13.1754 123.449 13.036 122.865 13.1836 122.588C12.9951 122.941 12.6614 122.68 12.3299 122.402C11.6457 121.827 11.8563 120.724 12.2223 119.968C13.325 117.692 16.6297 117.603 18.7797 117.426C24.5587 116.95 30.0489 115.401 35.5817 113.746C34.8008 112.577 36.0289 111.805 36.9808 111.403C38.4489 110.784 39.9647 110.239 41.4466 109.648C44.7927 108.312 48.0691 107.066 51.573 106.213C54.7468 105.441 57.8179 104.159 60.9492 103.22C64.1845 102.249 67.3614 101.139 70.5435 100.008C76.8461 97.7688 83.1545 95.4805 89.2711 92.7636C90.8171 92.0769 92.294 91.2806 93.7861 90.4862C94.9982 89.841 96.4207 89.3679 97.4484 88.4357C98.4296 87.5455 99.017 86.3079 100.084 85.4995C101.044 84.7717 102.358 84.7617 103.154 83.8575C104.23 82.6351 105.515 82.0978 106.975 81.3809C107.445 81.1506 110.534 79.9872 110.471 79.3268C108.263 79.3268 105.997 79.9836 103.814 80.2895C101.505 80.6129 99.1974 80.9724 96.8712 81.1514C93.1022 81.441 89.3348 81.3626 85.5816 80.9541C85.0208 80.8933 82.7707 80.4313 82.3829 81.0328C82.0873 81.4912 82.8223 82.0368 82.8294 82.5294C82.8403 83.252 82.2579 83.6396 81.5983 83.3884C80.3139 82.9001 80.5021 80.8308 80.6221 79.7807C80.8516 77.772 81.3623 75.7816 81.8088 73.8136C79.159 75.1621 76.643 76.8933 74.3612 78.796C72.5937 80.2698 70.9976 82.268 68.9235 83.3185C66.9322 84.3278 65.7481 83.4668 65.8298 81.2455C65.8671 80.2277 66.0734 79.2617 66.426 78.3138C66.5926 77.8661 67.2768 76.5984 66.9562 76.1212C65.1362 77.5724 63.3283 79.0272 61.4178 80.3593C60.0671 81.3008 58.109 82.7696 56.3458 82.3958C54.7883 82.0658 54.9407 80.3524 55.4345 79.198C55.8624 78.1967 56.6319 77.3072 57.3944 76.5425C58.0251 75.9104 58.9214 75.3442 59.2373 74.468C57.1454 75.4078 54.992 76.1191 52.8006 76.7794C51.2424 77.2492 50.1531 79.1997 48.3412 78.9115C46.5271 78.623 47.2495 76.3816 47.9736 75.4071C48.4802 74.7254 49.1812 74.1249 49.8611 73.6211C50.5238 73.1294 51.5326 72.7012 51.8588 71.8833C49.7397 72.2811 47.6091 72.9724 45.4286 72.845C44.1337 72.7692 41.9722 72.2039 42.2279 70.4635C42.4867 68.701 44.8338 68.566 46.1536 68.2373C47.9529 67.7889 49.675 66.9475 51.4114 66.3057C54.9143 65.0106 58.4854 63.9719 62.0693 62.9396L63.2014 62.6136C67.2468 61.4478 71.315 60.455 75.4106 59.4864C77.435 59.0078 79.4522 58.4857 81.4923 58.0772C83.4663 57.6821 85.4716 57.4532 87.4304 56.981C85.7796 54.4895 87.7785 52.4423 89.9372 51.2565C88.5682 50.9797 87.1759 50.8134 85.8188 50.4778C84.6596 50.1912 83.5425 49.7512 82.3748 49.4976C80.3683 49.062 78.3641 48.8329 76.651 47.5906C73.4138 45.2426 73.1384 41.5061 75.8661 38.6788C78.6188 35.8253 82.6593 34.4891 86.5476 34.3563C90.8998 34.208 95.8518 35.0514 99.9243 36.5921C101.925 37.349 104.008 38.3114 105.723 39.6005C106.889 40.4772 108.734 42.1574 110.3 42.1574C108.424 39.8897 106.123 37.5448 105.784 34.4737C105.464 31.5663 106.783 28.4759 108.996 26.595C113.419 22.8384 120.717 23.1785 126.139 23.4261ZM100.925 148.044C99.7708 149.839 98.1744 151.296 96.6671 152.786C96.1472 153.3 95.1037 153.953 95.0534 154.758C95.0127 155.416 95.819 156.155 96.1712 156.671C98.0332 159.402 99.5664 162.418 101.841 164.844C104.412 167.585 107.346 168.118 110.987 168.126C115.029 168.135 119.125 168.641 123.16 168.427C126.578 168.247 129.947 166.725 131.647 163.632C130.54 163.061 128.964 163.333 127.764 163.346C126.128 163.363 124.53 163.333 122.914 163.049C121.448 162.791 120 162.404 118.622 161.839C117.909 161.547 117.204 161.213 116.547 160.806C116.066 160.509 115.705 160.054 115.233 159.762C113.491 158.687 111.479 162.106 109.617 162.04C108.476 162 108.889 160.879 109.364 160.252C110.221 159.119 111.715 158.419 112.843 157.593C111.793 156.626 110.606 157.64 109.606 158.145C108.355 158.777 107.056 159.552 105.659 159.79C105.764 157.989 108.213 157.024 109.564 156.292C110.165 155.966 110.919 155.664 111.067 154.947C111.178 154.408 110.988 153.642 110.931 153.097C110.86 152.405 110.807 152.184 110.07 151.989C109.176 151.753 108.276 151.821 107.381 151.526C104.931 150.717 103.025 149.516 100.925 148.044ZM21.2998 119.674C20.7014 119.84 20.097 119.983 19.4893 120.112C18.2865 120.365 17.0821 120.629 15.8752 120.859C15.2698 120.974 14.5977 120.901 14.4193 121.479C14.3276 121.775 14.5583 122.307 14.5979 122.615C14.669 123.17 14.6736 123.732 14.6802 124.291C14.7433 129.438 13.667 134.556 14.1409 139.703C14.5412 144.053 15.478 149.553 18.6737 152.793C20.0531 154.191 21.7501 155.709 23.4869 156.665C24.8484 157.414 26.7504 155.534 27.0284 154.233C27.2278 153.301 26.8953 152.317 26.6791 151.418C26.4015 150.266 26.1204 149.115 25.8457 147.962C25.2592 145.502 24.7258 143.019 24.5573 140.491C24.5019 139.66 24.5138 138.86 24.5606 138.032C24.586 137.583 24.7975 136.501 24.4834 136.116C24.077 135.619 23.1484 135.944 22.5986 135.986C21.9957 136.033 21.4073 135.997 20.8183 135.843C19.4163 135.476 19.1707 134.362 20.7014 133.846C21.7702 133.486 23.7238 134.008 24.6217 133.315C25.6768 132.5 23.5445 132.388 23.0466 132.367C22.3836 132.339 20.1846 132.512 20.2969 131.277C20.3799 130.361 22.2729 130.3 22.9353 130.261C24.3503 130.178 26.1406 130.707 26.7523 129.002C26.9973 128.318 25.5216 127.971 25.1511 127.633C24.2512 126.809 23.9563 125.397 23.8788 124.24C23.8028 123.102 24.9228 119.158 23.2163 119.054C22.6924 119.022 21.8214 119.529 21.2998 119.674ZM105.226 142.434C104.222 143.63 103.354 144.939 102.418 146.189C104.612 147.399 106.856 148.373 109.125 149.413C110.156 149.887 110.879 150.262 111.878 149.544C112.594 149.029 113.131 148.298 113.83 147.762C114.834 146.993 115.884 146.289 116.914 145.556C113.875 144.447 110.79 143.474 107.753 142.363C106.616 141.948 106.046 141.457 105.226 142.434ZM80.2062 138.636C80.8559 139.295 79.605 141.12 79.3586 141.745C81.3735 141.585 83.3715 141.267 85.35 140.859C86.0236 140.72 85.7753 141.54 85.5232 141.81C85.2114 142.145 84.5879 142.246 84.1711 142.365C82.6376 142.805 81.0645 143.016 79.4907 143.251C80.211 144.137 81.944 145.523 81.3858 146.855C80.3794 145.988 79.6559 144.834 78.5426 144.085C78.2208 144.564 77.5536 146.257 76.8224 146.153C75.6741 145.99 76.8373 144.013 77.0773 143.536C76.3043 143.536 73.3993 144.215 72.9939 143.263C72.5792 142.29 75.3826 142.321 75.9008 142.091L75.8044 141.974L75.7072 141.857C75.3198 141.389 74.9477 140.929 74.8952 140.288C75.7621 140.586 76.3409 141.944 77.2936 141.964C78.1968 141.983 78.6001 140.626 78.9221 139.983C79.105 139.617 79.7264 138.15 80.2062 138.636ZM177.961 125.835C179.903 127.473 178.583 130.777 177.114 132.263C175.467 133.926 171.801 135.455 169.713 133.759C168.571 132.83 168.983 131.414 169.265 130.179C169.577 128.807 169.772 127.65 170.909 126.708C172.677 125.243 175.99 124.173 177.961 125.835ZM174.018 126.787C172.122 127.19 170.202 129.083 169.752 131.034C169.161 133.593 171.818 133.779 173.568 133.395C175.769 132.911 178.108 131.297 178.22 128.766C178.317 126.581 175.49 126.474 174.018 126.787ZM36.1196 115.726C33.2819 116.782 30.6145 118.227 27.637 118.853C26.7285 119.045 26.3552 119.254 26.1306 120.1C25.8158 121.284 25.5175 122.485 25.7423 123.723C26.2088 126.292 29.7851 125.977 31.771 125.876C32.7907 125.825 34.7516 126.011 35.6361 125.375C36.2824 124.91 36.0113 124.039 35.9105 123.361C35.5339 120.826 35.9448 118.259 36.1196 115.726ZM190.84 91.2404C189.795 91.4374 187.989 92.2888 189.487 93.3563C190.486 94.068 191.973 94.1545 193.147 94.3303C195.441 94.6737 197.889 94.9705 199.879 96.2639C203.567 98.6607 203.115 103.183 202.012 106.885C202.806 107.353 205.14 104.294 205.579 103.797C207.363 101.779 209.153 99.7678 210.95 97.7631C211.72 96.9058 205.413 93.9439 204.846 93.6773C201.85 92.2679 199.053 91.34 195.692 91.0981C194.098 90.9833 192.417 90.9431 190.84 91.2404ZM177.831 83.7384C177.545 84.4601 178.046 84.7871 178.507 85.2859C181.084 88.0726 182.898 92.0168 184.332 95.4762C185.048 97.2014 185.549 98.9408 185.992 100.748C186.426 102.522 187.807 102.996 189.461 103.499C193.271 104.659 197.282 105.047 201.105 106.192C202.129 106.499 202.33 104.247 202.394 103.676C202.577 102.051 202.408 100.355 201.553 98.9232C199.939 96.2159 196.703 95.6404 193.816 95.1791C192.165 94.9156 189.99 94.6433 188.684 93.5148C188.028 92.9483 187.935 92.2986 188.447 91.595C189.379 90.3115 191.021 90.1466 192.488 90.0418C193.202 89.991 197.626 90.438 197.771 89.9147C195.568 89.197 193.307 88.7237 191.137 87.9031C189.444 87.2627 187.737 86.6582 186.029 86.0589L184.321 85.4601C182.583 84.851 180.992 84.1099 179.325 83.3765C178.699 83.1011 178.125 82.9989 177.831 83.7384ZM215.193 95.48C214.641 96.2219 214.094 96.8445 213.68 97.6778C213.198 98.65 212.397 99.2702 211.728 100.105C215.203 100.718 218.519 101.497 221.867 102.62C223.586 103.197 225.362 103.481 227.12 103.894C228.595 104.241 230.167 104.778 231.694 104.46C229.955 102.064 225.315 102.726 224.094 99.8232C223.262 97.8484 225.305 96.2732 226.976 95.9305C229.893 95.3319 233.003 95.2858 235.967 95.0724C235.998 93.9389 225.241 93.352 224.177 93.2603C222.289 93.0968 220.318 92.7427 218.433 92.6774C216.683 92.6165 216.111 94.2453 215.193 95.48ZM174.145 87.1891C173.109 88.1904 172.094 89.2137 171.059 90.2165C170.379 90.8757 169.457 91.5779 168.92 92.3632C168.236 93.366 169.435 93.8482 170.235 94.3227C172.252 95.5209 174.338 96.6394 176.391 97.7791C178.235 98.803 180.154 100.106 182.19 100.705C183.279 101.026 184.301 101.523 185.351 101.943C184.845 97.3969 182.234 93.2674 179.826 89.4772C179.273 88.6068 178.702 87.7487 178.15 86.8785C177.871 86.4405 177.354 85.4066 176.77 85.3175C175.907 85.1854 174.668 86.6834 174.145 87.1891ZM226.937 98.7605C228.199 99.4836 229.464 99.851 230.887 99.3046C231.238 99.1618 231.584 99.0107 231.927 98.8517C230.978 97.5581 228.173 98.3465 226.937 98.7605ZM122.404 82.9383C120.167 83.9468 117.774 84.9515 115.828 86.4731C115.11 87.0348 113.505 88.2149 113.881 89.285C114.202 90.2013 115.979 90.9816 116.822 91.2609C121.261 92.7299 126.312 91.6613 130.398 94.3569C131.504 95.0865 131.865 96.0398 132.686 96.9992C133.429 97.8665 134.369 97.7589 135.368 97.3988C136.679 96.9262 137.887 96.2021 139.203 95.738C139.876 95.5009 141.02 95.3436 141.09 94.4356C141.419 90.1549 140.506 84.7016 136.732 82.0826C132.496 79.1427 126.652 81.024 122.404 82.9383ZM120.005 92.9133C119.897 93.4561 124.096 94.4387 124.552 94.5644C127.088 95.2628 129.456 96.9229 132.083 97.1907C132.539 96.1724 128.901 94.5511 128.326 94.342C125.701 93.3886 122.762 93.2156 120.005 92.9133ZM202.461 91.0123C205.644 92.3167 208.73 93.9138 211.398 96.1347C212.318 96.9005 214.554 93.266 215.055 92.7087C210.815 92.5324 206.637 91.7235 202.461 91.0123ZM142.962 65.445C140.011 67.3942 137.441 69.9433 134.201 71.4375C135.215 71.5972 136.322 70.9409 137.29 70.7106C138.233 70.4865 139.186 70.3387 140.104 70.0215C140.668 69.8266 142.997 68.5681 143.434 69.421C144.116 70.7534 139.307 71.6751 138.624 71.9023C136.315 72.6696 134.021 73.4733 131.735 74.3083C129.522 75.1172 127.31 75.9874 125.022 76.5682C122.699 77.1582 120.236 77.3101 118.002 78.2264C116.027 79.0364 114.33 80.3772 112.425 81.3234C110.514 82.2723 108.343 82.8592 106.696 84.2714C108.487 86.1822 110.604 87.7824 112.921 89.0005C113.292 86.0865 116.708 84.4273 119.045 83.3071C124.14 80.8653 131.791 77.1829 136.984 81.321C140.78 84.3453 141.294 90.0841 141.294 94.5768C142.322 94.2495 143.26 93.7289 144.215 93.2375C144.877 92.8967 144.884 91.9486 144.967 91.3153C145.104 90.2783 145.384 89.2738 145.706 88.2788C146.419 86.0781 147.311 83.9309 148.161 81.7808C149.536 78.3029 151.232 74.8727 152.077 71.2137C152.629 68.8257 153.286 64.7214 150.406 63.5361C147.915 62.5109 144.985 64.109 142.962 65.445ZM130.075 55.7254C129.593 56.0479 129.773 57.0153 129.806 57.5005C129.925 59.2654 129.85 61.0376 129.909 62.8056C129.981 64.9599 129.997 68.9103 132.219 70.1184C133.738 70.9444 135.628 69.7066 136.841 68.8635C138.893 67.4377 140.775 65.7819 142.855 64.3901C145.321 62.7398 149.994 60.4571 152.354 63.5615C153.631 65.2415 153.452 67.745 153.134 69.6997C152.713 72.2787 151.731 74.7249 150.755 77.1352C148.739 82.1121 146.635 87.1701 145.513 92.4381C148.07 90.9192 150.057 88.7299 152.288 86.8067C153.942 85.3812 156.398 83.7439 156.779 81.4208C156.865 80.8961 157.374 80.5224 157.723 80.1714C158.177 79.7144 158.498 79.2517 158.786 78.6691C159.422 77.3818 159.835 75.9915 160.096 74.5828C160.642 71.6276 160.382 68.686 159.878 65.7482C159.65 64.4196 159.984 62.994 159.674 61.699C159.459 60.7998 158.825 60.853 157.98 60.6484C154.94 59.912 151.894 59.1979 148.851 58.4681C147.616 58.1716 146.272 57.6153 144.989 57.6338C143.936 57.649 143.051 58.2768 142.142 58.7317C140.65 59.4783 138.278 60.7843 136.565 60.042C134.568 59.1768 136.895 57.2234 135.893 56.2993C135.207 55.6655 133.155 56.0455 132.224 55.8882C131.714 55.8019 130.542 55.412 130.075 55.7254ZM161.495 81.2464C160.043 81.4753 159.202 82.105 158.402 83.3406C157.589 84.5968 157.493 85.2186 158.651 86.2015C159.901 87.2613 161.209 88.3083 162.536 89.2629C164.217 90.4726 166.083 91.3885 167.745 92.628C168.473 93.1709 171.777 88.9152 172.35 88.3318C173.141 87.5267 173.953 86.7195 174.801 85.9783C175.111 85.7077 176.083 85.0799 176.084 84.6193C176.085 83.4552 173.503 82.4137 172.673 82.0931C170.811 81.3754 168.86 81.0855 166.877 81.0556C165.119 81.029 163.236 80.9717 161.495 81.2464ZM167.966 76.1255C166.602 76.8493 165.178 77.4593 163.806 78.1682C163.32 78.4193 160.251 79.7085 160.406 80.4789C163.859 80.26 167.298 79.6757 170.74 80.3441C172.286 80.6445 173.759 81.1478 175.051 82.0767C176.03 82.7796 176.776 84.1305 177.747 82.9281C175.764 81.8044 173.978 80.3147 172.219 78.8682C171.449 78.2352 170.657 77.6397 169.875 77.0237C169.411 76.6575 168.644 75.7655 167.966 76.1255ZM86.2784 59.2982C85.1981 59.4498 84.1452 59.7361 83.0842 59.9818C78.7859 60.9773 74.4712 61.871 70.1844 62.9244C61.6338 65.0253 52.8274 67.0513 44.6743 70.4174C45.3599 71.1752 47.1763 70.6262 48.0271 70.4777C49.6926 70.1866 51.3087 69.6783 52.9541 69.2946C54.5633 68.9193 56.1785 68.4719 57.801 68.1592C58.5484 68.0152 59.8665 67.8255 59.8967 68.9457C59.9395 70.534 56.8536 71.7217 55.7208 72.3022C54.5096 72.9229 53.3371 73.609 52.1842 74.3309C51.2726 74.9017 49.5916 75.6623 49.296 76.7965C52.254 75.5435 55.2137 74.2957 58.1532 73.0004C59.2605 72.5123 60.3824 72.0527 61.4365 71.4575C62.1394 71.0604 63.0441 70.3639 63.8763 70.3014C65.0034 70.2166 65.1901 71.2396 64.7151 72.0651C64.121 73.0985 62.8949 73.6817 61.9928 74.4048C60.8432 75.327 59.8256 76.4149 58.7903 77.4588C57.931 78.3252 56.8244 79.1783 56.3757 80.3498C57.9206 80.8664 59.6759 79.2104 60.8111 78.3918C62.595 77.1055 64.2567 75.7063 65.9586 74.3162C66.8293 73.6049 67.867 72.4534 69.0131 72.2409C70.4653 71.9717 70.345 73.6318 69.9926 74.5469C69.2056 76.5924 67.3628 78.2979 67.2311 80.6039C67.1501 82.0235 68.3527 81.4831 69.155 80.9137C70.5062 79.9547 71.4206 78.4932 72.6467 77.3935C75.5998 74.7444 78.9798 72.4848 82.6327 70.9154C83.2864 70.6346 83.5214 69.6263 83.7203 69.0203C84.0169 68.1159 84.3581 67.2391 84.7145 66.3551C85.4956 64.4186 86.1363 62.3258 87.2308 60.5372C87.5359 60.0384 88.3234 59.5299 87.6721 59.2366C87.318 59.0772 86.6441 59.2468 86.2784 59.2982ZM117.46 56.0227C116.354 56.1517 115.234 56.1401 114.126 56.257C112.316 56.4476 113.105 58.6483 112.814 59.9742C111.956 63.8775 107.818 64.6147 104.683 62.7733C102.919 61.737 101.86 60.2518 100.911 58.5145C100.37 57.524 99.9673 57.3648 98.8485 57.6127C98.0807 57.7828 97.3821 57.7467 96.601 57.8032C95.618 57.8745 95.5324 58.0829 95.5122 59.0182C95.4946 59.849 95.3751 60.4243 94.8221 61.0973C93.768 62.3788 92.0005 63.2226 90.4949 63.8666C88.9864 64.512 87.2776 64.9918 86.4492 66.5171C86.0315 67.2861 85.584 68.2041 85.4631 69.0783C85.3309 70.0334 85.6551 70.626 85.0981 71.5069C83.9403 73.3386 83.4097 75.3401 82.8242 77.4215C82.6334 78.0995 82.558 78.3784 83.2983 78.565C84.3605 78.8326 85.8689 78.4264 86.9587 78.3837C87.7365 78.3533 88.1906 76.9824 88.4432 76.427C88.9346 75.3468 89.5372 74.3242 90.1406 73.302C91.5079 70.9863 92.97 68.686 94.7561 66.6626C96.1044 65.1356 98.0948 63.2345 99.8209 65.3803C101.503 67.4717 102.716 69.921 104.739 71.7441C106.519 73.3473 108.353 73.373 110.198 71.8534C112.015 70.3575 113.396 68.3162 114.525 66.2798C115.747 64.0776 116.668 61.7265 117.858 59.5111C118.231 58.8167 119.954 56.9383 119.429 56.1337C119.075 55.5902 117.958 55.9647 117.46 56.0227ZM126.727 55.5424C125.753 55.5883 124.773 55.479 123.799 55.4595C122.036 55.4246 120.562 55.4864 119.677 57.1752C118.895 58.6658 118.23 60.2516 117.517 61.7779C115.967 65.0935 114.448 68.4864 112.069 71.3078C109.962 73.8074 107.24 75.0668 104.499 72.6789C103.284 71.62 102.36 70.2541 101.488 68.9115C100.789 67.835 99.9911 65.9407 98.8198 65.3131C97.5138 64.6135 96.0186 66.2182 95.2202 67.0891C93.8778 68.5532 92.7559 70.2748 91.6785 71.9372C90.897 73.1432 90.1489 74.3744 89.3892 75.5941C89.0815 76.0889 87.8275 77.7069 88.2448 78.3233C88.6635 78.9412 90.7064 78.5187 91.2974 78.4621C92.7087 78.3276 94.1183 78.2791 95.5303 78.1575C99.9224 77.7799 104.249 76.8148 108.653 76.5573C111.553 76.3874 114.411 75.8268 117.267 75.3175C120.043 74.8223 122.837 74.4844 125.584 73.83C127.199 73.445 128.816 73.0598 130.428 72.6606C130.986 72.5225 133.622 72.1459 133.786 71.4211C131.971 71.1044 131.017 70.4003 130.374 68.6297C129.568 66.4119 129.474 63.9405 129.405 61.6039C129.379 60.705 129.375 59.8058 129.374 58.9063V57.8275C129.374 57.1826 129.652 56.0122 129.071 55.565C128.533 55.1511 127.35 55.5125 126.727 55.5424ZM162.76 69.8632C162.836 72.7854 162.313 75.7305 161.113 78.4003C162.369 78.6013 163.862 77.0261 164.916 76.4986C165.322 76.2952 168.008 75.319 167.108 74.5726C165.453 73.2 164.368 71.2823 162.76 69.8632ZM198.768 72.2395C199.137 72.9662 198.682 73.8884 198.435 74.5776C200.352 75.0381 202.26 75.4903 204.19 75.8812C205.645 76.1756 205.138 77.0482 203.875 76.9881C202.118 76.9044 200.484 76.1604 198.736 76.0637C197.072 75.9717 196.875 77.4251 195.456 77.705C195.504 76.9054 196.151 76.35 196.616 75.75C195.85 75.357 195.067 74.9917 194.324 74.5588C193.939 74.3345 192.876 73.3939 193.285 72.8942C193.699 72.3897 194.782 73.335 195.168 73.5432C195.716 73.8392 196.811 74.4915 197.456 74.3045C198.339 74.0481 198.155 72.7799 198.768 72.2395ZM171.16 53.1999C170.383 53.2538 169.537 52.9924 168.801 53.3344C168.067 53.6756 167.19 54.4225 166.577 54.9403C165.982 55.4417 165.687 56.0505 164.948 56.3466C164.209 56.6424 163.453 56.6163 163.169 57.5188C163.838 57.7025 165.153 57.4589 165.678 57.9511C166.441 58.6673 165.109 59.4555 164.557 59.681C163.765 60.0042 163.117 59.8994 162.308 59.8385C161.955 59.8124 161.959 59.7041 161.67 59.8787C160.6 60.5255 161.34 62.827 161.687 63.6668C163.386 67.7761 169.191 66.3922 172.538 65.9713C171.473 64.8984 169.729 63.7148 169.641 62.0293C169.614 61.5274 169.739 60.6306 170.383 60.5887C170.898 60.5555 171.517 61.3337 171.838 61.6405C172.789 62.5494 174.019 64.0572 175.395 64.1877C177.233 64.3621 178.648 61.3841 179.411 60.0854C178.473 59.9094 177.447 59.9198 176.902 59.0002C176.254 57.9073 176.243 56.2332 176.254 55.0028C176.264 53.9553 176.598 52.8092 175.197 52.7576C173.907 52.7104 172.463 53.1096 171.16 53.1999ZM47.6939 55.8868C47.4261 56.4711 46.2619 56.7002 45.7508 56.8565C43.8067 57.4501 41.9086 58.2044 40.0132 58.9441C36.1869 60.4376 32.4024 62.0872 28.9083 64.282C28.2553 64.6926 28.5754 63.9008 28.7448 63.6154C29.125 62.9755 29.9239 62.5226 30.5206 62.1307C32.1353 61.0695 33.8455 60.324 35.6308 59.6142C39.2034 58.1941 42.8303 56.6885 46.4941 55.5382C46.9192 55.4046 48.0539 55.1016 47.6939 55.8868ZM92.0711 58.7804C91.3608 58.8538 90.5289 58.6925 89.8459 58.9241C88.9558 59.2262 89.1026 59.8374 88.8391 60.5887C88.3923 61.8641 87.914 63.129 87.4478 64.3977C89.1737 64.3172 90.8266 62.951 92.2895 62.1647C93.1174 61.7194 95.9963 60.242 95.1282 58.8895C94.5786 58.0333 92.8598 58.6986 92.0711 58.7804ZM111.714 56.5569C110.645 56.5374 109.47 56.861 108.388 56.9147C106.938 56.9867 105.51 57.2626 104.061 57.3294C103.109 57.3734 102.173 57.5692 101.23 57.6975C102.168 59.8704 103.999 61.771 106.299 62.558C108.114 63.1789 110.654 63.2844 111.894 61.5664C112.607 60.5778 113.773 56.5939 111.714 56.5569ZM167.365 47.5814C166.2 48.3555 165.265 49.4648 164.292 50.4545C161.854 52.9333 159.33 55.5871 158.275 58.985C158.13 59.4503 159.229 59.8616 159.527 59.8797C160.155 59.9177 160.283 59.6004 160.53 59.0693C161.141 57.7538 161.375 56.2841 162.353 55.1625C163.544 53.7949 164.978 52.4616 166.361 51.2867C167.3 50.4883 169.603 49.3643 169.873 48.0443C170.192 46.484 168.071 47.1127 167.365 47.5814ZM137.304 56.6103C136.645 56.8021 136.592 57.4119 136.442 58.0689C135.836 60.7085 141.962 57.8284 142.816 57.3969C142.532 56.5495 139.74 56.704 139.093 56.6707C138.589 56.645 137.79 56.4687 137.304 56.6103ZM173.494 57.9815C172.586 58.0164 173.005 54.3084 174.037 54.6813C174.922 55.0013 174.076 57.9587 173.494 57.9815ZM45.8625 53.7179C44.4723 54.9177 42.2897 55.0786 40.5614 55.4638C38.0145 56.0312 35.4897 56.7546 32.9634 57.4074C31.3682 57.8194 32.2662 56.8366 33.0651 56.4675C34.4384 55.8323 35.9932 55.494 37.4611 55.1446C39.0501 54.7663 40.6741 54.5137 42.2541 54.1012C43.3481 53.8153 44.7592 53.0842 45.8625 53.7179ZM89.1109 27.9298C90.6558 28.2133 92.198 28.7076 93.5522 29.5167C94.6734 30.1868 94.6289 31.2291 93.2077 30.6243C86.5776 27.8024 78.3508 29.5117 71.8766 32.0104C71.1623 32.286 71.2155 31.6848 71.4315 31.2215C71.7285 30.583 72.3639 30.2125 72.9737 29.9159C74.8061 29.0251 76.9184 28.521 78.9107 28.151C82.2311 27.5342 85.7748 27.3174 89.1109 27.9298ZM90.0798 23.8766C90.9221 24.1049 91.89 24.6717 92.4052 25.3907C93.0083 26.2319 92.5288 26.6621 91.6921 26.1673C90.7582 25.6151 89.9041 25.0645 88.8324 24.7727C88.2664 24.6189 88.2894 24.2641 88.6958 23.9526C89.0762 23.6609 89.6667 23.7644 90.0798 23.8766Z" fill="#343439"/>
</g>
<defs>
<clipPath id="clip0_1689_767">
<rect width="243" height="170" fill="white"/>
</clipPath>
</defs>
</svg>
