<svg width="31" height="31" viewBox="0 0 31 31" fill="none" xmlns="http://www.w3.org/2000/svg">
<path d="M15.0417 0C6.75374 0 0 6.75374 0 15.0417C0 23.3298 6.75374 30.0835 15.0417 30.0835C23.3298 30.0835 30.0835 23.3298 30.0835 15.0417C30.0835 6.75374 23.3298 0 15.0417 0ZM22.3069 20.3815C21.8406 20.9682 19.3437 23.9014 15.1019 23.9014H15.0267C10.9203 23.8713 8.43842 21.0584 7.98716 20.4869C7.59608 20.0055 7.67129 19.2986 8.15262 18.9075C8.63396 18.5164 9.34093 18.5765 9.73201 19.0729C10.078 19.4941 11.9582 21.615 15.0568 21.6451H15.1019C18.366 21.6451 20.3214 19.2534 20.532 18.9827C20.9231 18.5013 21.63 18.4111 22.1114 18.7871C22.6077 19.1782 22.698 19.8852 22.3069 20.3815ZM9.62671 10.1381C10.6796 10.1381 11.537 10.9805 11.537 12.0334C11.537 13.0863 10.6796 13.9287 9.62671 13.9287C8.58883 13.9287 7.73146 13.0863 7.73146 12.0334C7.73146 10.9805 8.58883 10.1381 9.62671 10.1381ZM18.5465 12.0334C18.5465 10.9805 19.4039 10.1381 20.4568 10.1381C21.5097 10.1381 22.352 10.9805 22.352 12.0334C22.352 13.0863 21.5097 13.9287 20.4568 13.9287C19.4039 13.9287 18.5465 13.0863 18.5465 12.0334Z" fill="#0066F4"/>
</svg>
