<svg width="375" height="811" viewBox="0 0 375 811" fill="none" xmlns="http://www.w3.org/2000/svg">
<g clip-path="url(#clip0_1567_1810)">
<path d="M0 812L375 812L375 0.00012207L7.09873e-05 8.92868e-05L0 812Z" fill="#0066F4"/>
<path d="M-41.403 95.4703C52.2449 117.564 150.005 128.104 245.881 115.132C289.749 109.355 333.017 98.3081 375 81.2816L375 0.000488281L-347.965 0.000425078C-248.662 33.648 -150.216 69.0185 -50.1423 93.4434C-47.2292 94.1528 -44.3161 94.7609 -41.403 95.4703Z" fill="#167AFF"/>
<path d="M-995.874 810.818L375 810.818L375 81.3149C333.017 98.3414 289.749 109.49 245.881 115.267C150.005 128.138 52.2449 117.699 -41.403 95.6049C-44.3161 94.8955 -47.2292 94.1861 -50.1423 93.578C-150.216 69.2544 -248.662 33.7826 -347.965 0.135008L-995.874 0.134951L-995.874 810.818Z" fill="#378FFF"/>
<path d="M-34.8913 221.986C-37.633 221.175 -40.3748 220.263 -43.0309 219.452C-211.134 166.245 -376.068 84.1526 -551.54 40.4716C-700.793 3.3782 -850.99 10.8779 -995.874 50.809L-995.874 810.818L375 810.818L375 228.168C330.19 246.005 283.751 256.242 236.97 259.485C145.036 266.174 53.1017 249.147 -34.8913 221.986Z" fill="#57A4FF"/>
<path d="M375 810.818L375 375.63C327.362 394.278 277.754 403.298 228.145 403.703C140.067 404.514 54.0441 380.697 -28.294 348.468C-30.8644 347.455 -33.3491 346.441 -35.9195 345.428C-193.227 282.592 -349.25 197.358 -517.782 150.738C-677.746 106.449 -840.194 115.874 -995.789 163.508L-995.789 810.818L375 810.818Z" fill="#78B7FF"/>
<path d="M219.234 547.921C135.097 541.841 54.8152 512.247 -21.7823 474.849C-24.1814 473.735 -26.4947 472.518 -28.8937 471.404C-175.406 398.838 -322.518 310.767 -484.11 260.904C-654.441 208.405 -829.741 219.554 -995.874 275.903L-995.874 810.818L375 810.818L375 523.801C324.449 543.665 271.67 551.671 219.234 547.921Z" fill="#99CAFF"/>
<path d="M-995.874 810.818L375 810.818L375 672.681C321.622 693.862 265.587 700.551 210.324 692.14C130.128 679.876 55.6721 643.796 -15.2707 601.332C-17.4983 600.014 -19.6403 598.697 -21.868 597.379C-157.585 515.186 -295.786 424.175 -450.523 371.17C-630.879 309.348 -819.631 321.51 -995.96 387.994L-995.96 810.818L-995.874 810.818Z" fill="#A3CFFF"/>
<path d="M-14.7446 723.356C-139.666 631.433 -268.956 537.889 -416.753 481.438C-595.481 413.129 -786.29 419.818 -963.304 486.809C-974.271 490.965 -985.067 495.323 -995.948 499.883L-995.948 810.819L128.169 810.819C80.1884 789.232 35.0353 759.537 -8.66135 727.714C-10.7177 726.295 -12.6883 724.775 -14.7446 723.356Z" fill="#ADD4FF"/>
</g>
<defs>
<clipPath id="clip0_1567_1810">
<rect width="375" height="811" fill="white" transform="translate(375 811) rotate(-180)"/>
</clipPath>
</defs>
</svg>
