<svg width="199" height="199" viewBox="0 0 199 199" fill="none" xmlns="http://www.w3.org/2000/svg">
<path d="M1.22962 73.112L1.23075 73.1078C1.7077 71.3208 2.90195 69.7714 4.61216 68.3183C6.32649 66.8617 8.48096 65.5663 10.7742 64.2591C11.1682 64.0345 11.5667 63.8093 11.9671 63.5831C13.8672 62.5096 15.8122 61.4106 17.5399 60.2223C19.6324 58.7829 21.5129 57.1437 22.6789 55.1269C23.8441 53.1114 24.3338 50.6593 24.546 48.1209C24.723 46.0033 24.7115 43.7389 24.7002 41.5292C24.698 41.0902 24.6958 40.6534 24.695 40.2204C24.6906 37.5737 24.7412 35.0555 25.143 32.8448C25.5441 30.6377 26.2778 28.843 27.5577 27.563C28.838 26.2827 30.6404 25.5436 32.8578 25.1355C35.0778 24.727 37.6073 24.6682 40.2603 24.6664C40.7179 24.6661 41.1796 24.6675 41.6434 24.6689C43.8345 24.6756 46.0742 24.6825 48.1632 24.5091C50.6935 24.2992 53.1328 23.8182 55.1212 22.6701C57.111 21.5212 58.739 19.6481 60.175 17.5611C61.3522 15.8502 62.4485 13.921 63.5219 12.0321C63.758 11.6166 63.993 11.2031 64.2275 10.7942C65.5452 8.49705 66.8541 6.33493 68.3202 4.61421C69.7831 2.89711 71.337 1.69884 73.1162 1.2219C74.8217 0.767907 76.711 1.03567 78.806 1.79818C80.9034 2.56156 83.1001 3.7799 85.3915 5.10917C85.7231 5.30155 86.0569 5.49634 86.3923 5.69211C88.3456 6.83219 90.3561 8.00564 92.3415 8.93209C94.6682 10.0178 97.065 10.8168 99.4307 10.8168C101.796 10.8168 104.193 10.0178 106.52 8.93209C108.505 8.00566 110.516 6.83223 112.469 5.69218C112.805 5.49638 113.138 5.30158 113.47 5.10917C115.761 3.7799 117.958 2.56156 120.055 1.79818C122.15 1.03571 124.039 0.767937 125.745 1.22182C127.532 1.69882 129.081 2.89303 130.534 4.60314C131.991 6.31747 133.286 8.47194 134.593 10.7652C134.818 11.1592 135.043 11.5577 135.269 11.9582C136.343 13.8582 137.442 15.8033 138.63 17.5309C140.07 19.6234 141.709 21.5039 143.726 22.6698C145.741 23.835 148.193 24.3248 150.731 24.537C152.849 24.714 155.114 24.7025 157.323 24.6912C157.762 24.689 158.199 24.6868 158.632 24.686C161.279 24.6816 163.797 24.7322 166.008 25.1339C168.215 25.5351 170.009 26.2687 171.289 27.5487C172.57 28.829 173.309 30.6314 173.717 32.8488C174.125 35.0688 174.184 37.5983 174.186 40.2513C174.186 40.7089 174.185 41.1707 174.184 41.6346C174.177 43.8256 174.17 46.0653 174.343 48.1542C174.553 50.6845 175.034 53.1238 176.182 55.1122C177.331 57.102 179.204 58.73 181.291 60.166C183.002 61.3432 184.931 62.4395 186.82 63.5129C187.236 63.749 187.649 63.984 188.058 64.2185C190.355 65.5362 192.518 66.8451 194.238 68.3112C195.955 69.7741 197.154 71.328 197.631 73.1072C198.085 74.8128 197.817 76.7048 197.054 78.8035C196.291 80.9043 195.072 83.1052 193.743 85.399C193.547 85.7369 193.349 86.0769 193.15 86.4186C192.013 88.368 190.844 90.3729 189.921 92.3503C188.835 94.6742 188.036 97.0661 188.036 99.4217C188.036 101.778 188.838 104.17 189.927 106.494C190.85 108.465 192.018 110.464 193.154 112.407C193.358 112.755 193.56 113.101 193.76 113.445C195.091 115.739 196.311 117.939 197.072 120.039C197.832 122.137 198.095 124.027 197.632 125.731L197.631 125.736C197.154 127.523 195.96 129.072 194.249 130.525C192.535 131.982 190.381 133.277 188.087 134.584C187.693 134.809 187.295 135.034 186.894 135.26C184.994 136.334 183.049 137.433 181.322 138.621C179.229 140.06 177.349 141.7 176.183 143.717C175.017 145.732 174.528 148.184 174.315 150.722C174.138 152.84 174.15 155.104 174.161 157.314C174.163 157.753 174.166 158.19 174.166 158.623C174.171 161.27 174.12 163.788 173.719 165.999C173.317 168.206 172.584 170 171.304 171.28C170.023 172.561 168.221 173.3 166.004 173.708C163.784 174.116 161.254 174.175 158.601 174.177C158.144 174.177 157.682 174.176 157.218 174.174C155.027 174.168 152.787 174.161 150.698 174.334C148.168 174.544 145.729 175.025 143.74 176.173C141.75 177.322 140.122 179.195 138.686 181.282C137.509 182.993 136.413 184.923 135.339 186.811C135.103 187.227 134.868 187.64 134.634 188.049C133.316 190.346 132.007 192.508 130.541 194.229C129.078 195.946 127.524 197.145 125.745 197.621C124.04 198.075 122.15 197.808 120.055 197.045C117.958 196.282 115.761 195.064 113.47 193.734C113.138 193.542 112.805 193.347 112.469 193.151C110.516 192.011 108.505 190.838 106.52 189.911C104.193 188.826 101.796 188.027 99.4307 188.027C97.065 188.027 94.6682 188.826 92.3415 189.911C90.356 190.838 88.3455 192.011 86.3921 193.151C86.0567 193.347 85.7231 193.542 85.3915 193.734C83.1001 195.064 80.9034 196.282 78.806 197.045C76.7113 197.808 74.8222 198.075 73.1168 197.622C71.3298 197.145 69.7804 195.95 68.3273 194.24C66.8707 192.526 65.5753 190.371 64.2681 188.078C64.0435 187.684 63.8183 187.286 63.592 186.885C62.5185 184.985 61.4196 183.04 60.2313 181.313C58.792 179.22 57.1527 177.34 55.1359 176.174C53.1205 175.008 50.6683 174.519 48.13 174.306C46.0123 174.129 43.7478 174.141 41.5381 174.152C41.0992 174.154 40.6624 174.157 40.2294 174.157C37.5827 174.162 35.0645 174.111 32.8538 173.709C30.6467 173.308 28.852 172.575 27.572 171.295C26.2917 170.014 25.5526 168.212 25.1446 165.995C24.736 163.775 24.6772 161.245 24.6754 158.592C24.6751 158.135 24.6765 157.673 24.6779 157.209C24.6846 155.018 24.6915 152.778 24.5182 150.689C24.3082 148.159 23.8272 145.72 22.6791 143.731C21.5302 141.741 19.6571 140.113 17.5701 138.677C15.8592 137.5 13.9299 136.404 12.0409 135.33C11.6255 135.094 11.212 134.859 10.8032 134.625C8.50606 133.307 6.34395 131.998 4.62322 130.532C2.90612 129.069 1.70786 127.515 1.23092 125.736C0.776914 124.031 1.04467 122.139 1.80736 120.04C2.57082 117.939 3.78929 115.738 5.11843 113.444C5.31417 113.107 5.51239 112.767 5.71161 112.425C6.84835 110.476 8.01743 108.471 8.94094 106.493C10.0263 104.169 10.8258 101.777 10.8258 99.4217C10.8258 97.0653 10.0231 94.673 8.93441 92.3492C8.01101 90.3782 6.843 88.3796 5.70722 86.4362C5.5039 86.0883 5.30161 85.7421 5.10194 85.3982C3.7702 83.1045 2.55081 80.9042 1.78958 78.8042C1.02921 76.7067 0.766763 74.8163 1.22962 73.112Z" fill="#0066F4" stroke="#003780" stroke-width="2"/>
<path d="M65.8799 88.3191L65.8814 88.3207L96.2777 120.515L97.1263 121.414L97.828 120.396L136.216 64.7412L136.23 64.7206L136.243 64.6993C136.521 64.2503 136.887 63.8624 137.319 63.5591C137.751 63.2559 138.24 63.0437 138.757 62.9354C139.274 62.8271 139.807 62.8249 140.324 62.9291C140.842 63.0332 141.333 63.2415 141.767 63.5412L142.335 62.718L141.767 63.5412C142.202 63.8409 142.571 64.2258 142.852 64.6726C143.133 65.1193 143.321 65.6186 143.403 66.14C143.486 66.6615 143.461 67.1942 143.331 67.7058C143.201 68.2175 142.969 68.6974 142.648 69.1164L142.632 69.1363L142.618 69.1568L98.0678 133.742L60.2019 93.6565C60.2016 93.6561 60.2013 93.6558 60.2009 93.6554C59.4938 92.9026 59.1145 91.8998 59.1464 90.8673C59.1783 89.8344 59.6193 88.8566 60.3722 88.1488C61.1252 87.441 62.1285 87.0613 63.1614 87.0933C64.1943 87.1252 65.1722 87.5662 65.8799 88.3191Z" fill="white" stroke="#003780" stroke-width="2"/>
</svg>
