<svg width="51" height="51" viewBox="0 0 51 51" fill="none" xmlns="http://www.w3.org/2000/svg">
<path d="M0.155769 22.6967C-0.279831 26.635 0.208332 30.6207 1.58154 34.3375C2.95474 38.0542 5.17519 41.3999 8.06674 44.109C10.9583 46.818 14.3798 48.6701 18.1781 49.7985C21.9548 51.2577 31.4823 51.086 35.0015 49.1118L32.5123 38.3826C30.2806 40.0135 23.8431 40.1898 21.3568 39.4512C19.189 38.8072 17.2011 37.6669 15.5508 36.1208C13.9005 34.5746 12.6333 32.6651 11.8495 30.5438C11.0658 28.4226 10.7872 26.1478 11.0358 23.9001L0.155769 22.6967Z" fill="#0066F4"/>
<path d="M22.1954 0.20298C16.4604 1.13113 9.66745 4.71512 5.99775 9.07132C2.32805 13.4275 0.222466 18.8869 0.0167065 24.5791L10.9559 24.9745C11.0734 21.7258 12.2751 18.61 14.3695 16.1238C16.4639 13.6375 20.752 11.2595 24.4429 10.9161L23.3191 5.55956L22.1954 0.20298Z" fill="#0066F4"/>
<path d="M45.7531 10.0031C43.1544 6.53847 38.1584 2.92941 34.0042 1.45986C29.85 -0.00968742 25.3858 -0.377653 21.047 0.391834L22.9586 11.17C25.4348 10.7308 27.9827 10.9409 30.3536 11.7796C32.7246 12.6183 36.2019 15.2935 37.4893 17.1818L45.7531 10.0031Z" fill="#0066F4"/>
<path d="M49.6867 33.5783C51.0474 29.5043 51.3569 25.1526 50.5865 20.927C49.8162 16.7015 47.991 12.7389 45.2802 9.40715L36.7892 16.3155C38.3363 18.217 39.378 20.4786 39.8176 22.8902C40.2573 25.3019 40.0806 27.7856 39.3041 30.1107L49.6867 33.5783Z" fill="#0066F4"/>
<path d="M33.477 49.7202C37.5316 48.3847 41.1861 46.0528 44.1054 42.9381C47.0247 39.8234 49.1153 36.0256 50.1856 31.8931L39.5888 29.1487C38.978 31.5073 37.7848 33.6748 36.1187 35.4524C34.4525 37.2301 32.3668 38.561 30.0527 39.3232L33.477 49.7202Z" fill="#0066F4"/>
</svg>
