<svg width="51" height="55" viewBox="0 0 51 55" fill="none" xmlns="http://www.w3.org/2000/svg">
<path d="M0.155792 24.7825C-0.279808 28.9488 0.208355 33.1652 1.58156 37.0971C2.95476 41.029 5.17521 44.5683 8.06676 47.4341C10.9583 50.3 14.3798 52.2593 18.1781 53.453C21.9548 54.9966 31.4823 54.815 35.0015 52.7266L32.5123 41.3764C30.2806 43.1016 23.8431 43.2881 21.3569 42.5068C19.1891 41.8255 17.2012 40.6192 15.5509 38.9836C13.9006 37.3479 12.6333 35.3279 11.8496 33.0839C11.0658 30.8398 10.7872 28.4334 11.0358 26.0556L0.155792 24.7825Z" fill="#0066F4"/>
<path d="M22.1954 0.98687C16.4604 1.96874 9.66747 5.76018 5.99777 10.3685C2.32808 14.9769 0.222488 20.7523 0.0167294 26.7739L10.956 27.1923C11.0734 23.7555 12.2751 20.4593 14.3695 17.8292C16.4639 15.199 20.7521 12.6833 24.4429 12.3201L23.3191 6.6535L22.1954 0.98687Z" fill="#0066F4"/>
<path d="M45.7531 11.3543C43.1544 7.68908 38.1585 3.87112 34.0042 2.31651C29.85 0.761902 25.3859 0.372637 21.0471 1.18666L22.9586 12.5887C25.4349 12.1241 27.9827 12.3463 30.3537 13.2336C32.7246 14.1208 36.2019 16.9508 37.4893 18.9485L45.7531 11.3543Z" fill="#E1F5FF"/>
<path d="M49.6867 36.2941C51.0474 31.9842 51.3569 27.3807 50.5865 22.9105C49.8162 18.4404 47.991 14.2485 45.2802 10.7238L36.7892 18.032C38.3363 20.0437 39.378 22.4361 39.8176 24.9874C40.2573 27.5386 40.0806 30.166 39.3041 32.6258L49.6867 36.2941Z" fill="#E1F5FF"/>
<path d="M33.477 53.3702C37.5316 51.9575 41.1861 49.4905 44.1054 46.1956C47.0247 42.9006 49.1153 38.883 50.1856 34.5113L39.5888 31.608C38.978 34.1031 37.7848 36.3961 36.1187 38.2766C34.4525 40.1572 32.3668 41.5651 30.0527 42.3714L33.477 53.3702Z" fill="#E1F5FF"/>
</svg>
