<svg width="51" height="52" viewBox="0 0 51 52" fill="none" xmlns="http://www.w3.org/2000/svg">
<path d="M0.156258 23.5072C-0.279343 27.4456 0.20882 31.4312 1.58202 35.148C2.95523 38.8647 5.17568 42.2103 8.06723 44.9194C10.9588 47.6285 14.3803 49.4806 18.1786 50.6089C21.9553 52.0681 31.4828 51.8964 35.002 49.9223L32.5128 39.1931C30.2811 40.8239 23.8436 41.0003 21.3573 40.2617C19.1895 39.6177 17.2016 38.4774 15.5513 36.9312C13.901 35.3851 12.6338 33.4756 11.85 31.3544C11.0663 29.2331 10.7877 26.9583 11.0363 24.7106L0.156258 23.5072Z" fill="#0066F4"/>
<path d="M22.1959 1.01362C16.4608 1.94177 9.66794 5.52574 5.99824 9.88193C2.32854 14.2381 0.222954 19.6975 0.0171947 25.3897L10.9564 25.7851C11.0739 22.5364 12.2756 19.4206 14.37 16.9343C16.4644 14.4481 20.7525 12.0701 24.4434 11.7267L23.3196 6.37019L22.1959 1.01362Z" fill="#E1F5FF"/>
<path d="M45.7529 10.8137C43.1543 7.34912 38.1583 3.74007 34.0041 2.27053C29.8498 0.800987 25.3857 0.433023 21.0469 1.20251L22.9584 11.9807C25.4347 11.5415 27.9826 11.7515 30.3535 12.5902C32.7245 13.4289 36.2018 16.1041 37.4892 17.9924L45.7529 10.8137Z" fill="#E1F5FF"/>
<path d="M49.6867 34.3889C51.0474 30.3149 51.3569 25.9632 50.5865 21.7376C49.8162 17.5121 47.991 13.5496 45.2802 10.2178L36.7892 17.1261C38.3363 19.0276 39.378 21.2892 39.8176 23.7008C40.2573 26.1125 40.0806 28.5961 39.3041 30.9213L49.6867 34.3889Z" fill="#E1F5FF"/>
<path d="M33.477 50.5306C37.5316 49.1952 41.1861 46.8632 44.1054 43.7485C47.0247 40.6339 49.1153 36.8361 50.1856 32.7036L39.5888 29.9592C38.978 32.3178 37.7848 34.4853 36.1187 36.2629C34.4525 38.0406 32.3668 39.3715 30.0527 40.1336L33.477 50.5306Z" fill="#E1F5FF"/>
</svg>
