<svg width="31" height="31" viewBox="0 0 31 31" fill="none" xmlns="http://www.w3.org/2000/svg">
<path d="M-68.2948 33.7591L-69.0318 37.07C-69.13 37.3246 -69.13 37.5369 -69.13 37.7915C-69.13 38.5131 -68.6387 38.8527 -67.9509 38.8527C-67.0665 38.8527 -66.4277 38.3434 -66.1821 37.07L-65.3959 33.7591H-64.6098L-65.3468 37.07C-65.6907 38.7254 -66.6243 39.4045 -68 39.4045C-69.13 39.4045 -69.9162 38.8952 -69.9162 37.7491L-69.867 36.9426L-69.1792 33.7166H-68.2948V33.7591ZM-63.4798 39.4045L-62.8902 36.5606C-62.7428 36.0937 -62.7428 35.7116 -62.6445 35.3721H-61.9566L-62.104 36.1361C-61.711 35.5419 -61.0722 35.2447 -60.3844 35.2447C-59.8439 35.2447 -59.2543 35.5419 -59.2543 36.3484L-59.3035 37.0275L-59.8439 39.3196H-60.6792L-60.1878 37.0275L-60.1387 36.4757C-60.1387 36.0937 -60.3352 35.7965 -60.8757 35.7965C-61.4162 35.7965 -62.2514 36.3484 -62.448 37.3671L-62.8902 39.3196H-63.4798V39.4045ZM-57.5347 39.4045L-56.6503 35.3721H-55.815L-56.6994 39.4045H-57.5347ZM-56.5029 34.226C-56.5029 34.0138 -56.2081 33.7591 -55.9624 33.7591C-55.6676 33.7591 -55.4711 33.9289 -55.4711 34.1836C-55.4711 34.4807 -55.6676 34.6505 -56.0115 34.6505C-56.3063 34.6505 -56.5029 34.4807 -56.5029 34.226ZM-52.3757 34.3109L-52.5722 35.3721H-51.4913L-51.6387 35.8814H-52.7196L-53.1127 37.834C-53.211 38.0887 -53.211 38.2585 -53.211 38.5131C-53.211 38.7254 -53.0636 38.8527 -52.7688 38.8527H-52.4248L-52.5231 39.4045L-53.1127 39.447C-53.8006 39.447 -54.0954 39.1074 -54.0954 38.6829L-54.0462 37.9189L-53.5549 35.8814H-54.2428L-54.0954 35.3721H-53.4075L-53.211 34.4807L-52.3757 34.3109ZM-47.2167 39.1498C-47.5607 39.3196 -48.1503 39.447 -48.7399 39.447C-49.9682 39.447 -50.5087 38.7254 -50.5087 37.834C-50.5087 36.6455 -49.4769 35.2447 -48.0029 35.2447C-47.1185 35.2447 -46.6272 35.7116 -46.6272 36.2635C-46.6272 37.3246 -48.0029 37.6218 -49.7225 37.5369C-49.7717 37.7491 -49.7225 38.0887 -49.6243 38.3434C-49.4277 38.6829 -49.0838 38.8527 -48.5925 38.8527C-48.052 38.8527 -47.6589 38.6829 -47.3641 38.5556L-47.2167 39.1498ZM-48.1503 35.7965C-48.8873 35.7965 -49.4277 36.4332 -49.6243 37.0275C-48.3959 37.0275 -47.4624 36.9002 -47.4624 36.2635C-47.4624 35.9663 -47.7081 35.7965 -48.1503 35.7965ZM-40.4364 33.462L-41.4682 38.0887C-41.5665 38.5131 -41.6647 38.9801 -41.6647 39.3196H-42.4509L-42.3035 38.5556C-42.6965 39.1498 -43.3352 39.447 -43.9248 39.447C-44.8584 39.447 -45.3006 38.8103 -45.3006 37.9613C-45.3006 36.5606 -44.0722 35.2447 -42.4509 35.2447C-42.1561 35.2447 -41.8121 35.2872 -41.6156 35.3721L-41.2225 33.462H-40.4364ZM-41.763 35.9663C-41.9104 35.839 -42.1561 35.7965 -42.5 35.7965C-43.5809 35.7965 -44.5144 36.7728 -44.5144 37.834C-44.5144 38.3434 -44.2688 38.8527 -43.5809 38.8527C-42.9913 38.8527 -42.2052 38.2585 -42.0087 37.3671L-41.763 35.9663ZM-35.6705 33.844C-35.2283 33.7591 -34.737 33.7166 -34.2948 33.7166C-33.6069 33.7166 -33.1156 33.844 -32.7717 34.0987C-32.4769 34.3533 -32.2803 34.6505 -32.2803 34.99C-32.2803 35.7116 -32.9682 36.2635 -33.6561 36.4332C-33.0173 36.603 -32.5751 37.0275 -32.5751 37.6642C-32.5751 38.2585 -32.9191 38.6829 -33.3121 38.9801C-33.8035 39.3196 -34.5404 39.447 -35.4248 39.447L-36.8006 39.4045L-35.6705 33.844ZM-35.9162 38.8103L-35.2283 38.8527C-34.2948 38.8527 -33.3613 38.5131 -33.3613 37.6218C-33.3613 36.9426 -34 36.6455 -34.737 36.6455H-35.3757L-35.9162 38.8103ZM-35.3266 36.1361H-34.6878C-33.8035 36.1361 -33.0173 35.7116 -33.0173 35.0749C-33.0173 34.5231 -33.5087 34.3109 -34.1965 34.3109L-34.8844 34.3533L-35.3266 36.1361ZM-27.9566 39.4045L-27.8092 38.3858C-28.3006 39.1923 -28.9884 39.4894 -29.6272 39.4894C-30.4133 39.4894 -30.9046 38.8952 -30.9046 38.216C-30.9046 36.7728 -29.7254 35.3721 -27.711 35.3721C-27.2688 35.3721 -26.7283 35.4145 -26.4335 35.5419L-26.9248 37.6218C-27.0722 38.3434 -27.1214 39.0225 -27.1214 39.447H-27.9566V39.4045ZM-27.4162 35.839L-27.9566 35.7965C-29.1358 35.7965 -30.1676 36.8577 -30.1676 37.9613C-30.1676 38.4282 -29.9711 38.8527 -29.3324 38.8527C-28.6445 38.8527 -27.9075 38.0887 -27.711 37.0275L-27.4162 35.839ZM-25.1561 39.4045L-24.5173 36.5606L-24.3208 35.3721H-23.6329L-23.7803 36.1361C-23.3873 35.5419 -22.7485 35.2447 -22.0607 35.2447C-21.5202 35.2447 -20.8815 35.5419 -20.8815 36.3484L-20.9798 37.0275L-21.5202 39.3196H-22.3555L-21.8641 37.0275L-21.815 36.4757C-21.815 36.0937 -22.0115 35.7965 -22.552 35.7965C-23.0925 35.7965 -23.9277 36.3484 -24.1243 37.3671L-24.5173 39.3196H-25.1561V39.4045ZM-19.1127 39.4045L-17.8352 33.5469H-17.0491L-17.8844 37.1973C-17.737 37.07 -17.5404 36.9002 -17.4913 36.7728L-15.8208 35.3721H-14.8873L-16.9017 37.0275L-15.5751 39.4045H-16.4595L-17.5404 37.452L-18.1792 37.9189L-18.5231 39.447H-19.1127V39.4045ZM-11.1532 39.4045L-10.4162 35.8814H-11.0058L-10.9075 35.3721H-10.2688L-10.2196 35.1174C-10.0722 34.5231 -9.87571 34.0562 -9.43351 33.7166C-9.18785 33.462 -8.74565 33.3346 -8.35258 33.3346C-8.00866 33.3346 -7.81212 33.4195 -7.71386 33.462L-7.95952 34.0138C-8.05779 33.9289 -8.20519 33.9289 -8.40172 33.9289C-9.04045 33.9289 -9.38438 34.4807 -9.53178 35.1174V35.3721H-8.49998L-8.64738 35.8814H-9.63004L-10.4162 39.4045H-11.1532ZM-3.29189 36.9426C-3.29189 38.216 -4.32368 39.4894 -5.89594 39.4894C-7.026 39.4894 -7.66473 38.7254 -7.66473 37.834C-7.66473 36.5606 -6.5838 35.2872 -5.06068 35.2872C-3.83235 35.2447 -3.29189 36.0937 -3.29189 36.9426ZM-6.82946 37.7915C-6.82946 38.4282 -6.4364 38.8952 -5.74854 38.8952C-4.76588 38.8952 -4.07802 37.834 -4.07802 36.9426C-4.07802 36.4757 -4.37282 35.839 -5.20808 35.839C-6.1416 35.7965 -6.82946 36.8577 -6.82946 37.7915ZM-1.8179 39.4045L-1.27744 36.7728C-1.13004 36.2635 -1.08091 35.7116 -1.03178 35.3721H-0.343918L-0.442184 36.2635C-0.196518 35.7116 0.343948 35.2872 0.982674 35.2872H1.17921L1.03181 35.9663H0.835274C0.147415 35.9663 -0.442184 36.6455 -0.687843 37.6218L-1.08091 39.4045H-1.8179ZM6.04337 37.6218L5.01157 39.4045H4.17632L7.56649 33.844H8.50002L9.43354 39.4045H8.59828L8.30348 37.6218H6.04337ZM8.25435 37.0275L7.95955 35.4145C7.91042 35.1174 7.91042 34.6929 7.81216 34.3958L7.27169 35.4145L6.33817 37.0275H8.25435ZM11.0549 39.4045L11.7919 35.8814H11.2023L11.3497 35.3721H11.9393L12.0376 35.1174C12.1359 34.5231 12.3815 34.0562 12.7746 33.7166C13.0202 33.462 13.4624 33.3346 13.8555 33.3346C14.1994 33.3346 14.396 33.4195 14.4942 33.462L14.2977 34.0138C14.1503 33.9289 14.0029 33.9289 13.8064 33.9289C13.1676 33.9289 12.8237 34.4807 12.7254 35.1174L12.6272 35.2872H13.659L13.5116 35.839H12.4798L11.7428 39.3196H11.0549V39.4045ZM14.5434 39.4045L15.0838 36.7728L15.3786 35.3721H16.0665L15.9191 36.2635C16.2139 35.7116 16.7543 35.2872 17.3439 35.2872H17.5896L17.4422 35.9663H17.2457C16.5578 35.9663 15.9191 36.6455 15.7226 37.6218L15.3295 39.4045H14.5434ZM18.474 39.4045L19.3584 35.3721H20.1937L19.3093 39.4045H18.474ZM19.5058 34.226C19.5058 34.0138 19.7023 33.7591 20.0463 33.7591C20.2919 33.7591 20.5376 33.9289 20.5376 34.1836C20.5376 34.4807 20.2919 34.6505 19.948 34.6505C19.7023 34.6505 19.5058 34.4807 19.5058 34.226ZM24.7139 39.1923C24.4191 39.3196 23.9278 39.447 23.3382 39.447C22.1098 39.447 21.5694 38.7254 21.5694 37.9189C21.5694 36.5606 22.6994 35.2872 24.37 35.2872C24.763 35.2872 25.2052 35.4145 25.3035 35.4994L25.1069 36.0088C24.9104 35.9663 24.7139 35.839 24.37 35.839C23.1416 35.839 22.3555 36.8577 22.3555 37.7915C22.3555 38.4282 22.7977 38.8527 23.5347 38.8527C24.026 38.8527 24.37 38.7254 24.6156 38.598L24.7139 39.1923ZM29.3815 39.4045L29.4798 38.3858C29.0376 39.1923 28.3497 39.4894 27.711 39.4894C26.8757 39.4894 26.4335 38.8952 26.4335 38.216C26.4335 36.7728 27.5636 35.3721 29.6272 35.3721C30.0694 35.3721 30.6098 35.4145 30.8555 35.5419L30.4133 37.6218C30.2659 38.3434 30.1676 39.0225 30.1676 39.447H29.3815V39.4045ZM29.922 35.839L29.3815 35.7965C28.2023 35.7965 27.1705 36.8577 27.1705 37.9613C27.1705 38.4282 27.3671 38.8527 28.0058 38.8527C28.6937 38.8527 29.4306 38.0887 29.6272 37.0275L29.922 35.839ZM-49.9191 9.9888L-52.867 21.7891C-53.7514 24.3359 -55.3728 26.1186 -58.8121 26.246C-61.7601 26.246 -62.9393 24.5481 -62.2023 20.9826L-59.5982 9.9888H-63.9219L-66.9191 22.5955C-67.4595 27.4345 -64.1676 28.7928 -59.1561 28.6655C-54.3902 28.5381 -51.0982 26.6704 -49.2312 22.9351L-45.9393 9.9888H-49.9191ZM-13.5115 15.9314L-11.7919 22.0437H-18.1792L-13.5115 15.9314ZM-12.185 9.9888L-26.6792 28.241H-22.7485L-19.9971 24.7179H-10.9566L-10.0722 28.241H-5.40461L-10.5636 9.9888H-12.185ZM1.9162 28.3683H10.2197C17.6879 28.0712 19.3093 25.1424 16.9017 20.261L7.81216 4.93762L1.9162 28.3683ZM22.3064 0.141113C14.8382 0.438242 13.2659 3.40953 15.6734 8.24848L24.7139 23.5718L30.6098 0.141113H22.3064ZM-40.2399 25.9489L-38.7167 19.794H-36.9971C-34.4913 19.794 -32.3786 20.5581 -32.3786 22.5955C-32.3786 25.0575 -35.1792 26.0762 -38.3237 26.0762L-40.2399 25.9489ZM-36.948 12.3234H-34.8844C-32.6243 12.3234 -31.2485 12.7903 -31.2485 14.3608C-31.2485 16.2285 -33.3121 17.417 -36.4075 17.417H-38.1272L-36.948 12.3234ZM-40.2399 9.9888L-40.5838 10.0312L-44.9566 28.3259H-36.5549C-33.7052 28.3259 -32.0838 27.6467 -31.0029 27.0949C-29.2832 26.1186 -28.0549 24.5481 -27.6127 22.638C-27.0722 20.0487 -29.1358 18.6904 -31.6907 18.4782C-29.0867 17.9688 -26.8757 16.3134 -26.7283 13.9364C-26.3844 9.9888 -31.5433 9.9888 -31.5433 9.9888H-40.2399Z" fill="#D71920"/>
</svg>
