<svg width="24" height="24" viewBox="0 0 24 24" fill="none" xmlns="http://www.w3.org/2000/svg">
<path d="M8.84006 10.84C10.508 10.84 11.8601 9.48795 11.8601 7.82005C11.8601 6.15215 10.508 4.80005 8.84006 4.80005C7.17216 4.80005 5.82007 6.15215 5.82007 7.82005C5.82007 9.48795 7.17216 10.84 8.84006 10.84Z" stroke="#444449" stroke-width="1.5" stroke-linecap="round" stroke-linejoin="round"/>
<path d="M2.75 19.2001V17.4801C2.75 15.4801 4.37 13.8601 6.37 13.8601H11.79C13.79 13.8601 15.41 15.4801 15.41 17.4801V19.2001" stroke="#444449" stroke-width="1.5" stroke-linecap="round" stroke-linejoin="round"/>
<path d="M16.38 11.7C17.6171 11.7 18.62 10.6971 18.62 9.45997C18.62 8.22285 17.6171 7.21997 16.38 7.21997C15.1429 7.21997 14.14 8.22285 14.14 9.45997C14.14 10.6971 15.1429 11.7 16.38 11.7Z" stroke="#444449" stroke-width="1.5" stroke-linecap="round" stroke-linejoin="round"/>
<path d="M17.02 13.9399H18.56C20.04 13.9399 21.24 15.1399 21.24 16.6199V17.8999" stroke="#444449" stroke-width="1.5" stroke-linecap="round" stroke-linejoin="round"/>
</svg>
