<svg width="31" height="31" viewBox="0 0 31 31" fill="none" xmlns="http://www.w3.org/2000/svg">
<path d="M15.0417 0C6.75372 0 0 6.75372 0 15.0417C0 23.3297 6.75372 30.0834 15.0417 30.0834C23.3297 30.0834 30.0834 23.3297 30.0834 15.0417C30.0834 6.75372 23.3297 0 15.0417 0ZM14.7409 7.17488C17.4183 7.17488 19.5843 9.34089 19.5843 12.0183C19.5843 14.6807 17.4183 16.8617 14.7409 16.8617C12.0785 16.8617 9.91247 14.6807 9.91247 12.0183C9.91247 9.34089 12.0785 7.17488 14.7409 7.17488ZM23.9614 24.187C23.2845 24.8639 22.5174 25.4505 21.7051 25.9469C19.7648 27.1502 17.4784 27.8271 15.0417 27.8271C12.6049 27.8271 10.3186 27.1502 8.37823 25.9469C7.56598 25.4505 6.79885 24.8639 6.12198 24.187V23.9012C6.12198 20.8177 8.63393 18.3057 11.7024 18.3057H18.3809C21.4494 18.3057 23.9614 20.8177 23.9614 23.9012V24.187Z" fill="#0066F4"/>
</svg>
