<svg width="24" height="24" viewBox="0 0 24 24" fill="none" xmlns="http://www.w3.org/2000/svg">
<path d="M19.19 17.6301C17.45 16.0701 14.87 15.0901 12 15.0901C9.13 15.0901 6.55 16.0801 4.81 17.6301" stroke="#0066F4" stroke-width="1.5" stroke-linecap="round" stroke-linejoin="round"/>
<path d="M12 11.9999C13.4194 11.9999 14.57 10.8492 14.57 9.42987C14.57 8.0105 13.4194 6.85986 12 6.85986C10.5806 6.85986 9.42999 8.0105 9.42999 9.42987C9.42999 10.8492 10.5806 11.9999 12 11.9999Z" stroke="#0066F4" stroke-width="1.5" stroke-linecap="round" stroke-linejoin="round"/>
<path d="M12 21.25C17.1086 21.25 21.25 17.1086 21.25 12C21.25 6.89137 17.1086 2.75 12 2.75C6.89137 2.75 2.75 6.89137 2.75 12C2.75 17.1086 6.89137 21.25 12 21.25Z" stroke="#0066F4" stroke-width="1.5" stroke-linecap="round" stroke-linejoin="round"/>
</svg>
