<svg width="24" height="24" viewBox="0 0 24 24" fill="none" xmlns="http://www.w3.org/2000/svg">
<path d="M11.9801 2C7.52013 2 3.89014 5.63001 3.89014 10.1C3.89014 11.69 4.35012 13.18 5.15012 14.43C5.44012 14.89 5.77012 15.31 6.15012 15.7L6.46011 16.01C6.56011 16.09 6.65012 16.18 6.75012 16.27C7.20012 16.65 7.70013 16.98 8.23013 17.26C8.36013 17.33 8.49012 17.39 8.62012 17.45C8.75012 17.51 8.88011 17.57 9.02011 17.62C9.49011 17.81 9.99012 17.96 10.5001 18.05C10.9801 18.14 11.4701 18.19 11.9801 18.19C12.5001 18.19 13.0001 18.14 13.4901 18.04C14.0101 17.95 14.5001 17.81 14.9701 17.62V17.61C15.1001 17.56 15.2401 17.5 15.3701 17.44C15.5001 17.38 15.6301 17.31 15.7601 17.25C15.7901 17.23 15.8101 17.22 15.8401 17.21C16.1901 17.01 16.5201 16.8 16.8301 16.58C16.9601 16.47 17.0801 16.38 17.2001 16.28C17.3101 16.18 17.4201 16.09 17.5301 15.99C17.6301 15.89 17.7401 15.78 17.8401 15.68C18.2101 15.29 18.5401 14.87 18.8401 14.41C19.6201 13.16 20.0801 11.68 20.0801 10.1C20.0801 5.63001 16.4501 2 11.9801 2ZM15.8201 9.48999L14.2301 11.05C14.1601 11.11 14.1301 11.21 14.1501 11.31L14.5301 13.5C14.5701 13.74 14.3201 13.92 14.1001 13.81L12.1301 12.77C12.0401 12.73 11.9401 12.73 11.8501 12.77L9.88013 13.81C9.66013 13.92 9.41013 13.74 9.45013 13.5L9.83011 11.31C9.84011 11.21 9.81012 11.12 9.75012 11.05L8.15012 9.48999C7.98012 9.31999 8.07012 9.02999 8.31012 8.98999L10.5201 8.67001C10.6101 8.66001 10.6901 8.60001 10.7401 8.51001L11.7201 6.51001C11.8301 6.29001 12.1401 6.29001 12.2501 6.51001L13.2301 8.51001C13.2801 8.60001 13.3601 8.66001 13.4501 8.67001L15.6601 8.98999C15.9001 9.02999 15.9901 9.31999 15.8201 9.48999Z" fill="#F9FCFF"/>
<path d="M5.63014 16.5899C5.25014 16.2199 4.90015 15.8199 4.60015 15.3799L2.86013 18.3999C2.72013 18.6399 2.72013 18.9299 2.87014 19.1699C3.01013 19.3999 3.25013 19.5399 3.55013 19.5199L6.01015 19.3899L7.13014 21.5899C7.25014 21.8299 7.50014 21.9899 7.78014 21.9999C7.78014 21.9999 7.79013 21.9999 7.80013 21.9999C8.06013 21.9999 8.31015 21.8599 8.45015 21.6199L9.98015 18.9599C9.48015 18.8499 8.99013 18.6999 8.52013 18.4999C7.43013 18.0499 6.45014 17.3999 5.63014 16.5899Z" fill="#F9FCFF"/>
<path d="M21.15 18.3999L19.39 15.3599C19.08 15.7999 18.74 16.2099 18.35 16.5699C17.53 17.3899 16.55 18.0399 15.47 18.4899C15 18.6899 14.52 18.8399 14.02 18.9499L15.56 21.6199C15.69 21.8599 15.94 21.9999 16.21 21.9999C16.21 21.9999 16.22 21.9999 16.23 21.9999C16.5 21.9899 16.75 21.8299 16.87 21.5899L17.99 19.3899L20.46 19.5199C20.75 19.5399 20.99 19.3999 21.14 19.1699C21.28 18.9299 21.28 18.6399 21.15 18.3999Z" fill="#F9FCFF"/>
</svg>
