<svg width="24" height="24" viewBox="0 0 24 24" fill="none" xmlns="http://www.w3.org/2000/svg">
<path d="M18.27 7.17993H2.75V17.1999C2.75 18.8499 4.09 20.1799 5.73 20.1799H18.26C19.91 20.1799 21.24 18.8399 21.24 17.1999V10.1699C21.25 8.51993 19.91 7.17993 18.27 7.17993Z" stroke="#0066F4" stroke-width="1.5" stroke-linecap="round" stroke-linejoin="round"/>
<path d="M8.98001 3.82007H14.11C15.81 3.82007 17.19 5.33007 17.19 7.18007" stroke="#0066F4" stroke-width="1.5" stroke-linecap="round" stroke-linejoin="round"/>
<path d="M2.75 10.8601V5.89014" stroke="#0066F4" stroke-width="1.5" stroke-linecap="round" stroke-linejoin="round"/>
<path d="M11.48 7.18007H4.29C3.44 7.18007 2.75 6.43007 2.75 5.50007C2.75 4.57007 3.44 3.82007 4.29 3.82007H11.48" stroke="#0066F4" stroke-width="1.5" stroke-linecap="round" stroke-linejoin="round"/>
<path d="M17.71 14.1899C17.9917 14.1899 18.22 13.9616 18.22 13.6799C18.22 13.3983 17.9917 13.1699 17.71 13.1699C17.4283 13.1699 17.2 13.3983 17.2 13.6799C17.2 13.9616 17.4283 14.1899 17.71 14.1899Z" fill="#0066F4" stroke="#0066F4" stroke-width="1.5" stroke-linecap="round" stroke-linejoin="round"/>
</svg>
