<svg width="31" height="31" viewBox="0 0 31 31" fill="none" xmlns="http://www.w3.org/2000/svg">
<path d="M25.3274 5.46266H19.5821C18.8902 5.46266 18.2435 5.037 17.8976 4.3453L16.905 2.4121C16.153 0.922291 14.7693 0 13.2954 0H4.22624C1.89504 0 0 2.23471 0 4.98376V24.4755C0 27.5615 2.13569 30.08 4.75265 30.08H25.3274C27.9443 30.08 30.08 27.5615 30.08 24.4755V11.0672C30.08 7.98116 27.9443 5.46266 25.3274 5.46266ZM2.256 4.98376C2.256 3.70678 3.14336 2.66037 4.22624 2.66037H13.2954C13.9722 2.66037 14.6189 3.08604 14.9798 3.77774L15.8371 5.46266H2.256V4.98376Z" fill="#0066F4"/>
</svg>
